<svg class="flower-patch-new" version="1.1" xmlns="http://www.w3.org/2000/svg" xmlns:xlink="http://www.w3.org/1999/xlink" viewBox="0 0 500 510">
	<defs>
    <style>
      .patch-color-fills {
        filter:url(#patch-fill-filter);
      }

      .patch-color-fills  * {
        fill:#000000;
      }

      .patch-color-fills .g1{
        fill:#4A6235;
      }

      .patch-color-fills .g2 {
        fill:#758A41;
      }

      .patch-color-fills .r1{
        fill:#C62B2A;
      }

      .patch-color-strokes * {
        stroke-dasharray:3 3;
        <!-- vector-effect:non-scaling-stroke; -->
        stroke:#000000;
        fill:none;
        stroke-width:1.5;
        stroke-linecap:round;
        stroke-linejoin:round;
        stroke-miterlimit:10;
      }

      .patch-color-strokes .g1{
        stroke:#4A6235;
      }

      .patch-color-strokes .g2{
        stroke:#758A41;
      }

      .patch-color-strokes .r1{
        stroke:#C62B2A;
      }
    </style>
    <filter id="patch-fill-filter" x="0" y="0" width="100%" height="100%">
      <!-- Patch White Back -->
      <feFlood flood-color="#FFFFFF" result="patch-back-1"></feFlood>
      <feComposite in="patch-back-1" in2="SourceAlpha" operator="in" result="patch-back-2"></feComposite>
      <!-- Patch Fill -->
      <feTurbulence type="fractalNoise" baseFrequency='.251 1' result='patch-noise-1' numOctaves="1"></feTurbulence>
      <feTurbulence type="fractalNoise" baseFrequency='1 .251' result='patch-noise-2' numOctaves="1"></feTurbulence>
      <feTurbulence type="fractalNoise" baseFrequency='.5 .5' result='patch-noise-3' numOctaves="10"></feTurbulence>
      <feComposite operator="out" in="SourceGraphic" in2="patch-noise-1" result="full-patch-1"></feComposite>
      <feComposite operator="out" in="SourceGraphic" in2="patch-noise-2" result="full-patch-2"></feComposite>
      <feComposite operator="out" in="SourceGraphic" in2="patch-noise-3" result="full-patch-3"></feComposite>
      <!-- Patch Shadow -->
      <feOffset result="fill-shadow-off" in="SourceAlpha" dx="-1" dy="1"></feOffset>
      <feGaussianBlur result="fill-shadow-1" in="fill-shadow-off" stdDeviation="1.5"></feGaussianBlur>
      <feColorMatrix in="fill-shadow-1" result="fill-shadow-2" values="0 0 0 0 0 0 0 0 0 0 0 0 0 0 0 0 0 0 .75 0"></feColorMatrix>
      <feBlend mode="normal" in="SourceGraphic" in2="fill-shadow-2" result="fill-shadow-3"></feBlend>
      <!-- Patch Merge -->
      <feMerge>
        <feMergeNode in="fill-shadow-3"></feMergeNode>
        <feMergeNode in="patch-back-2"></feMergeNode>
        <feMergeNode in="full-patch-1"></feMergeNode>
        <feMergeNode in="full-patch-2"></feMergeNode>
        <feMergeNode in="full-patch-3"></feMergeNode>
      </feMerge>
    </filter>
  </defs>
	<g class="patch-color-fills">
		<path class="r1" d="M252.5,189.6c-5.8,18.6-4.8,31.2-4.8,31.2s-4.9-12.6-21.2-26.8c-10-8.8-22.5-12.1-35.1-9.3
			c-6.5,1.5-12.6,4.6-17.7,8.8c1.8-0.2,3.6-0.3,5.4-0.3c9.1,0,18.3,2.5,26.9,7.5c0,0,0,0,0,0c16.1,9.4,23.8,34.7,31.9,61.4
			c8.7,28.3,17.6,57.6,35.9,67.4c0.5-1.5,1.2-3.2,1.9-5.1c7.7-19.9,1.2-45.5-5.2-70.1c-5.7-22.2-11.1-43.2-6.1-60
			c4.5-14.8,13.8-26,26.4-31.6c-9,0.1-17.8,2.8-25,8C259.4,175.3,255,181.7,252.5,189.6z"/>

		<path class="r1" d="M187.9,166.1c12-3.3,39.1-9.4,50,16.4c-2.1-28,17-29.2,24.1-34.4c-3.2-12.8-22.4-22.1-42.1-18
			C198.7,134.5,187.8,154.5,187.9,166.1z"/>

		<path class="r1" d="M261.2,350.2c-39.8-19.1-39-111.6-69.4-129.6c-15.7-9.2-32.3-8.3-45.5-1.1c-19.9,10.8-31.8,35.8-21,61.4
			c0,0,3.3-17.9,16.7-27.4c13.3-9.5,27.8-16,42.6,6.4c14,21.4,43.9,117.4,76.6,101.9C269.1,358.2,261.2,350.2,261.2,350.2z"/>

		<path class="r1" d="M302.6,351.9C308.4,353.3,302.6,351.9,302.6,351.9c1.9-0.3,3.6-0.8,5.2-1.5c28-12.9,7.9-95.4,5.1-120
			c-3.1-26.6,10.4-31,24.7-32.3c14.4-1.3,26.8,10.1,26.8,10.1c-4.3-15.1-13.3-25.4-24-30.4c-20.4-9.7-46.4-0.9-55,27.2
			c-10.1,33.2,28,90.6,12.4,130.6C297.8,335.7,296.9,350.5,302.6,351.9z"/>

		<path class="g2" d="M270.9,121L270.9,121c10.5,0,24.7-30.6,24.7-59.6c0.1-24.3-13.3-38.8-24.7-45.9c-12.1,9.9-20.5,24.6-20.5,45.9
			C250.3,88.2,261.3,116.9,270.9,121L270.9,121z"/>

		<path class="g2" d="M160.1,149.9c4.5-10.8-17.2-39.5-45.5-51.2c-23.4-9.7-43.1-2.1-54.8,6.4c4.3,16.1,14.9,30.6,35.5,39.2
			C121.3,155.1,152,157.9,160.1,149.9L160.1,149.9z"/>

		<path class="g2" d="M277.5,412.4c-0.9-12.6-35.4-28.8-67.1-25.8c-26.2,2.5-40.6,19.7-47.1,33.7c12,13.2,28.8,21.5,52,19.4
			C244.5,436.9,274,424,277.5,412.4L277.5,412.4z"/>

		<path class="g1" d="M284.7,384c9.5,16.7,24.1,35.1,43.4,54.7c46.8,47.2,103,60.5,105.4,61.1c0.7,0.1,1.3,0.3,2,0.3
			c4.1,0,7.9-2.8,8.9-7c0.1-0.9,0.3-1.8,0.1-2.8c-0.3-4.1-3.1-7.5-7-8.3c-0.6-0.1-53.6-12.9-96.5-56.1c-42.1-42.5-48.6-71.6-58.6-68.2
			C272.6,360.8,277.4,371.2,284.7,384z"/>
	</g>
	<g class="patch-color-strokes">
		<path class="r1" d="M252.5,189.6c-5.8,18.6-4.8,31.2-4.8,31.2s-4.9-12.6-21.2-26.8c-10-8.8-22.5-12.1-35.1-9.3
			c-6.5,1.5-12.6,4.6-17.7,8.8c1.8-0.2,3.6-0.3,5.4-0.3c9.1,0,18.3,2.5,26.9,7.5c0,0,0,0,0,0c16.1,9.4,23.8,34.7,31.9,61.4
			c8.7,28.3,17.6,57.6,35.9,67.4c0.5-1.5,1.2-3.2,1.9-5.1c7.7-19.9,1.2-45.5-5.2-70.1c-5.7-22.2-11.1-43.2-6.1-60
			c4.5-14.8,13.8-26,26.4-31.6c-9,0.1-17.8,2.8-25,8C259.4,175.3,255,181.7,252.5,189.6z"/>

		<path class="r1" d="M187.9,166.1c12-3.3,39.1-9.4,50,16.4c-2.1-28,17-29.2,24.1-34.4c-3.2-12.8-22.4-22.1-42.1-18
			C198.7,134.5,187.8,154.5,187.9,166.1z"/>

		<path class="r1" d="M261.2,350.2c-39.8-19.1-39-111.6-69.4-129.6c-15.7-9.2-32.3-8.3-45.5-1.1c-19.9,10.8-31.8,35.8-21,61.4
			c0,0,3.3-17.9,16.7-27.4c13.3-9.5,27.8-16,42.6,6.4c14,21.4,43.9,117.4,76.6,101.9C269.1,358.2,261.2,350.2,261.2,350.2z"/>

		<path class="r1" d="M302.6,351.9C308.4,353.3,302.6,351.9,302.6,351.9c1.9-0.3,3.6-0.8,5.2-1.5c28-12.9,7.9-95.4,5.1-120
			c-3.1-26.6,10.4-31,24.7-32.3c14.4-1.3,26.8,10.1,26.8,10.1c-4.3-15.1-13.3-25.4-24-30.4c-20.4-9.7-46.4-0.9-55,27.2
			c-10.1,33.2,28,90.6,12.4,130.6C297.8,335.7,296.9,350.5,302.6,351.9z"/>

		<path class="g2" d="M270.9,121L270.9,121c10.5,0,24.7-30.6,24.7-59.6c0.1-24.3-13.3-38.8-24.7-45.9c-12.1,9.9-20.5,24.6-20.5,45.9
			C250.3,88.2,261.3,116.9,270.9,121L270.9,121z"/>

		<path class="g2" d="M160.1,149.9c4.5-10.8-17.2-39.5-45.5-51.2c-23.4-9.7-43.1-2.1-54.8,6.4c4.3,16.1,14.9,30.6,35.5,39.2
			C121.3,155.1,152,157.9,160.1,149.9L160.1,149.9z"/>

		<path class="g2" d="M277.5,412.4c-0.9-12.6-35.4-28.8-67.1-25.8c-26.2,2.5-40.6,19.7-47.1,33.7c12,13.2,28.8,21.5,52,19.4
			C244.5,436.9,274,424,277.5,412.4L277.5,412.4z"/>

		<path class="g1" d="M284.7,384c9.5,16.7,24.1,35.1,43.4,54.7c46.8,47.2,103,60.5,105.4,61.1c0.7,0.1,1.3,0.3,2,0.3
			c4.1,0,7.9-2.8,8.9-7c0.1-0.9,0.3-1.8,0.1-2.8c-0.3-4.1-3.1-7.5-7-8.3c-0.6-0.1-53.6-12.9-96.5-56.1c-42.1-42.5-48.6-71.6-58.6-68.2
			C272.6,360.8,277.4,371.2,284.7,384z"/>
	</g>
</svg>
