<svg version="1.1" xmlns="http://www.w3.org/2000/svg" xmlns:xlink="http://www.w3.org/1999/xlink" viewBox="0 0 374.7 374.7" style="enable-background:new 0 0 374.7 374.7;" xml:space="preserve">
<style type="text/css">
	.st0{fill:#0F0000;}
	.st1{fill:#CE9A51;}
	.st2{fill:none;}
	.st3{fill:#C62B2A;}
	.st4{fill:#36442F;}
	.st5{fill:#F4EAE0;}
	.st6{fill:#87916D;}
</style>
<defs>
  <filter id="patch-texture">
		<!-- Stitch Shadow -->
		<feOffset result="offOut" in="SourceAlpha" dx="-2" dy="2" />
    <feGaussianBlur result="blurOut" in="offOut" stdDeviation="4" />
    <feColorMatrix in="blurOut" result="opacityOut" values="
    0 0 0 0 0
    0 0 0 0 0
    0 0 0 0 0
    0 0 0 0.95 0"/>
    <feBlend in="SourceGraphic" in2="opacityOut" mode="normal" result="shadowOut"/>
		<!-- Stitch Shadow End -->

		<!-- FILL PATTERN -->
		<feFlood flood-color="#FFFFFF" result="COLOR-WHITE" />
		<feComposite in="COLOR-WHITE" in2="SourceAlpha" operator="in" result="flower-white" />
    <!-- FILL PATTERN END -->

		<!-- FILL PATTERN -->
    <feTurbulence type="fractalNoise" baseFrequency='.251 1' result='flower-noise-1' numOctaves="1" />
		<feTurbulence type="fractalNoise" baseFrequency='1 .251' result='flower-noise-2' numOctaves="1" />
		<feTurbulence type="fractalNoise" baseFrequency='.5 .5' result='flower-noise-3' numOctaves="10" />
    <feDisplacementMap in="SourceGraphic" in2="flower-noise-1" scale="1" xChannelSelector="R" yChannelSelector="R" result="flower-1"></feDisplacementMap>
		<feDisplacementMap in="SourceGraphic" in2="flower-noise-2" scale="1" xChannelSelector="R" yChannelSelector="R" result="flower-2"></feDisplacementMap>
		<feDisplacementMap in="SourceGraphic" in2="flower-noise-3" scale="1" xChannelSelector="R" yChannelSelector="R" result="flower-3"></feDisplacementMap>
		<feComposite operator="out" in="SourceGraphic" in2="flower-noise-1" result="full-flower-1" />
		<feComposite operator="out" in="SourceGraphic" in2="flower-noise-2" result="full-flower-2" />
		<feComposite operator="out" in="SourceGraphic" in2="flower-noise-3" result="full-flower-3" />
    <!-- FILL PATTERN END -->

		<!-- OUTLINE -->
    <feTurbulence baseFrequency="1 1" type="fractalNoise" numOctaves="1" seed="0" result="Texture_10" />
    <feMorphology operator="dilate" radius="3" in="SourceGraphic" result="OUTLINE_10" />
    <feComposite operator="out" in="OUTLINE_10" in2 = "SourceAlpha" result="OUTLINE_20" />
		<feDisplacementMap scale="5" in="OUTLINE_20" in2="Texture_10" result="OUTLINE_30" />
    <!-- OUTLINE END-->

		<feMerge result="BEVEL_50">
			<feMergeNode in="shadowOut" />
			<feMergeNode in="flower-white" />
      <feMergeNode in="full-flower-1" />
			<feMergeNode in="full-flower-2" />
			<feMergeNode in="full-flower-3" />
			<feMergeNode in="OUTLINE_30" />
    </feMerge>
  </filter>
</defs>
<path filter="url(#patch-texture)" class="st1" d="M223.7,151.3c-22.8,13.4-22.2,82.7-52,97.1c-1.6,0.8-3,1.4-4.1,2c-0.2-1.8-1-4.6-2.6-8.6
	c-11.7-30.1,15.8-73.1,8.3-97.9c-6.4-21.1-26-27.7-41.2-20.4c13-11.2,33.7-12,47.1-2.2c5.3,3.8,9.4,9.3,11.6,16.5
	c2.1,7.1,1.5,15.6-0.3,24.8c3.3-10.3,7.1-18.8,12.5-23.6c9.3-8.2,20.4-10.2,30.3-8c10.5,2.4,19.8,9.6,24.6,19.6
	C248,145.1,235.5,144.4,223.7,151.3z"/>
<path filter="url(#patch-texture)" class="st2" d="M159.8,254.8c0.2-0.4,0.4-0.7,0.6-1.1l0,0C160.2,254.1,160,254.4,159.8,254.8z"/>
<path filter="url(#patch-texture)" class="st2" d="M159.6,255.5c-0.1,0.2-0.1,0.4-0.2,0.6C159.4,255.9,159.5,255.7,159.6,255.5z"/>
<path filter="url(#patch-texture)" class="st2" d="M159.8,254.9c-0.1,0.2-0.1,0.4-0.2,0.5C159.6,255.2,159.7,255,159.8,254.9z"/>
<path filter="url(#patch-texture)" class="st3" d="M166.2,253.9c-1,0.3-2.3,0-3.7,0c-0.7,0-1.4-0.1-2.1-0.2l0,0c-1.4-0.2-2.7-0.6-3.9-1.1
	c-21-9.7-5.9-71.5-3.8-89.9c2.3-19.9-7.8-23.2-18.5-24.2c-10.8-1-20.1,7.6-20.1,7.6c3.2-11.3,10-19,18-22.8
	c15.3-7.3,34.8-0.7,41.2,20.4c7.6,24.9-20,67.9-8.3,97.9c1.6,4,2.4,6.8,2.6,8.6c1.1-0.5,2.5-1.2,4.1-2c29.8-14.3,29.2-83.6,52-97.1
	c11.8-6.9,24.2-6.2,34.1-0.8c14.9,8.1,23.8,26.8,15.7,46c0,0-2.5-13.4-12.5-20.5c-10-7.1-20.8-12-31.9,4.8
	c-10.5,16-32.9,88-57.4,76.4c-1.2-0.6-2.5-1.4-3.7-2.4C167.5,254.5,166.8,254.1,166.2,253.9z"/>
<path filter="url(#patch-texture)" class="st4" d="M176.7,20.6c9.1,7.4,15.4,18.4,15.4,34.4c0,20.1-6.4,41.2-13.6,44.3c4.4-2.7,8.3-17.6,8.3-31.9
	c0-11.6-4-19.5-9.7-24.9c-0.1,0.1-0.2,0.2-0.3,0.2c0-0.1-0.1-0.2-0.1-0.2c-0.2,0.2-0.4,0.5-0.5,0.8c-5.1,4.1-10.6,11.8-10.6,24.1
	c0,14.8,5.8,30.2,10.6,32.1c0.2,0.1,0.4,0.2,0.5,0.2c0,0,0,0,0,0c-7.9,0-18.5-22.9-18.5-44.7C158.1,36.8,168.2,25.9,176.7,20.6z"/>
<path filter="url(#patch-texture)" class="st4" d="M173.4,109.2c-0.1,0-0.2,0-0.3,0C173.2,109.2,173.3,109.2,173.4,109.2C173.4,109.2,173.4,109.2,173.4,109.2z"
	/>
<path filter="url(#patch-texture)" class="st5" d="M182,67.3c0-11.4-2.1-19.3-5.2-24.6c0.1-0.1,0.2-0.2,0.3-0.2c5.7,5.3,9.7,13.3,9.7,24.9
	c0,14.3-3.8,29.2-8.3,31.9c-0.5,0.3-0.9,0.4-1.4,0.4c-0.1,0-0.1,0-0.2,0c0,0,0,0-0.1,0C179.5,99.1,182,82.8,182,67.3z"/>
<path filter="url(#patch-texture)" class="st5" d="M176.2,99.5c-4.8-1.9-10.6-17.4-10.6-32.1c0-12.3,5.6-20,10.6-24.1c-2.8,4.1-5.9,11.8-5.9,24.1
	C170.3,82.1,173.5,97.5,176.2,99.5z"/>
<path filter="url(#patch-texture)" class="st6" d="M170.3,67.3c0-12.3,3.1-20,5.9-24.1c0.2-0.3,0.4-0.5,0.5-0.8c0,0.1,0.1,0.2,0.1,0.2c3.1,5.3,5.2,13.2,5.2,24.6
	c0,15.5-2.5,31.7-5.2,32.3c0,0-0.1,0-0.1,0c0,0,0,0,0,0c0,0,0,0,0,0c-0.2,0-0.4-0.1-0.5-0.2C173.5,97.5,170.3,82.1,170.3,67.3z"/>
<path filter="url(#patch-texture)" class="st4" d="M278.8,80.9c17.5-7.3,32.3-1.6,41.1,4.8c-3.2,12.1-11.2,22.9-26.6,29.3c-19.5,8.1-42.5,10.2-48.6,4.2
	c4.5,3.4,20.5,1.2,34.4-4.5c11.2-4.6,17.2-11.9,19.9-19.7c-6-3.8-16.3-6.9-29-1.7c-15,6.3-28,19.3-26.4,24.5c0-0.1-0.1-0.2-0.1-0.2
	C240.1,109.6,257.7,89.7,278.8,80.9z"/>
<path filter="url(#patch-texture)" class="st5" d="M271.3,96.5c-14.2,5.9-27.3,16.1-27.8,20.4c-0.1-5.6,12.3-17.6,26.5-23.5c11.9-5,21.7-2.5,27.8,1
	C292.3,92.4,283.2,91.5,271.3,96.5z"/>
<path filter="url(#patch-texture)" class="st5" d="M277.7,111.6c11.1-4.6,17.6-10.6,21-16.7c0.1,0,0.1,0.1,0.2,0.1c-2.7,7.8-8.7,15-19.9,19.7
	c-13.8,5.8-29.9,7.9-34.4,4.5c-0.5-0.3-0.8-0.8-1-1.2c0-0.1,0-0.1-0.1-0.2C245.4,121.2,262.6,117.8,277.7,111.6z"/>
<path filter="url(#patch-texture)" class="st6" d="M243.5,116.9c0.6-4.2,13.6-14.5,27.8-20.4c11.9-5,21-4.1,26.5-2.2c0.4,0.1,0.7,0.3,1,0.4
	c0,0.1-0.1,0.1-0.1,0.2c-3.4,6.1-9.9,12.1-21,16.7c-15.1,6.3-32.3,9.6-34.1,6.3c0,0-0.1-0.1-0.1-0.1
	C243.4,117.5,243.4,117.2,243.5,116.9z"/>
<path filter="url(#patch-texture)" class="st4" d="M211.8,270.8c22.1-5.3,38.7,4.8,47.9,14.4c-6.1,14.1-17.5,25.6-37.1,30.3c-24.6,5.9-52.3,3.6-58.4-4.9
	c4.7,5,24.1,5.7,41.6,1.6c14.1-3.4,22.6-10.9,27.3-19.9c-0.1-0.1-0.2-0.1-0.2-0.2c0-0.1,0.1-0.1,0.1-0.2c-0.4-0.2-0.7-0.5-1.1-0.7
	c-6.6-5.5-17.8-10.5-32.8-7c-18,4.3-35,16.4-35.8,23.3c-0.1,0.3-0.1,0.6,0,0.9c0,0,0-0.1,0-0.1
	C160.5,297.8,185.1,277.2,211.8,270.8z"/>
<path filter="url(#patch-texture)" class="st5" d="M204.8,308c14-3.3,22.8-9.3,28-16c0.1,0.1,0.2,0.1,0.2,0.2c-4.7,9-13.1,16.6-27.3,19.9
	c-17.5,4.2-36.9,3.5-41.6-1.6c-0.5-0.5-0.8-1.1-1-1.7c0-0.1,0-0.2,0-0.2C164.8,313,185.7,312.5,204.8,308z"/>
<path filter="url(#patch-texture)" class="st5" d="M200,288.3c-18,4.3-35.6,14.2-36.8,19.2c0.8-6.9,17.8-19,35.8-23.3c15-3.6,26.2,1.5,32.8,7
	C225.7,287.6,215,284.7,200,288.3z"/>
<path filter="url(#patch-texture)" class="st6" d="M163.2,307.5c1.3-5,18.8-14.9,36.8-19.2c15-3.6,25.7-0.7,31.8,2.8c0.4,0.2,0.8,0.5,1.1,0.7
	c0,0.1-0.1,0.1-0.1,0.2c-5.2,6.7-14,12.7-28,16c-19.1,4.5-40.1,5.1-41.6,0.6c0-0.1,0-0.1-0.1-0.2c0,0,0-0.1,0-0.1
	C163.1,308.1,163.1,307.8,163.2,307.5z"/>
<path filter="url(#patch-texture)" class="st3" d="M202.9,138.9c-5.4,4.8-9.3,13.3-12.5,23.6c1.8-9.3,2.5-17.8,0.3-24.8c-2.2-7.1-6.3-12.6-11.6-16.5
	c9-9.9,16-12.4,28.5-11.4c-9,9.4-9.3,16.2-13.7,36.6c4.2-19.6,12.2-28.2,21-36.1c0.3,0.1,0.5,0.2,0.8,0.3
	c8.9,3.4,15.1,11.1,17.4,20.4C223.3,128.7,212.2,130.7,202.9,138.9z"/>
<path filter="url(#patch-texture)" class="st4" d="M59.9,342c0.4-0.1,36.7-8.8,66-38.4c28.8-29.1,32.5-45.4,32.6-45.5c0-0.2,0.1-0.4,0.2-0.6c0,0,0-0.1,0-0.1
	c0.1-0.2,0.1-0.4,0.2-0.5c0,0,0,0,0,0c0.2-0.4,0.4-0.7,0.6-1.1c0.7,0.1,1.4,0.2,2.1,0.2c1.4,0,2.7,0.2,3.7,0c0.6,0.2,1.2,0.5,1.8,1
	c1.2,1,2.5,1.8,3.7,2.4c0,0.4,0,0.7-0.1,1.1c-0.2,0.9-1.2,5.8-6.2,14.5c-6.5,11.4-16.5,24-29.7,37.4c-32,32.3-70.5,41.4-72.1,41.8
	c-0.5,0.1-0.9,0.2-1.4,0.2c-2.8,0-5.4-1.9-6.1-4.8c-0.1-0.6-0.2-1.2-0.1-1.9C55.2,344.9,57.1,342.6,59.9,342z"/>
<path filter="url(#patch-texture)" class="st6" d="M54.8,345.2c0.4-5.3,6.3-8.1,10.7-9.8c1.2-0.5,2.5-1,3.9-1.5c13.3-5,33.3-12.5,52.6-32
	c24.8-25.1,32-42.5,33.6-47.4c1.2,0.5,2.4,0.9,3.9,1.1c-0.2,0.3-0.4,0.7-0.6,1.1c0,0,0,0,0,0c-0.1,0.2-0.1,0.4-0.2,0.5
	c0,0,0,0.1,0,0.1c-0.1,0.2-0.1,0.4-0.2,0.6c0,0.2-3.8,16.5-32.6,45.5c-29.3,29.6-65.7,38.3-66,38.4c-2.7,0.6-4.6,2.9-4.8,5.5
	C54.8,346.8,54.8,346,54.8,345.2z"/>
</svg>
