<svg version="1.1" xmlns="http://www.w3.org/2000/svg" xmlns:xlink="http://www.w3.org/1999/xlink" viewBox="0 0 134.9 131.4" style="enable-background:new 0 0 134.9 131.4;" xml:space="preserve">
<style type="text/css">
	.tumbleweed-1-fill{fill:#020202;}
</style>
<g>
	<path class="tumbleweed-1-fill" d="M113.1,55.5C113.1,55.5,113.1,55.5,113.1,55.5C113.1,55.5,113.1,55.5,113.1,55.5L113.1,55.5z"/>
	<path class="tumbleweed-1-fill" d="M89.5,71.3C89.5,71.3,89.5,71.3,89.5,71.3C89.6,71.3,89.6,71.3,89.5,71.3C89.6,71.3,89.6,71.3,89.5,71.3
		C89.6,71.3,89.6,71.3,89.5,71.3z"/>
	<path class="tumbleweed-1-fill" d="M85.4,23.6c0,0.1,0.1,0.2,0.1,0.3c-0.2,0.4-0.3,0.8-0.3,1.1c0,0.2-0.1,0.4-0.2,0.6c-0.2,0.5,0.1,1.1,0.6,1.3
		c0.1,0,0.2,0.1,0.4,0.1c0.4,0,0.8-0.2,0.9-0.6c0.1-0.3,0.2-0.6,0.2-0.9c0.1-0.7,0.2-0.8,0.5-1c0.1-0.1,0.3-0.2,0.3-0.3
		c0.1-0.1,0.3-0.2,0.3-0.4c0,0,0.1,0,0.1-0.1c0,0,0-0.1,0-0.1c0.2-0.5,0.4-0.9,0.5-1.4c0.4-1.2,0.9-2.3,1.4-3.5l0.1-0.2
		c0.4-0.9,0.6-1.3,1.1-1.4c0.5-0.1,0.9-0.6,0.8-1.2c-0.1-0.5-0.6-0.9-1.2-0.8c-1.6,0.3-2.2,1.6-2.6,2.6l-0.1,0.2
		c-0.5,1.2-0.9,2.4-1.4,3.6c-0.2,0.4-0.3,0.9-0.5,1.3c-0.3,0.2-0.6,0.4-0.8,0.7C85.7,23.5,85.6,23.6,85.4,23.6z"/>
	<path class="tumbleweed-1-fill" d="M58.9,67C58.9,67,58.9,67,58.9,67C58.9,67,58.8,67,58.9,67L58.9,67z"/>
	<path class="tumbleweed-1-fill" d="M60.8,65.5c-1.2,0-1.6,0.7-1.9,1.5C59.6,66.7,60.6,66.7,60.8,65.5z"/>
	<path class="tumbleweed-1-fill" d="M88.1,27.6C88.1,27.6,88.1,27.6,88.1,27.6C88.1,27.6,88.1,27.6,88.1,27.6L88.1,27.6z"/>
	<path class="tumbleweed-1-fill" d="M85.1,37c0,0.4,0.1,0.7,0.6,0.8c0.2-0.2,0.2-0.4,0.1-0.6C85.6,37,85.4,36.7,85.1,37z"/>
	<path class="tumbleweed-1-fill" d="M127.1,49.2c0-0.9-0.5-0.9-1.1-0.9C126.2,48.8,126.3,49.3,127.1,49.2z"/>
	<path class="tumbleweed-1-fill" d="M126.1,48.3C126.1,48.3,126.1,48.3,126.1,48.3C126,48.3,126,48.3,126.1,48.3C126,48.3,126,48.3,126.1,48.3
		C126,48.3,126,48.3,126.1,48.3z"/>
	<path class="tumbleweed-1-fill" d="M43.5,41.9c-0.4,0.3-0.5,0.6-0.2,0.9C43.6,42.7,43.7,42.4,43.5,41.9z"/>
	<path class="tumbleweed-1-fill" d="M59.8,78c-0.1-0.1-0.2-0.1-0.3-0.2c0,0-0.2,0.1-0.2,0.1c0.1,0.1,0.1,0.2,0.2,0.3C59.6,78.2,59.7,78.1,59.8,78z
		"/>
	<path class="tumbleweed-1-fill" d="M134.6,77.5c-0.3,0.2-0.4,0.5-0.2,0.8C134.9,78.1,135.1,77.9,134.6,77.5z"/>
	<path class="tumbleweed-1-fill" d="M62.6,45.7c-0.3,0.1-0.6,0.1-0.6,0.7C62.4,46.3,62.6,46.3,62.6,45.7z"/>
	<path class="tumbleweed-1-fill" d="M36.5,56.1c-0.1-0.1-0.2-0.2-0.3-0.2c0,0-0.1,0.1-0.1,0.2c0,0.1,0.1,0.2,0.1,0.3
		C36.3,56.3,36.4,56.2,36.5,56.1z"/>
	<path class="tumbleweed-1-fill" d="M20.3,31.9C20.4,31.9,20.4,31.8,20.3,31.9c0.2,0.1,0.4,0.1,0.6,0.1c0.3,0,0.6-0.1,0.8-0.4
		c0.6-0.8,0.8-1.6,0.9-2.4c0.1-0.5,0.2-1,0.4-1.3c0.3-0.5,0.1-1.1-0.4-1.4c-0.5-0.3-1.1-0.1-1.4,0.4c-0.3,0.6-0.5,1.3-0.6,1.9
		c-0.1,0.6-0.2,1.2-0.5,1.6c-0.3,0.4-0.2,1,0.2,1.4C20.3,31.8,20.3,31.8,20.3,31.9z"/>
	<path class="tumbleweed-1-fill" d="M54.8,82.9c0.5-0.2,0.7-0.3,0.6-0.7C55,82.2,54.9,82.4,54.8,82.9z"/>
	<path class="tumbleweed-1-fill" d="M41,87.4c0.1,0.1,0.2,0.2,0.3,0.2c0.1-0.1,0.1-0.2,0.2-0.3c-0.1-0.2-0.2-0.2-0.3-0.1C41,87.3,41,87.4,41,87.4z
		"/>
	<path class="tumbleweed-1-fill" d="M100.2,13.3c0-0.1,0-0.1-0.1-0.2c-0.1,0-0.2,0-0.2,0.1c0,0,0,0.1,0.1,0.2C100.1,13.4,100.2,13.3,100.2,13.3z"
		/>
	<path class="tumbleweed-1-fill" d="M42.5,61.8c0.1-0.2,0.1-0.4-0.2-0.4C42.2,61.6,42.2,61.8,42.5,61.8z"/>
	<path class="tumbleweed-1-fill" d="M26.5,41.6c0,0.1,0,0.3,0.1,0.4c0.2,0.1,0.3,0,0.2-0.2C26.8,41.6,26.7,41.5,26.5,41.6z"/>
	<path class="tumbleweed-1-fill" d="M46.9,61.9c-0.1,0-0.1-0.1-0.2-0.1c-0.2,0-0.3,0.1-0.2,0.3c0,0.1,0.1,0.1,0.1,0.1
		C46.9,62.2,46.9,62.1,46.9,61.9z"/>
	<path class="tumbleweed-1-fill" d="M22.7,75.3c0-0.1-0.1-0.3-0.1-0.4C22.5,75.1,22.3,75.3,22.7,75.3z"/>
	<path class="tumbleweed-1-fill" d="M126.6,74.1c-0.1,0.2-0.1,0.4,0.2,0.4C126.9,74.3,126.9,74.1,126.6,74.1z"/>
	<path class="tumbleweed-1-fill" d="M50.3,71.2c0,0.1,0,0.2,0,0.2c0.1,0.1,0.3,0.1,0.4,0c0-0.1,0-0.2,0-0.2C50.5,71.1,50.4,71.1,50.3,71.2z"/>
	<path class="tumbleweed-1-fill" d="M24.6,68.6c0-0.1,0-0.1,0-0.1C24.6,68.5,24.6,68.5,24.6,68.6C24.5,68.4,24.2,68.6,24.6,68.6z"/>
	<path class="tumbleweed-1-fill" d="M24.6,68.5C24.6,68.4,24.6,68.4,24.6,68.5L24.6,68.5z"/>
	<path class="tumbleweed-1-fill" d="M65.4,68.9c0,0-0.4,0.2,0.1,0.2C65.4,69,65.4,68.8,65.4,68.9z"/>
	<path class="tumbleweed-1-fill" d="M50.4,68.7c-0.1,0-0.1,0.2-0.1,0.3c0.1,0,0.3,0,0.3-0.1C50.7,68.8,50.6,68.7,50.4,68.7z"/>
	<path class="tumbleweed-1-fill" d="M61,25.4c-0.1,0-0.3,0-0.4,0.1C60.7,25.6,60.9,25.8,61,25.4z"/>
	<polygon class="tumbleweed-1-fill" points="3.9,73.9 3.8,74 3.9,74 	"/>
	<polygon class="tumbleweed-1-fill" points="86.6,14.4 86.4,14.4 86.4,14.5 	"/>
	<polygon class="tumbleweed-1-fill" points="22.1,56.1 22.1,56.3 22.2,56.2 	"/>
	<polygon class="tumbleweed-1-fill" points="124.4,26.8 124.3,27 124.4,26.9 	"/>
	<polygon class="tumbleweed-1-fill" points="49.6,48.9 49.4,49 49.5,49.1 	"/>
	<polygon class="tumbleweed-1-fill" points="29.8,90.4 29.9,90.3 29.7,90.2 	"/>
	<polygon class="tumbleweed-1-fill" points="126.2,45.1 126.2,45.3 126.4,45.2 	"/>
	<path class="tumbleweed-1-fill" d="M110.3,105.8c-3.6,2.9-6.8,4.7-12.2,6.9l-0.5,0.2c-1.2,0.5-2.5,1-3.6,1.8c-0.4,0.3-0.9,0.4-1.4,0.5
		c-0.1,0-0.1,0-0.2,0c0.7-0.7,1.3-1.1,2-1.4c0.8-0.3,1.1-0.8,1.4-1.2c0.1-0.2,0.2-0.3,0.3-0.4c0.4-0.3,0.5-1,0.2-1.4
		c-0.2-0.2-0.4-0.3-0.6-0.4c1.2-0.9,2.5-1.8,3.5-2.9c0.7-0.8,1.5-1.5,2.3-2.3c0,0,0,0,0,0c0.1,0,0.3,0,0.4-0.1
		c1.3-0.6,2.4-1.5,3.1-2.8c0.3-0.5,0.1-1.1-0.4-1.4c-0.5-0.3-1.1-0.1-1.4,0.4c-0.4,0.8-1,1.3-1.7,1.7c-1.2-1.5-1.3-2.2-0.1-3.4h0.5
		c0.1,0,0.2,0,0.4-0.1c1.5-0.6,2.2-1.8,2.8-2.8c0.1-0.2,0.2-0.4,0.3-0.5c0.3-0.4,0.7-0.8,1.1-1.2c0.5-0.4,0.9-0.8,1.3-1.4
		c0.2-0.2,0.2-0.5,0.1-0.8c1.2-1.2,2.5-2.4,4.1-3.2c-0.4-0.9,0.3-1.6,1-2.3c1.2-1.1,2.4-2.1,3.7-3c1.1-0.8,1.8-2,3-2.5c0,0,0,0,0,0
		c0.1,0.1,0.1,0.1,0.2,0.2c0,0.1-0.1,0.3-0.2,0.4c-0.2,0.4-0.5,1-0.3,1.8c0.1,0.5,0.5,0.8,1,0.8c0.1,0,0.2,0,0.2,0
		c0.5-0.1,0.9-0.7,0.7-1.2c0-0.1,0.1-0.3,0.2-0.4c0.1-0.3,0.3-0.7,0.4-1.1c0.9-0.9,1.1-2,1.2-2.9c0-0.4,0.1-0.9,0.2-1.2
		c0.1-0.2,0.1-0.3,0-0.5c0.2-0.3,0.3-0.6,0.6-0.8c-0.1-0.4-0.1-0.9-0.1-1.3c0.4-0.9,1.1-2.6-0.2-4.1c0-0.2,0-0.4,0-0.6
		c0-0.7,0-1.4-0.4-2.1c-0.1-0.1-0.1-0.1,0.1-0.6c0.1-0.2,0.2-0.4,0.3-0.7c0,0.5,0.1,0.9,0.6,1.3c1,0.2,1.5-0.5,1.6-1.3
		c0.1-0.4,0.1-0.7,0.1-1.1c0.1-0.1,0.3-0.3,0.3-0.5c0.1-0.3,0.2-0.6,0.3-0.9c0.3-0.9,0.8-2.1,0.1-3.4c-0.3-0.5-0.9-0.7-1.4-0.4
		c-0.1,0-0.1,0.1-0.2,0.2c-0.2-0.3-0.3-0.5-0.6-0.7c0.1-0.4,0.1-0.9,0.1-1.2c0-0.5,0-0.9,0.1-1.2c0.2-0.5,0-1.1-0.4-1.3
		c-0.3-0.2-0.7-0.1-1,0.1c0,0,0,0,0,0c0.3-1.6,0.5-3.3,0.4-5c0-0.5-0.5-0.9-1-0.9c0.8-0.8,1.4-1.6,2-2.5c0.4-0.1,0.8-0.2,1.3-0.2
		c-0.2-0.3-0.5-0.6-0.7-0.8c0.2-0.4,0-1-0.4-1.2c-0.1-0.1-0.2-0.1-0.3-0.1c0,0,0,0-0.1-0.1l-3.1-2.4c-0.4-0.3-1.1-0.3-1.4,0.2
		s-0.3,1.1,0.2,1.4l2.8,2.2c-0.7,1-1.6,2-2.7,3c-0.3,0.3-0.6,0.6-0.8,1.3c0,0.2,0,0.5,0.1,0.7c-0.3,0-0.6,0.1-0.8,0.3l-0.7,0.7
		c0,0,0,0,0,0c0,0,0,0,0-0.1c-0.6-2.1-1.4-3.7-2.6-5c0,0-0.1,0-0.1-0.1c0,0,0,0,0,0c-0.1-0.2-0.1-0.3-0.2-0.5c0.1-0.7,0-1.3-0.1-1.8
		c-0.1-0.4-0.1-0.7-0.1-1c0.1-2.2,0.9-3.6,2.6-4.5c0,0.2,0.1,0.5,0.1,0.8c0,0.5,0,1,0.2,1.6c0.1,0.2,0.1,0.5-0.1,0.8
		c-0.1,0.3-0.4,0.5-0.9,0.6c-0.5,0.1-0.8,0.7-0.7,1.2c0.1,0.4,0.5,0.7,1,0.7c0.1,0,0.2,0,0.3,0c0.2-0.1,0.4-0.1,0.5-0.2
		c0,0.7-0.6,1.6,0.6,1.9c0.2-0.9,0.3-1.7,0.4-2.6c0.2-0.2,0.4-0.4,0.6-0.7c0.4-0.7,0.5-1.5,0.2-2.3c-0.1-0.3-0.1-0.7-0.1-1.1
		c0-0.6,0-1.2-0.3-1.9c-0.2-0.5-0.2-1.2-0.2-1.9c0.1-0.1,0.3-0.2,0.3-0.4c0.2-0.5,0-1.1-0.4-1.3c-0.2-0.1-0.4-0.1-0.7-0.1
		c0-0.3,0.3-0.5-0.2-0.7c-0.2,0.2-0.2,0.3,0.2,0.7c-0.2,0-0.4,0.1-0.6,0.2c-0.4,0.2-0.6,0.6-0.6,1.1c0,0.2,0,0.4,0,0.6
		c0,0.3,0,0.7,0,1.1c-2.7,1.2-4.1,3.4-4.2,6.5c0,0.5,0.1,1,0.2,1.5c0,0.1,0,0.2,0,0.2c0,0,0,0,0,0.1c0-0.4-0.1-0.8-0.5-1.1
		c-0.1-0.1-0.1-0.1-0.2-0.2c0-0.3-0.1-0.5-0.1-0.7c0,0,0,0,0-0.1c0.5-1.5,1.3-2.9,2.2-4.4c0.8-1.2,1.5-2.5,2.1-4
		c0.2-0.5,0.4-1.1,0.4-1.8c0.2,0.1,0.4,0.2,0.6,0.2c0,0,0,0,0,0c0.5,0,1-0.4,1-1c0-0.2,0-0.3,0-0.5c0-0.3,0-0.6,0.1-0.7
		c0.2-0.4,0.2-0.9-0.1-1.2c-0.1-0.1-0.3-0.3-0.4-0.4c0.1-0.8,0.1-1.6,0-2.5c-0.2-1.6-0.3-2.9,0.5-4.1c0.3-0.5,0.2-1.1-0.3-1.4
		c-0.5-0.3-1.1-0.2-1.4,0.3c-1.2,1.7-1.1,3.7-0.8,5.5c0.1,0.4,0.1,0.8,0.1,1.2c-0.1,0-0.1,0-0.2-0.1l-0.4,0.9l-0.2,1
		c0.5,0.2,0.9,0.3,1.2,0.5c0,0.2-0.1,0.4-0.1,0.5c0,0,0-0.1,0-0.1c-0.3-0.5-0.9-0.7-1.4-0.4c-0.5,0.3-0.7,0.9-0.4,1.4
		c0.3,0.5,0.2,1-0.1,1.8c-0.5,1.3-1.2,2.4-1.9,3.6c-0.8,1.4-1.7,2.8-2.3,4.4c-1.2,0.7-1.7,1.9-2.2,2.9l-0.1,0.2c0,0-0.1,0-0.1,0
		l-0.5-0.2c0.1-0.4,0-0.9-0.1-1.5c-0.1-0.5-0.7-0.9-1.2-0.7c-0.5,0.1-0.9,0.7-0.7,1.2c0.1,0.2,0.1,0.4,0.1,0.6
		c-1.2-0.3-2.1-0.9-2.7-2.1c0.1-1.6,0.6-3.1,1.2-4.8c0.4-1.2,0.8-2.4,1.1-3.7c0,0,0,0,0,0c0.3,0,0.5-0.1,0.7-0.3l0.8-0.8
		c0.1-0.1,0.2-0.3,0.2-0.4c0.3-0.1,0.6-0.2,1-0.2c0.2,0.2,0.4,0.4,0.5,0.6c-0.1,0.4,0,0.9,0.4,1.2c0,0.1,0,0.3,0,0.4
		c0,0.2,0,0.5,0,0.7c0.1,0.5,0.5,0.9,1,0.9c0,0,0.1,0,0.1,0c0.5-0.1,0.9-0.6,0.9-1.1c0,0,0-0.1,0-0.1c0.4,0.2,0.8,0.4,1.3,0.1
		c-0.1-1.2-0.9-1.6-1.6-2c-0.1-0.2-0.3-0.4-0.6-0.6c-0.2-0.1-0.4-0.1-0.6-0.1c-0.1-0.1-0.2-0.2-0.3-0.3c-0.5-2-0.5-2.4,0.6-4
		c0.2-0.2,0.4-0.5,0.5-0.7c0.3-0.1,0.6-0.4,0.7-0.8c0,0,0,0,0,0c0.2-0.1,0.4-0.3,0.5-0.6c0.3-0.5,0.2-1.1-0.3-1.4
		c-0.5-0.3-1.1-0.2-1.4,0.3c0,0-0.1,0.1-0.1,0.1c-0.3,0.2-0.8,0.6-0.8,1.5c0,0,0,0,0,0c-1.3,1.4-2,3.3-3,5c-0.2,0-0.4,0.1-0.6,0.3
		l-0.3,0.3c-0.4-0.4-0.5-0.9-0.8-1.7c-0.1-0.3-0.2-0.6-0.3-0.9c0.2-0.1,0.4-0.3,0.7-0.4c0.7-0.3,1.5-0.8,2-1.7c0-0.1,0-0.1,0.1-0.2
		c0.1,0,0.2,0,0.3-0.1c0-0.5-0.1-0.9-0.6-1c0,0-0.1,0-0.1,0.1c0,0,0,0-0.1,0c-0.5-0.2-1.1,0-1.3,0.5c-0.2,0.3-0.5,0.5-1.1,0.8
		c-0.6,0.3-1.3,0.6-1.8,1.3c-0.3,0.3-0.3,0.8-0.1,1.1c0.2,0.3,0.3,0.7,0.4,1.2c0.2,0.7,0.4,1.5,1,2.2c-0.2,1.4-0.7,2.9-1.2,4.3
		c-0.6,1.7-1.1,3.4-1.3,5.2c-0.1-0.5-0.2-1.1-0.4-1.6c-0.2-0.5-0.7-0.7-1.2-0.6l-0.7,0.2c-0.5,0.2-0.8,0.7-0.6,1.3
		c0.1,0.4,0.5,0.7,1,0.7c0.2,0.8,0,1.5-0.5,2.3c-0.7,1.2-1.6,2.8-2.6,4.2c-0.4,0.6-0.4,1.2-0.4,1.5c0,0.1,0,0.2,0,0.3
		c-0.1,0.4,0,0.7,0.3,1c-0.1,0.1-0.2,0.2-0.2,0.3c-0.1,0.3-0.3,0.6-0.4,0.9c-0.4,0.8-0.7,1.6-1,2.5c-0.1,0.4-0.1,0.8,0,1.2
		c-0.2,0.2-0.4,0.4-0.6,0.6c0.2-1.2-0.4-1.8-1.4-2.3c0.4-1,0.8-1.7,1.2-2.3c0.4-0.4,0.3-1.1-0.1-1.4c-0.1-0.1-0.2-0.1-0.3-0.1
		c0.1-0.1,0.2-0.2,0.3-0.3c0.1-0.1,0.2-0.3,0.2-0.4l0.1-0.3c0.1-0.5,0.3-1.1,0.2-1.8c0.2-0.6,0.4-1.1,0.6-1.7
		c0.4-1.9,0.8-3.8,1.8-5.4c0.1,0,0.1,0,0.2,0c0.8-0.4,1.9-1,2.7-1.9c0.4-0.4,0.3-1-0.1-1.4c-0.4-0.4-1-0.3-1.4,0.1
		c-0.5,0.5-1,0.9-1.6,1.2c0-0.1,0-0.2,0-0.3c0.1-0.4,0.2-0.7,0.3-1.1c1.2-0.5,1.5-1.6,1.7-2.3c0.1-0.5-0.2-1.1-0.7-1.2
		c-0.3-0.1-0.6,0-0.8,0.1c0-0.3,0.1-0.6,0.2-0.9c0.1-0.7,0.2-1.3,0.3-2c0-0.3,0-0.6,0-0.9c0-0.9,0-1.4,0.3-1.8
		c0.4-0.4,0.4-0.9,0.1-1.3c0.3-0.4,0.4-0.8,0.5-1.1c0-0.1,0.1-0.2,0.1-0.3c0.2-0.5,0-1.1-0.5-1.3c-0.5-0.2-1.1,0-1.3,0.5
		c-0.1,0.2-0.1,0.4-0.2,0.6c0,0.1-0.1,0.2-0.1,0.3c0,0,0,0,0,0c-0.6-0.1-1.1,0.2-1.2,0.8c-0.1,0.5,0.2,1,0.7,1.1
		c-0.5,0.9-0.4,1.8-0.4,2.6c0,0.3,0,0.5,0,0.7c0,0.6-0.1,1.1-0.2,1.8c-0.2,1.2-0.5,2.6-0.1,4.1c0,0,0,0.1,0.1,0.1
		c0,0.3-0.1,0.6-0.1,0.9c0,0,0,0,0,0c-0.4,0.3-1,0.9-0.5,2.1c0,0,0,0,0,0.1c0,0.1,0.1,0.2,0.1,0.3c-0.1,0.2-0.1,0.4-0.2,0.6
		c-0.4-0.4-0.9-0.4-1.2-0.4c-0.4-0.8-0.8-1.6-1.1-2.4c0-0.1,0-0.3,0-0.4c0-0.1,0-0.2-0.1-0.3c0.4-0.5,0.5-1.1,0.2-1.9
		c0-0.1,0-0.1-0.1-0.2c0-0.5-0.3-1-0.8-1.1c-0.5-0.1-1.1,0.2-1.2,0.8c-0.1,0.4,0,0.8,0.1,1.1c-0.6,0.4-0.4,1.2-0.2,1.6
		c0,0.1,0.1,0.2,0.1,0.3c0.1,0.3,0.3,0.6,0.6,0.7c0.1,0.3,0.2,0.6,0.3,0.9c0.2,0.6,0.5,1.1,0.6,1.7c-0.1,0.2-0.2,0.4-0.3,0.5
		c-0.5-0.7-1-1.5-1.3-2.3c0-0.1-0.1-0.2-0.2-0.3c0-0.2-0.2-0.5-0.4-0.6c-0.2-0.1-0.4-0.4-0.6-0.6c-0.4-0.4-0.8-0.9-1.6-1.2
		c-0.5-0.2-1.1,0-1.3,0.5c-0.2,0.5,0,1.1,0.5,1.3c0.3,0.1,0.6,0.4,0.8,0.7c0.2,0.2,0.3,0.4,0.5,0.5c-2.2,2.5-3.9,5.3-5.3,7.8l0,0
		c0-1,0-1.3,0.4-1.5c0.2-0.1,0.3-0.2,0.4-0.4c0.4-0.7,0.1-1.3-0.1-1.6c0-0.5-0.4-0.8-0.9-0.9c-0.6-0.1-1,0.3-1.1,0.9
		c0,0.3,0,0.5,0.1,0.7c-0.9,0.8-0.8,2-0.8,2.9V50c0,0.6,0.4,1,1,1c0,0,0,0,0,0c0.3,0,0.5-0.1,0.7-0.3c0.1,0.3,0.2,0.5,0.5,0.7
		c0.2,0.1,0.3,0.1,0.5,0.1c0.4,0,0.7-0.2,0.9-0.5c1.3-2.3,2.8-4.9,4.8-7.2c0.5,0.9,1.1,1.7,1.7,2.5c0.2,0.3,0.5,0.4,0.8,0.4
		c0.2,0,0.4-0.1,0.6-0.2c0.1-0.1,0.2-0.2,0.2-0.3c0.1,0.1,0.2,0.2,0.3,0.3c0,0,0,0.1,0,0.1c-0.6,0.7-1.2,1.3-1.9,1.9
		c-0.2-0.1-0.5,0-0.7,0.1c-0.2,0.1-0.3,0.2-0.4,0.3c-0.4,0.1-0.7,0.4-0.8,0.8c0,0,0,0.1,0,0.1c-0.5,0.3-1,0.7-1.4,1
		c-0.3-0.1-0.6,0-0.9,0.2L82.9,54c-0.4,0.4-0.5,1-0.1,1.4c0.2,0.2,0.5,0.3,0.8,0.3c0.2,0,0.5-0.1,0.7-0.2l3.4-2.9
		c0.2-0.1,0.2-0.3,0.3-0.5c0.6-0.4,1.1-0.8,1.7-1.2c0,0,0.1,0,0.1,0c0.1,0,0.3,0,0.4-0.1c-0.1,0.3-0.1,0.6,0,1
		c0.1,0.2,0.2,0.5,0.5,0.6c0.4,0.2,0.9,0.4,1.3,0.4c-0.7,0.9-1.3,2-1.7,3.5c-0.1,0.3-0.3,0.7-0.4,1c-0.1,0.2-0.2,0.4-0.2,0.5
		c-0.1,0.1-0.1,0.3-0.1,0.4c-0.3,0-0.6,0-0.9,0.1c-0.2-0.2-0.5-0.4-0.8-0.4l-0.3,0c-1.4,0.1-2.6,0.2-3.4-0.5c-0.7-0.6-1.4-1-2.1-1.2
		c-0.2-0.1-0.3-0.1-0.5-0.2c0.1-0.2,0.3-0.3,0.6-0.7c0.4-0.4,0.4-1,0-1.4s-1-0.4-1.4,0c-0.5,0.5-0.8,0.8-1,1.1
		c0.1-0.3,0.2-0.7,0.4-1c0.2-0.4,0.2-0.8-0.1-1.2c-0.5-0.6-1.1-1-1.8-1.2c-0.5-0.1-1.1,0.2-1.2,0.8c-0.1,0.5,0.2,1.1,0.8,1.2
		c0.1,0,0.2,0,0.2,0.1c-0.3,0.6-0.4,1.2-0.5,1.8c-0.2,0.6-0.3,1.2-0.6,1.8c-0.5,1-0.9,2-1.3,2.9c-0.2,0.4-0.3,0.8-0.5,1.2
		c-0.2,0.5,0,1.1,0.5,1.3c0.1,0.1,0.3,0.1,0.4,0.1c0.4,0,0.8-0.2,0.9-0.6c0.2-0.4,0.3-0.8,0.5-1.3c0.1-0.2,0.1-0.3,0.2-0.5
		c0,0,0,0,0,0c0.2-0.1,0.4,0,0.6,0.1c0,0.1,0.1,0.1,0.1,0.2c0,0.1,0,0.1,0,0.2c0,0.2,0,0.4,0,0.7c0.1,0.5,0.5,0.8,1,0.8
		c0.1,0,0.1,0,0.2,0c0.5-0.1,0.9-0.6,0.8-1.1c0-0.1,0-0.1,0-0.2c0-0.3,0-0.9-0.5-1.5c0,0,0,0,0-0.1c0,0,0.1-0.1,0.2-0.2
		c0.4-0.4,0.5-1,0.1-1.4c-0.1-0.1-0.1-0.1-0.2-0.2l0.2-0.1c0.3,0.2,0.6,0.3,0.9,0.5c0.6,0.2,1.1,0.5,1.5,0.9c1,0.9,2.3,1.1,3.5,1.1
		c0.5,0,1,0,1.4-0.1l0.2,0c0.2,0.2,0.4,0.5,0.4,0.8c-2,1.6-3.1,3.7-4.5,5.7c-0.3-0.3-0.8-0.6-1.5-0.3c0-1.1,0.3-2.1,0.7-3.1
		c0.2-0.5-0.1-1.1-0.6-1.3c-0.5-0.2-1.1,0.1-1.3,0.6c-0.4,1.3-0.8,2.7-0.8,4.2c0,0.4,0.1,0.6,0.3,0.8c-0.2,0.7-0.4,1.4-0.7,2
		c-0.1,0-0.2,0.1-0.3,0.2c-1.1,0.8-1.6,1.9-2.1,2.9L76.9,73c-0.2,0.4-0.1,0.8,0.2,1.1c-0.2,0-0.5,0.1-0.6,0.2
		c-0.7,0.6-0.6,1.4-0.6,1.8c0,0,0,0.1,0,0.1c-0.2,0.6-0.4,1.3-0.7,1.9c-0.6,0.4-1.2,0.7-1.8,1c-0.1,0-0.3,0-0.4,0
		c0,0,0.1-0.1,0.1-0.1c0.3-0.5,0.2-1.1-0.3-1.4c-1.6-1.1-3.3-1-4.6-0.7l-1.1-0.7c-0.2-0.1-0.5-0.2-0.7-0.2c-0.2,0-0.4,0.1-0.5,0.2
		c0.8-0.7,1.5-1.4,2.1-2.3c0.2-0.1,0.5-0.3,0.7-0.4c-0.1-0.1-0.1-0.2-0.1-0.3c0.6-0.9,1.2-1.9,1.8-2.8l0.1-0.2
		c0.1-0.2,0.2-0.5,0.1-0.8c0.5-0.6,1.1-1.1,1.8-1.5c0.1,0,0.1-0.1,0.2-0.1c0,0,0.1,0,0.1,0c0.2,0,0.3,0,0.4-0.1l3.4-1.7
		c0.5-0.2,0.7-0.8,0.4-1.3c-0.2-0.5-0.8-0.7-1.3-0.4l-3.4,1.7c-0.3,0.1-0.5,0.4-0.5,0.7c-0.5,0.3-0.9,0.6-1.3,1
		c-0.4,0.3-0.7,0.7-1,1.1c-0.3,0-0.6,0.2-0.8,0.5l-0.1,0.2c-1.2,2-2.3,3.8-3.9,5.3c-0.4,0.2-0.9,0.3-1.4,0.3c-0.1-0.4-0.4-1-0.8-1.4
		c0.2-0.8,1-1.3,0.8-2.2c-0.9-0.5-1.2,0.3-1.8,0.5c0-0.1-0.1-0.1-0.1-0.2c-0.1-0.1-0.2-0.3-0.3-0.6c-0.2-0.6-0.5-1.4-1.4-1.9
		c-0.4-0.2-1-0.1-1.3,0.3c-0.1,0.1-0.1,0.2-0.2,0.3c0.1-0.5,0.2-1,0.2-1.5c0-0.6-0.4-1-1-1c-0.6,0-1,0.4-1,1c0,1.2-0.4,2.2-1.2,3
		c-0.4,0.4-0.4,1,0,1.4c0.1,0.1,0.3,0.2,0.4,0.2c-1.2,1.3-2.3,2.4-3.6,3.4c0-0.2,0-0.3,0-0.5c0-0.2,0-0.5,0-0.7c0-0.5-0.5-1-1-1
		c0,0,0,0,0,0c-0.6,0-1,0.5-1,1c0,0.2,0,0.4,0,0.7c0,0.6,0,1.3,0.2,2.1c-0.1,0.2-0.2,0.4-0.4,0.6c-0.8,0.9-2.6,1.1-3.9,1.8
		c0,1.1,1.2,1.3,1.1,2.3c-0.2,0.6-0.5,1.2-0.8,1.7c-0.2,0.1-0.4,0.2-0.5,0.4c0,0-0.1,0.1-0.2,0.2c-0.3,0.3-0.8,0.7-0.9,1.5
		c0,0.1,0,0.1,0,0.2c-0.1,0.1-0.3,0.3-0.4,0.4c-2.8,2.2-5.2,4.6-7.7,7.2c-0.2,0.2-0.5,0.5-0.8,0.5l-0.1-0.8c0.2-0.7,0.4-1.3,0.6-2
		c0.4-1.5,0.9-2.9,1.6-4.2c0.2-0.3,0.1-0.7,0-1c0.1-0.2,0.3-0.5,0.4-0.7c0.3-0.1,0.5-0.3,0.6-0.5c0.2-0.3,0.5-0.6,0.8-1
		c0.5-0.5,1-1,1.4-1.8c0.1-0.2,0.1-0.4,0-0.6c-0.1-0.5,0.1-0.9,0.5-1.6c0.2-0.4,0.5-0.8,0.7-1.3c0.1-0.4,0.1-0.7-0.2-1
		c0,0,0-0.2-0.1-0.3c0-0.3-0.1-0.8-0.4-1.2c0.1-0.1,0.1-0.1,0.2-0.2l0.1-0.1c0.4-0.3,0.9-0.8,1.3-1.5c0.1,0,0.2,0.1,0.3,0.1
		c0,0,0,0,0,0c0.6,0,1-0.5,1-1c0-0.1,0.3-0.2,0.4-0.2c0.3-0.2,0.7-0.4,1-0.7c0.4-0.4,0.3-1.1-0.1-1.4c-0.4-0.4-1.1-0.3-1.4,0.1
		c0,0.1-0.3,0.2-0.4,0.2c-0.2,0.1-0.6,0.3-0.9,0.6C43,72.1,42.8,72,42.6,72c0.7-1.2,0.9-2.5,0.7-3.8c-0.1-0.3-0.2-0.5-0.5-0.7
		c-2.2-1.4-4.3-2.3-6.5-2.8c-0.4-0.1-0.8,0.1-1,0.4c-0.1,0-0.1,0-0.2,0c0,0-0.1-0.1-0.1-0.1c-0.6-0.5-1.3-0.5-1.8-0.4
		c0.1-0.3,0.1-0.6,0-0.9c-0.1-0.5-0.7-0.9-1.2-0.8c-0.5,0.1-0.9,0.7-0.8,1.2c0,0.1-0.1,0.3-0.2,0.4l0,0.1c-0.2,0.4-0.1,0.8,0.2,1.1
		l0.5,0.5c0.1,0.1,0.3,0.2,0.5,0.3c0.3,0.1,0.7,0,0.9,0c0.3,0,0.5,0,0.6,0c0.2,0.1,0.4,0.2,0.6,0.2c0.3,0,0.5-0.1,0.7-0.4
		c0.1,0,0.2,0,0.2,0c0.1,0.1,0.3,0.3,0.5,0.3c1.8,0.4,3.7,1.2,5.5,2.3c0.1,1.5-0.9,3.1-3,4.6c-0.4,0.3-0.5,1-0.2,1.4
		c0.2,0.3,0.5,0.4,0.8,0.4c0.2,0,0.4-0.1,0.6-0.2c0.1-0.1,0.2-0.2,0.3-0.3c0,0.1,0,0.2,0.1,0.3c-0.1,0.2-0.3,0.4-0.4,0.6
		c-1.7,0.2-3.2,0.7-4.7,1.2c-0.2,0.1-0.4,0.1-0.6,0.2c0-0.5-0.3-0.9-0.8-1c-0.5-0.1-1.1,0.2-1.2,0.8c-0.1,0.3-0.1,0.6,0,0.9
		c-0.4,0-1.1,0-1.6,0.5c0.1-0.5,0.2-1.1,0.3-1.6c0.2-0.1,0.3-0.3,0.4-0.6c0.1-0.1,0.2-0.2,0.3-0.4c0.3-0.5,0.2-1.1-0.3-1.4
		c-0.5-0.3-1.1-0.2-1.4,0.3c-0.2,0.2-0.8,0.6-0.6,1.4c0,0.1,0.1,0.3,0.1,0.4c-0.1,0.1-0.2,0.3-0.3,0.4c-0.3,0.1-0.6,0.3-1,0.5
		c0.1,0.8,0.2,1.6,0.1,2.4c0,0,0,0,0,0c-0.4,0.6-1,1.5-0.9,2.6c0,0,0,0,0,0c-0.1,0.1-0.2,0.2-0.3,0.4c-1.1-0.6-2.1-1.3-3-2.3l0-0.1
		c0.1-0.6,0.3-1.1,0.4-1.5c0.6,0.4,1.2,0.6,1.9,0.8c0.5,0.1,1.1-0.2,1.2-0.7c0.1-0.5-0.2-1.1-0.7-1.2c-0.8-0.2-1.5-0.6-2.1-1.2
		c-0.2-0.2-0.5-0.3-0.8-0.2c-0.3,0-0.6,0.2-0.7,0.5c-0.6,1-0.9,2.1-1.1,3.1L22,80.8c-0.1,0.3,0,0.6,0.2,0.9c1.2,1.5,2.8,2.6,4.2,3.4
		c0,0,0,0,0,0c1.3,2.8,1.4,5.7,0.3,8.6c-0.1,0.3-0.4,0.5-0.9,0.6c-0.6-0.4-1.2-0.8-1.8-1.3c0-0.2,0-0.4-0.2-0.6l-1.7-2.4
		c-0.1-0.1-0.2-0.2-0.3-0.3c-0.1-0.4,0-0.7,0.1-1c0.5-0.2,0.9-0.6,1.2-1.1c0.2,0.1,0.4,0.1,0.6,0.1c0.2,0,0.4,0,0.5,0
		c0.2,0,0.3,0,0.4,0c0.5,0.1,1.1-0.2,1.2-0.8c0.1-0.5-0.2-1.1-0.8-1.2c-0.4-0.1-0.7,0-1,0c-0.2,0-0.4,0-0.5,0
		c-0.3-0.2-0.6-0.3-0.9-0.2c-0.5-0.4-0.8-0.9-0.9-1.7l0,0c-0.1-0.6-0.3-1.2-0.4-1.8c0.2-0.2,0.3-0.6,0.2-0.9
		c-0.3-0.9-0.4-1.8-0.6-2.8c-0.3-1.4-0.5-2.8-1.1-4.2c-0.6-1.5-1-3.1-1.3-4.6c0.2,0.1,0.3,0.2,0.5,0.2c0.1,0,0.3,0,0.4-0.1
		c0.5-0.2,0.7-0.8,0.5-1.3c-0.4-0.9-1.2-1.2-1.7-1.5c-0.1-0.1-0.3-0.1-0.4-0.2c0,0,0,0,0,0c-0.1-0.3-0.3-0.6-0.5-0.8
		c0.3-0.9-0.1-1.7-0.3-2.3c-0.2-0.4-0.3-0.7-0.3-0.9c0-0.6-0.4-1-0.9-1.1c0,0-0.1,0-0.1,0c0.1-0.2,0.2-0.4,0.3-0.7
		c0.1-0.3,0-0.6-0.2-0.9c-0.3-0.4-0.4-0.8-0.5-1.4l0.7-0.7c0.3-0.3,0.3-0.6,0.2-1c0.2-0.2,0.5-0.4,0.7-0.7c0,0,0,0,0,0
		c0.1,0,0.3,0,0.4-0.1c1.5-0.6,2.7-1.6,3.9-2.5c0.5-0.4,1-0.8,1.6-1.2c0.1-0.1,0.2-0.2,0.3-0.4c0.1-0.1,0.3-0.2,0.4-0.3
		c0.1,0.2,0.2,0.3,0.3,0.4c0.2,0.1,0.4,0.2,0.6,0.2c0.3,0,0.6-0.1,0.8-0.4l4.8-6.2c0.3-0.4,0.3-1.1-0.2-1.4
		c-0.4-0.3-1.1-0.3-1.4,0.2L27.4,46c0.2-0.9,0.3-1.8,0.3-2.8c0-0.6-0.5-1-1.1-0.9c-0.6,0-1,0.5-0.9,1.1c0.1,1.8-0.3,3.2-1.4,4.3
		c-0.6,0.6-1.1,1.4-1.6,2.1c-0.2,0.3-0.4,0.6-0.6,0.9c0,0.1-0.1,0.1-0.1,0.2c-0.1,0-0.1,0-0.2,0.1c-0.6,0.4-1.1,0.8-1.7,1.2
		c-0.7,0.6-1.4,1.1-2.2,1.6c1.3-2.5,2.3-5.2,3.2-8.2c0.1-0.3,0-0.6-0.1-0.8c0.3-0.1,0.5-0.4,0.6-0.7c0.1-0.3,0.1-0.6,0.1-0.8
		c0-0.2,0-0.4,0.1-0.5L22,42c0.6-1.4,1.1-2.9,1.1-4.6c0,0,0-0.1,0-0.1c0.3-0.2,0.5-0.5,0.5-0.9c0-0.7,0.2-1.4,0.4-2.1
		c0.2-0.7,0.4-1.3,0.5-2.1c0-0.1,0-0.1,0-0.2c0.2-0.1,0.4-0.4,0.5-0.7c0-0.2,0.1-0.4,0.1-0.6c0-0.2,0-0.3,0.1-0.4
		c1.1-2.4,2.7-4.4,4.3-6.5c0.6-0.7,1.1-1.4,1.6-2.2c0,0,0-0.1,0-0.1c0,0,0.1,0,0.1,0c0.4,0,0.7-0.2,0.9-0.5c0.4-0.8,1.2-1.3,2-1.9
		c0.4-0.3,0.8-0.6,1.2-0.9c1.7-1.4,3.4-1.6,5.2-0.4c1.5,0.9,3,1.6,4.5,2.2c0.4,0.2,0.8,0.2,1.1,0.2c0.4,0,0.5,0,0.6,0.1
		c0.4,0.4,1,0.5,1.4,0.1c0.3-0.3,0.7-0.4,1.2-0.3c0.5,0.1,1-0.3,1.1-0.9c0.1-0.5-0.3-1-0.9-1.1c-0.7-0.1-1.4,0-2,0.3
		c-0.5-0.2-1-0.2-1.3-0.3c-0.2,0-0.4,0-0.5,0c-1.1-0.4-2-0.8-2.9-1.3c0.1-0.1,0.1-0.2,0.3-0.4c2-1.8,4.5-2.8,7.2-3.7l0.4-0.2
		c0.4-0.1,0.8-0.3,1.2-0.5c0.5-0.3,1.1-0.6,1.4-0.5c3.3,0.6,5.8-0.8,8.2-2.1c0.3-0.2,0.6-0.3,0.9-0.5c1.1-0.6,2.1-1.2,3.1-1.8
		c0.4-0.3,0.9-0.6,1.3-0.8c0.5-0.3,0.6-0.9,0.3-1.4c-0.3-0.5-0.9-0.6-1.4-0.3c-0.5,0.3-0.9,0.6-1.3,0.8c-1,0.6-1.9,1.2-2.9,1.8
		c-0.3,0.2-0.6,0.3-0.9,0.5c-2.2,1.2-4.3,2.4-6.8,1.9c-1-0.2-1.9,0.3-2.7,0.7c-0.3,0.2-0.6,0.3-0.9,0.4L49.7,11
		c-2.7,1-5.5,2-7.8,4.1c-0.2,0.2-0.5,0.5-0.7,0.9c-2.4-1.4-5-1.1-7.2,0.8c-0.3,0.3-0.7,0.5-1,0.8C32,18.3,31,19,30.4,20.2
		c-0.3,0-0.7,0.1-0.9,0.4c-0.5,0.7-1.1,1.4-1.6,2.1c-1.6,2.1-3.3,4.3-4.5,6.9c-0.2,0.5-0.2,0.9-0.3,1.2c0,0.1,0,0.2,0,0.3
		c0,0.1,0,0.2,0,0.3c-0.3,0.2-0.5,0.4-0.5,0.7c-0.1,0.5-0.2,1.1-0.4,1.6c-0.3,0.8-0.6,1.8-0.5,2.9c0,0,0,0,0,0
		c-0.3,0.2-0.5,0.5-0.5,0.9c0,1.3-0.4,2.5-0.9,3.8l-0.2,0.6c-0.2,0.5-0.2,0.9-0.2,1.2c0,0.2,0,0.3,0,0.4c-0.1,0.3,0,0.5,0.1,0.8
		c-0.3,0.1-0.5,0.3-0.6,0.6c-0.9,3-2,5.7-3.3,8.3c-0.2,0.3-0.6,1.2-0.4,2.2c-0.2,0.3-0.3,0.6-0.5,0.9c-0.2,0-0.3,0.1-0.4,0.2l-1,1
		c-0.1,0.1-0.2,0.3-0.2,0.4l-0.7,0.4c-0.3,0.1-0.4,0.4-0.5,0.6c-0.4,0.1-0.8,0.2-1.2,0.2c-1.8,1.9-2.8,4.2-4.4,6.2c0,0,0,0,0,0
		L7.1,64c0.9-2.9,1.9-5.8,3.2-8.5c0.1-0.3,0.3-0.6,0.5-0.8c0.4-0.7,0.9-1.6,1-2.5c0,0,0.1-0.1,0.1-0.1l1.3-1.6
		c0.1-0.1,0.2-0.3,0.2-0.5c0.5-0.4,0.7-0.9,0.9-1.4c0.2-0.3,0.3-0.6,0.5-0.7c0.4-0.4,0.3-1-0.1-1.4c-0.1-0.1-0.3-0.2-0.5-0.2
		c0.1-0.3,0.3-0.5,0.5-0.7c0.4-0.4,0.5-1,0.1-1.4c-0.4-0.4-1-0.5-1.4-0.1c-0.6,0.5-0.9,1.2-1.2,1.8c-0.2,0.3-0.3,0.7-0.5,0.9
		c-0.5,0.1-0.8,0.6-0.8,1.1c0,0.2,0,0.3,0,0.5c0,0.1,0,0.1,0,0.2c0,0,0,0,0,0l-1.2,1.5c-0.2,0.2-0.2,0.4-0.2,0.7
		c-0.4,0.3-0.7,0.7-0.7,1.3c0,0.5,0.3,1,0.8,1.1c-0.1,0.2-0.3,0.5-0.4,0.8c-0.2,0.3-0.4,0.6-0.5,1c-1.4,2.8-2.4,5.8-3.3,8.8L4.7,65
		c-0.1,0.2-0.1,0.6,0,1c-0.4,0.5-0.3,1.1-0.3,1.4c0,0.1,0,0.1,0,0.1c-0.1,0.5,0.2,1.1,0.8,1.2c0.1,0,0.1,0,0.2,0
		c0.5,0,0.9-0.3,1-0.8c0.1-0.2,0-0.5,0-0.6c0,0,0,0,0.1,0c0.2,0,0.4-0.1,0.5-0.2c-0.1,1.9,0.1,3.8,0.3,5.6c0.1,1.2,0.3,2.5,0.3,3.8
		c0,1.2,0.3,2.1,0.6,3c-0.1,0.1-0.3,0.1-0.4,0.2c-0.1-0.5-0.6-0.9-1.1-0.9c-0.1,0-0.1,0-0.1,0c0,0-0.1,0-0.1,0
		c-0.1-0.1-0.2-0.3-0.2-0.5c-0.1-0.3-0.3-0.7-0.6-1.1c-0.4-0.4-1-0.5-1.4-0.1c-0.4,0.4-0.5,1-0.1,1.4c0.1,0.1,0.2,0.3,0.2,0.5
		c0.2,0.6,0.7,1.7,2.1,1.8C6.3,80.9,6.1,81,6,81.1c-0.3,0.4-0.7,0.7-1,1c-0.9,0.7-1.7,1.7-2.4,2.5C2.3,85,2,85.4,1.7,85.7
		c-0.3,0.4-0.3,1,0,1.4c0.1,0.1,0.1,0.2,0.2,0.3c0.2,0.4,0.7,1.1,1.6,1.2c0,0,0.1,0,0.1,0c0.1,0,0.2,0,0.2,0c0,0.1,0,0.1,0,0.2
		C4,88.9,4,89,4.1,89.1c0.1,0.4,0.3,0.9,0.8,1.4c1.8,1.8,2.7,4.1,2.6,7.2c0,0.6,0,1.2,0,1.8l0,0.8c0,0.3,0.1,0.6,0.4,0.8
		c0.4,0.3,0.8,0.6,1.1,0.8c1,0.7,2,1.4,2.8,2.2c-0.3,0.1-0.6,0.3-0.7,0.6l-0.3,0.8c-0.2,0.5,0,1,0.5,1.2c1.1,0.6,2.3,0.9,3.4,1.2
		c1.3,0.3,2.6,0.7,3.6,1.5l0,0.1c-0.2,0.5,0.1,1.1,0.6,1.3c0.3,0.1,0.6,0.1,0.8-0.1c0.2,0.4,0.5,0.9,1,1.2c0,0,0,0,0,0.1
		c-0.1,0.5,0.2,1.1,0.7,1.2c0.2,0,0.3,0.1,0.5,0.1c-0.9,0.3-1.9,0.4-2.8,0.4c-0.2-0.4-0.5-0.5-0.8-0.6c-0.4-0.1-0.7,0-1,0.1
		c-2.5-0.8-5.2-1.7-7.7-3c-0.2-0.1-0.4-0.1-0.5-0.1c-0.2-0.3-0.5-0.5-0.9-0.5c0,0,0,0,0,0c-0.1-0.1-0.3-0.3-0.6-0.4
		c-2.3-1-2.3-1-2.1-3.4l0-0.4c0.1-1.4,0.5-2.6,0.9-3.9c0.3-1,0.6-2,0.8-3.1c0.1-0.5-0.3-1.1-0.8-1.2c-0.5-0.1-1.1,0.3-1.2,0.8
		c-0.2,1-0.5,1.9-0.8,2.9c-0.4,1.4-0.9,2.8-1,4.4l0,0.4c-0.2,3.4-0.1,3.9,3.3,5.4c0,0,0.1,0,0.1,0.1c0.2,0.2,0.6,0.5,1.2,0.5
		c0.1,0,0.2,0,0.3,0c0.1,0.2,0.2,0.3,0.4,0.4c2.8,1.3,5.6,2.3,8.3,3.2c0.1,0,0.3,0.1,0.4,0.1c0,0,0.1,0,0.1,0c0,1.1,0,2.4,1,3.5
		c0.2,0.2,0.4,0.3,0.7,0.3c0.7,0.7,1.6,0.9,2.3,1.4c0.8,0.8,1.2,1.7,2.1,2.1c0.5,0.1,0.8-0.2,0.9-0.6c0-0.7-0.6-1.1-0.9-1.6
		c-0.3-0.5-0.7-1.1-1.2-1.4c-0.9-0.3-1.6-0.6-2.1-0.9c0-0.2-0.1-0.4-0.2-0.6c-0.5-0.6-0.5-1.2-0.5-2.3v0c1.6-0.6,3-0.4,4.2,1.1
		c0.7,0.9,1.3,1.8,1.8,2.8c0.3,0.8,0.5,1.7,1.3,2.2c1.1-0.4,0.8-1.2,0.4-1.8c-1-1.9-1.9-3.7-3-5.5c-0.1-1.6-0.5-2.2-1.7-2.6
		c0.1-0.5-0.2-1-0.7-1.2c-0.1,0-0.2-0.2-0.4-0.6c-0.3-0.5-0.7-1.2-1.5-1.5c-0.1-0.1-0.1-0.3-0.3-0.4c-1-0.8-2.2-1.3-3.3-1.6
		c0,0,0,0,0-0.1c-1.5-2.6-3.9-4.3-6.1-6c-0.2-0.2-0.5-0.3-0.7-0.5l0-0.3c0-0.6,0-1.2,0-1.8c0.1-3.6-0.9-6.5-3.2-8.7
		C6.1,89,6.1,88.8,6,88.5c-0.1-0.2-0.1-0.3-0.2-0.5c-0.2-0.4-0.7-0.7-1.1-0.6c-0.1-0.4-0.4-0.7-0.8-0.7c0,0-0.1-0.1-0.1-0.2
		c0.2-0.2,0.3-0.4,0.5-0.5c0.7-0.8,1.3-1.6,2.1-2.2c0.5-0.4,0.9-0.8,1.2-1.2c0.6-0.7,1.2-1.2,2-1.5c0.1,0.1,0.2,0.2,0.3,0.3
		c0.4,0.3,0.8,0.8,1.2,1.2c0.1,0.1,0.2,0.2,0.2,0.3c0.3,0.9,0.5,1.8,0.6,2.6c0.3,1.3,0.6,2.6,1.2,3.9c-0.4,0.7-0.5,1.8,0.4,2.5
		c0,0,0.1,0,0.1,0.1c0.1,0.4,0.3,0.8,0.5,1.2c0.8,0.4,1.7,0.2,2.5,0.6l0.1,0.7c0.4,2,0.8,4,0.5,5.9c-0.2-0.3-0.5-0.6-0.8-0.8
		c-0.4-0.3-1.1-0.2-1.4,0.2c-0.1,0.2-0.2,0.4-0.2,0.6c-0.2-0.2-0.5-0.3-0.8-0.3c-0.4,0-0.7,0.2-0.8,0.6c-0.3,0.1-0.6,0.5-0.6,0.8
		c0,0.6,0.4,1,0.9,1.1c0,0,0.1,0,0.1,0c0.5,0,0.8-0.2,1-0.4c0.2-0.2,0.4-0.5,0.4-1.1c0,0,0,0.1,0.1,0.1c0.2,0.1,0.4,0.3,0.5,0.6
		c0.4,0.4,0.8,1,1.6,1.2c0.1,0.1,0.1,0.2,0.2,0.3c0.4,1,0.3,2.3,1.5,3c0.6,0.1,1.3,0.3,2,0.5c2.4,1,1.5,3.8,2.6,5.1
		c1,0.5,1.8,0,2.3,0.4c0.9,0.5,1.3,1.3,1.5,2.2c0,0.2,0.1,0.5,0.2,0.7c-0.1,0.4-0.1,0.8,0.2,1.1l0.7,0.7c0,0,0.1,0,0.1,0.1
		c0,0.1,0.1,0.1,0.1,0.2c-0.2,1.2,0.5,2.5,0.3,4c-0.5,0.6-0.8,1.4-1.2,2.2c-0.4,0.1-0.7,0.4-0.8,0.8c-0.1,0.1-0.2,0.2-0.3,0.4
		c-0.1,0.2-0.2,0.4-0.1,0.6c-0.4,0.5-1,0.9-1.7,1.1c-0.7-0.1-1.1-0.7-2-0.7c-0.6,0.3-1.4,0.5-2.1,1.3c1.1,0.9,2.1,1.9,3.2,2.5
		c2.6,0,4.7-0.6,6.7-2.7c1.5-1.7,4-2.6,6.4-2.5c0.6,0.5,1.2,0.6,1.8,0.7c0.4,0.1,0.8,0.2,1.3,0.3l0.9,0.7c2.2,1.6,3.4,2.5,4.9,2.5
		c1.2,0,2.6-0.6,4.8-1.8c0.1,0.1,0.3,0.2,0.4,0.3c0.3,0.3,0.7,0.6,1.2,0.7c0.1,0.2,0.2,0.3,0.4,0.4c0.5,0.3,0.9,0.7,1.3,1.2
		c0.7,0.8,1.5,1.8,3,2.2c0.1,0,0.2,0,0.3,0l0.5,0c0.4,0,0.9,0,1.4,0c0,0,0,0,0.1,0c0.5,0,0.9-0.3,1.1-0.5c2.1-0.2,3.8-1.4,5.3-2.5
		c0.5-0.4,1-0.7,1.6-1c0.5-0.3,0.6-0.9,0.3-1.4c-0.3-0.5-0.9-0.6-1.4-0.3c-0.6,0.4-1.1,0.7-1.7,1.1c-1.5,1-2.8,2-4.6,2.1
		c-0.4,0-0.7,0.3-0.9,0.5c-0.5,0-0.9,0-1.3,0l-0.3,0c-0.8-0.3-1.3-0.9-1.9-1.6c-0.5-0.6-1-1.2-1.8-1.7c0,0-0.1,0-0.1,0
		c-0.1-0.2-0.3-0.4-0.6-0.5c0,0-0.1,0-0.1-0.1c0.1,0,0.1-0.1,0.2-0.1c2.4-1.1,4.6-2.2,7.2-2.2c0,0,0,0,0,0c0.1,0.2,0.2,0.4,0.3,0.7
		c0.4,0.8,0.8,1.7,1.5,2.4c0.2,0.2,0.4,0.3,0.7,0.3c0.1,0,0.1,0,0.2,0c0.1,0,0.3,0,0.4-0.1c0.3,0,0.7-0.1,1.1-0.3
		c0.4-0.2,0.8-0.4,1.3-0.7c2.4-1.3,4.7-2.5,7.3-2.9c1-0.2,1.7-0.5,2.2-1.1c0.7-0.1,1.3-0.2,2-0.3c0.4,0,0.7-0.1,1.1-0.1
		c0.2,0.2,0.5,0.4,0.8,0.4c0.1,0,0.2,0,0.4-0.1l1.2-0.5c0.1,0,0.1-0.1,0.2-0.1c2.8-0.4,5.5-1.1,7.8-3.2c0.2,0,0.4,0,0.6-0.1
		c0.2-0.1,0.4-0.1,1.2,0.3l0.1,0.1c0.1,0.1,0.3,0.1,0.5,0.1c0.3,0,0.5-0.1,0.7-0.3c0.3-0.3,0.9-0.5,1.5-0.6c0.7-0.2,1.4-0.3,2.1-0.8
		c0.9-0.7,2-1.1,3.1-1.5l0.5-0.2c5.7-2.2,9-4.1,12.7-7.2c0.4-0.3,0.5-1,0.1-1.4C111.4,105.5,110.7,105.5,110.3,105.8z M13,105.3
		c0,0.1,0.1,0.1,0.1,0.2c0,0-0.1,0-0.1-0.1C13,105.4,13,105.4,13,105.3z M27.3,126.8c-0.1-0.7,0.4-0.9,0.8-1.2
		C28,126.1,28.1,126.7,27.3,126.8z M28.1,125.5C28.1,125.5,28.1,125.5,28.1,125.5c0-0.1,0.1-0.1,0.1-0.1c0.1-0.1,0.3-0.2,0.4-0.4
		C28.6,125.2,28.3,125.4,28.1,125.5z M78.3,111.6c0.9-1,1.8-1.1,2.7-0.9c0.1,0.2,0.1,0.3,0.3,0.4c0.7,0.6,1.2,0.9,1.7,0.9
		c0.5,0,1-0.3,1.7-1c0.3-0.1,0.6-0.2,0.7-0.5c0.2-0.5,0-1.1-0.5-1.3c-0.8-0.4-1.3,0.2-1.6,0.4c-0.1,0.1-0.3,0.3-0.4,0.4
		c-0.1-0.1-0.2-0.1-0.2-0.2c1.3-1.1,2.8-1.9,4.3-2.8c1.2,0,2.1,0.6,3.3,1.4c-2,2-4.1,3.3-6.1,4.6C82.7,114,79.9,113.3,78.3,111.6z
		 M80.5,115c-0.5,0.3-0.8,0.2-0.9-0.1C79.8,114.5,80.1,114.7,80.5,115z M75.9,109.7c-0.4,0.8-0.9,1.1-1.6,1.1
		c-1.1-0.6-1.8-1.5-2.3-2.5c0-0.1,0-0.1,0-0.2c0.7-0.5,0.9-1.2,1-1.7c0,0,0,0,0-0.1c0.1-0.1,0.2-0.2,0.4-0.3c0.1,0,0.2,0,0.3,0
		c0.1,0.1,0.2,0.1,0.3,0.1c0.2,0.1,0.5,0.2,0.7,0.3c0.2,0.1,0.4,0.2,0.6,0.2c0,0,0,0,0,0c0,0.2,0.1,0.7,0.5,1.1
		C75.8,108.5,75.6,109.2,75.9,109.7z M73,120.5C73,120.6,73,120.6,73,120.5c-0.2,0.1-0.3,0.1-0.5,0.1c-2.9,0.5-5.5,1.8-7.9,3.1
		c-0.4,0.2-0.8,0.4-1.3,0.7c-0.1,0-0.1,0.1-0.3,0.1c-0.2-0.3-0.4-0.7-0.6-1.1c0.3,0,0.5-0.1,0.6-0.3c0.9,0.4,1.9-0.1,2.3-0.5
		c0.5-0.5,1.1-0.9,1.8-1.3c1-0.6,2-1.3,2.8-2.3c0.3,0.5,0.8,0.6,1.1,0.7c0.1,0,0.1,0,0.2,0.1c0.2,0.3,0.5,0.5,0.8,0.5
		c0.1,0,0.2,0,0.2-0.1C72.7,120.4,72.9,120.5,73,120.5z M41.8,97.2c-0.1,0.3-0.2,0.6-0.3,0.8c-0.2,0.1-0.4,0.2-0.5,0.4
		c-0.2,0.1-0.5,0.5-0.6,1c0,0,0,0,0,0c0,0,0,0,0,0c0,0,0,0,0,0c0,0,0,0,0,0C40.1,97.8,40.1,97.8,41.8,97.2z M48.9,94
		c0.4,0.2,0.8,0.3,1.2,0.3c0.9,0,1.6-0.5,2.5-1.3c0.4-0.4,0.4-1,0-1.4c-0.4-0.4-1-0.4-1.4,0c-0.2,0.2-0.3,0.3-0.4,0.4
		c0.3-0.4,0.6-0.7,0.9-1.1c0.1,0,0.1,0,0.2,0c0.2,0,0.3,0,0.5,0c0.8-0.1,1.2-0.5,1.4-0.8c0.3-0.6,0.2-1.1,0-1.5
		c0.1-0.1,0.2-0.2,0.3-0.2c1.4-0.9,2.6-2.1,4.2-2.8c0.5,0.1,1,0.2,1.6,0.2c0.9,0.2,1.7,0,2.5-0.3c0.1,0.1,0.3,0.1,0.4,0.1
		c0.2,0,0.4,0,0.5-0.1c2.3-1.4,4.6-2.3,7.2-3.4c0.6-0.2,1.2-0.5,1.8-0.7c0.2-0.1,0.5-0.1,0.7-0.1c0,1.1-0.8,1.7-1.4,2.4
		c-0.9-0.1-1.6,0.4-2,0.7c-0.2,0.1-0.4,0.3-0.5,0.3c-0.8,0.1-1.4,0.7-1.9,1.1c-0.2,0.2-0.3,0.3-0.5,0.4c-0.4,0.3-0.5,1-0.2,1.4
		c0.2,0.3,0.5,0.4,0.8,0.4c0.2,0,0.4-0.1,0.6-0.2c0.2-0.2,0.4-0.4,0.7-0.6c0.3-0.2,0.6-0.6,0.8-0.6c0.6-0.1,1-0.4,1.4-0.7
		c0,0,0.1-0.1,0.1-0.1c0,0.1-0.1,0.1-0.1,0.2c-0.1,0.2-0.2,0.5-0.1,0.7c-1.1,1.6-3.2,1.5-4.7,2.4c-0.9-0.3-1.7-0.3-2.5-0.2
		c-0.4-0.3-0.9-0.5-1.7-0.1c0,0,0,0-0.1,0c-0.3,0-0.5,0.2-0.7,0.5c-1.1,0.2-2.1,0.3-3.2,0C57,90.7,56.5,91.9,56,93
		c-0.2,0.9,0.6,1.5,0.1,2.3c-0.4,0.5-0.9,0.5-1.4,0.3c-0.1-0.1-0.1-0.1-0.2-0.2l0.7-1.9c0.1-0.4,0-0.8-0.2-1.1c0,0,0,0,0,0
		c0.3-0.3,1-0.9,0.8-1.9c-0.1-0.5-0.7-0.9-1.2-0.7c-0.5,0.1-0.8,0.6-0.8,1.1c0,0-0.1,0.1-0.1,0.1c-0.4,0.4-0.4,1-0.1,1.4
		c0,0,0.1,0,0.1,0.1c-0.1,0.1-0.2,0.2-0.3,0.4L52.5,95c-0.1,0-0.1,0.1-0.2,0.1c-1.9-0.1-3.5,1.7-5.6,1.7c-0.5-0.3-0.7-0.7-0.5-1.3
		C46.8,94.6,47.9,94.3,48.9,94z M76.2,82.3L76.2,82.3c-0.4,0.4-0.4,1.1,0,1.5c0.2,0.2,0.5,0.3,0.7,0.3s0.5-0.1,0.7-0.3l0.6-0.6
		c0.3-0.3,0.4-0.8,0.2-1.2l-0.5-0.9c0.6,0.4,1.3,0.7,2.1,1c0.1,0,0.2,0,0.3,0c0.4,0,0.8-0.3,1-0.7c0.1-0.5-0.2-1.1-0.7-1.2
		c-0.4-0.1-0.7-0.3-1.1-0.4c0.3,0,0.5,0.1,0.8,0.1c0.3,0,0.7,0,1,0c0.5,0,0.9-0.1,1.3,0c0.1,0,0.2,0,0.2,0c-0.1,0.2-0.2,0.5-0.1,0.9
		c0,0,0,0,0,0c-0.2,0.5-0.5,1.1-0.6,1.7c-0.6,0.5-0.9,1.1-0.8,1.8c-0.2-0.3-0.5-0.5-0.8-0.5c-0.6,0-1,0.4-1,1c0,0.2,0,0.7,0.3,1.1
		c0,0,0,0,0,0c-0.4,0-1.5,0-1.9,1.2c-0.2,0.5,0.1,1,0.6,1.2c0.1,0,0.2,0,0.3,0c0.3,0,0.7-0.2,0.8-0.5c0,0,0,0,0,0
		c0.2,0,0.5,0,0.7-0.1c0,0.1,0.1,0.1,0.1,0.2c-0.2,0.3-0.3,0.5-0.5,0.8c-0.1,0-0.3,0.1-0.4,0.2C79,89,78.5,89,77.8,89
		c-0.5,0-1,0-1.6,0.1c0,0,0,0-0.1,0c0-0.2-0.1-0.4-0.1-0.6c-1.8,0.4-1.9,0.4-3.2-0.6c0.3-0.1,0.5-0.2,0.7-0.3
		c0.1-0.1,0.2-0.1,0.3-0.2c0.5-0.2,0.8-0.8,0.6-1.3c-0.2-0.5-0.8-0.8-1.3-0.6c0,0-0.1,0-0.1,0.1c0,0,0,0,0,0c0-0.1,0-0.1,0.1-0.2
		c1-1.2,2-2.3,2.4-3.9c0-0.1,0.1-0.2,0.1-0.3L76.2,82.3z M98.7,54.8c0-0.1,0-0.4,0-0.4l0,0c0.1,0,0.1-0.1,0.1-0.1
		c0,0.5,0.1,1.1,0.6,1.7c-0.3-0.1-0.6,0-0.9,0.2C98.8,55.7,98.7,55.2,98.7,54.8z M118.1,70.3c0.1-0.1,0.2-0.1,0.3-0.2
		c0.6-0.6,0.8-1.4,1.1-2.1c0.2-0.6,0.4-1.1,0.8-1.5c-0.3,0.6-0.4,1.3-0.5,1.9c-0.1,0.3-0.1,0.7-0.2,1c-0.4,1.6-0.9,3.1-1.3,4.7
		l-0.3,1.1c-0.6-0.1-1.2,0-1.7,0.3c-0.5,0.3-0.6,0.9-0.4,1.4c0.3,0.5,0.9,0.6,1.4,0.4c0.2-0.1,0.4-0.1,0.6,0
		c0.1,0.2,0.2,0.5,0.2,0.9c-0.2,0.4-0.3,0.8-0.6,1.2c-0.2,0-0.3,0.1-0.4,0.2c-0.4,0.4-0.8,0.8-1.2,1.2c-0.6,0.6-1.1,1.2-1.8,1.6
		c-0.1,0-0.1,0.1-0.2,0.2c0-0.7-0.4-1.1-0.6-1.3c-0.1-0.4,0-0.8,0.1-1.2c0.2-0.1,0.3-0.2,0.4-0.3l1.4-2.2c0.2-0.3,0.2-0.7,0-1.1
		c0.2-0.4,0.5-0.8,0.7-1.2c0.3,0,0.6-0.2,0.8-0.5L118,72c0.2-0.4,0.1-0.8-0.2-1.1C118,70.7,118,70.5,118.1,70.3z M121.5,69.7
		C121.5,69.7,121.5,69.7,121.5,69.7c0.1,0.2,0.1,0.7,0.1,1.1c0,0.2,0,0.4,0,0.5c-0.2,0-0.3,0.1-0.4,0.2c-0.1,0.1-0.2,0.3-0.4,0.4
		c0.2-0.7,0.4-1.4,0.6-2.1C121.5,69.8,121.5,69.8,121.5,69.7z M121.5,77.5c-0.2,0.6-0.3,1.2-0.3,1.7c0,0.5-0.1,0.8-0.2,1.1
		c-0.1-0.1-0.1-0.3-0.2-0.5c-0.1-0.5-0.4-1.1-1-1.6c0.2-0.3,0.4-0.5,0.5-0.8c0.2-0.1,0.5-0.2,0.6-0.5c0.1-0.1,0.1-0.2,0.2-0.3
		c0.3-0.4,0.6-0.8,0.6-1.5c0-0.7,0.2-1.2,0.7-1.8c0,0,0,0,0.1,0c0,0.3-0.1,0.7-0.4,1.4c-0.2,0.4-0.1,0.8,0.2,1.1
		c-0.1,0.3-0.1,0.7-0.2,1C121.8,77,121.6,77.2,121.5,77.5z M59.4,117.5c0.9,0.2,1.7-0.6,2.6-0.4l-2.2,2.2c0,0-0.1,0.1-0.1,0.1
		c-0.2,0-0.5,0-0.7,0c-0.2-0.2-0.7-0.5-1.3-0.4c-0.1,0-0.2,0.1-0.3,0.1c-0.1,0-0.3-0.1-0.4-0.1c-0.1-0.4,0-0.9,0-1.4
		c0-0.1,0-0.2,0-0.4c0.3,0.1,0.6,0.1,0.8,0.1c0,0,0.1,0,0.1,0c0.2,0.2,0.4,0.2,0.7,0.2c0.2,0,0.4-0.1,0.6-0.2
		C59.3,117.5,59.3,117.5,59.4,117.5z M62.3,121c-0.3,0.1-0.5,0.4-0.7,0.7c-0.2-0.2-0.4-0.4-0.7-0.4c-0.6,0-1.1,0-1.6,0
		c0,0,0.1-0.1,0.1-0.1c0.3,0,0.7-0.1,1.1-0.2c0,0,0.1,0,0.1,0c0.3,0,0.5-0.1,0.7-0.3l2.6-2.6c0.4,0.7,1,1.2,1.5,1.5
		c0.2,0.1,0.3,0.2,0.5,0.3c0,0,0,0,0,0c-0.6,0.4-1.2,0.8-1.7,1.3c-0.1,0.1-0.2,0.1-0.3,0.1C63.4,120.9,62.8,120.8,62.3,121z
		 M66.7,117.8c-0.1,0-0.1,0.1-0.2,0.1c0,0-0.1-0.1-0.1-0.1c-0.2-0.1-0.3-0.2-0.5-0.3c0.5,0,0.7,0,0.8,0.2
		C66.7,117.8,66.7,117.8,66.7,117.8z M52.8,97.9C52.9,97.9,52.9,97.9,52.8,97.9c0,0-0.1,0-0.1,0C52.7,97.9,52.8,97.9,52.8,97.9z
		 M50.7,101.1c0.4-0.3,0.8-0.5,1.2-0.7c0,0,0,0,0.1,0c0.1,0,0.2,0,0.2,0c0.6,0,0.9-0.3,1.1-0.6c1-0.2,2.1,0.1,3.2,1.2
		c-0.3,0.3-0.5,0.5-0.8,0.7c-0.2,0-0.4,0-0.6,0.1c-0.2,0.1-0.3,0.2-0.4,0.3c-0.2,0-0.3,0.1-0.5,0.2c-0.3-0.5-0.7-0.8-1-0.9
		c-0.1-0.1-0.2-0.1-0.3-0.2c-0.1-0.5-0.6-0.9-1.1-0.8c-0.5,0.1-0.9,0.6-0.8,1.1c0.1,0.9,0.8,1.3,1.2,1.5c0.1,0.1,0.3,0.2,0.3,0.1
		c0,0.1,0.1,0.2,0.1,0.4c-0.1,0.2-0.3,0.4-0.5,0.5c-1.9,1.2-3.6,2.7-5,4.3c-0.3,0.2-0.5,0.2-0.8,0.3c0-0.2,0-0.4-0.1-0.5l-0.5-0.9
		c0.1-0.3,0.2-0.6,0.3-0.9c0.6-0.5,1.2-0.9,1.9-1.4C48.5,103.7,49.5,102.3,50.7,101.1z M65.5,90.7c0,1-1.1,1.2-0.8,2.2
		c1.3,0.4,1.8-0.9,2.5-1.5c0.9-0.7,1.9-1.1,2.7-2c0.9,0.2,1.7,0.4,2.4,0.5c0.3,0.4,0.2,0.8,0.1,1.2l-0.2-0.5
		c-0.2-0.5-0.7-0.8-1.3-0.6c-0.5,0.2-0.8,0.7-0.6,1.3l0.2,0.4c-0.2-0.4-0.6-0.6-1-0.6c-0.5,0.1-0.9,0.6-0.9,1.1
		c0.1,0.5,0.3,0.9,0.7,1.2c-0.5,0.4-1,0.9-1.4,1.4c-0.2,0.2-0.4,0.4-0.6,0.6c-0.9-0.4-1.9-0.4-2.8,0c-0.8-0.3-1.7-0.3-2.4-0.3
		c-0.1,0-0.1,0-0.2,0c0-0.1,0-0.2,0-0.3c0.2,0.1,0.4,0.2,0.6,0.2c0,0,0.1,0,0.1,0c0.5-0.1,0.9-0.6,0.9-1.1c-0.1-1.2-0.9-1.9-1.5-2.5
		c-0.1-0.1-0.3-0.3-0.4-0.4c0-0.1,0-0.2,0.1-0.3c0,0,0,0,0.1,0c0,0,0.1,0,0.1,0c0.3,0,0.5-0.1,0.6-0.2c0.2,0.1,0.3,0.2,0.5,0.2
		c0.2,0,0.4-0.1,0.6-0.2c0.1,0,0.1-0.1,0.1-0.2C64.2,90.6,64.9,90.8,65.5,90.7z M98.2,56.7L98,56.9c0,0,0-0.1,0-0.2
		C98.1,56.7,98.1,56.7,98.2,56.7z M100.1,56.5C100.1,56.5,100.1,56.5,100.1,56.5c0.1,0,0.1,0,0.2,0c0.3,0,0.6-0.1,0.8-0.4
		c0,0,0,0,0-0.1c0,0,0-0.1,0.1-0.1c0.1,0,0.2,0.1,0.3,0.1c0.1,0,0.3,0,0.4-0.1c0.9-0.4,1.7-1,2.1-1.5c0.4,0.3,1,0.2,1.3-0.1
		c0.4-0.4,0.4-1,0-1.4c-0.2-0.2-0.3-0.3-0.5-0.4c0.1,0,0.2-0.1,0.3-0.1c0.2,0,0.4-0.1,0.5-0.1c0.2,0.1,0.3,0.2,0.5,0.1
		c0.9,0,1.6,0.2,2.2,0.8c0,0.1,0,0.1,0,0.2c-0.4,0.1-0.8,0.3-1,0.5c-0.1,0.1-0.3,0.2-0.3,0.2c-0.4,0-0.7,0.2-0.9,0.4
		c-1.2,0.5-1.9,1.5-2.4,2.8c-0.1,0.1-0.1,0.3-0.2,0.4c-0.5-0.1-1,0.2-1.2,0.7c0,0.1-0.2,0.3-0.3,0.4c-0.3,0.4-0.7,1-0.7,1.8
		c0,0,0,0.1,0,0.1c-0.3,0.2-0.5,0.5-0.5,0.8v2.4c0,0.2,0.1,0.3,0.1,0.5c-0.1,0.2-0.2,0.4-0.1,0.7c0,0.1,0,0.1-0.3,0.5
		c-0.1,0.1-0.1,0.1-0.2,0.2c-0.2-0.3-0.5-0.5-0.9-0.5c0,0,0,0,0,0c0.1-0.3,0.2-0.6,0-0.9c-0.1-0.2-0.2-0.4-0.4-0.6
		c-0.3-0.4-0.3-0.5-0.3-0.6c0.2-0.5-0.1-1.1-0.7-1.2c-0.1,0-0.3-0.1-0.4,0c0.1-0.2,0.2-0.4,0.3-0.6c0-0.1,0.1-0.2,0.1-0.2
		c0.2-0.4,0.6-1.2,0.2-2c0-0.1,0.1-0.2,0.1-0.3c0.1,0,0.2,0.1,0.4,0.1c0.4,0,0.7-0.2,0.9-0.6l0.5-1
		C100.2,57.1,100.2,56.8,100.1,56.5C100.1,56.5,100.1,56.5,100.1,56.5c-0.1,0-0.1,0-0.1,0c0,0,0,0,0,0
		C100,56.4,100.1,56.4,100.1,56.5C100.1,56.4,100.1,56.4,100.1,56.5C100.1,56.5,100.1,56.5,100.1,56.5z M111.4,77.3
		c0.3,0,1.1,0,1.6-1c0.1-0.2,0.3-0.3,0.5-0.4c0,0.1,0,0.2-0.1,0.3c0,0,0,0-0.1,0.1l-1.4,2.2c-0.2,0.3-0.2,0.6-0.1,0.8
		c-0.3,0.4-0.5,0.8-0.8,1.2c-0.1,0-0.3,0.1-0.4,0.2c-0.2,0.2-0.4,0.3-0.5,0.5c0,0.1-0.1,0.1-0.1,0.1c-0.4-0.4-0.1-0.9-0.1-1.3
		c0-0.5,0.1-1,0.1-1.4c0.3-0.5,0.7-0.9,1.1-1.2C111.3,77.4,111.4,77.4,111.4,77.3z M99.3,98.9c-0.6,0-1.1,0.2-1.3,0.4
		c0,0-0.1,0.1-0.1,0.1c0.1-0.2,0.1-0.4,0.2-0.7c0.2-0.6,0.5-1.4,0.4-2.2c0-0.1-0.1-0.2-0.1-0.3c0.3-0.3,0.7-0.4,1.3-0.4
		c0.2,0.1,0.3,0.1,0.5,0.1c0,0,0,0,0,0c-0.1,0.4-0.1,0.8-0.1,1.1c0,0.4,0,0.6-0.1,0.7c-0.2,0.2-0.2,0.5-0.1,0.8
		C99.7,98.6,99.5,98.8,99.3,98.9z M88.7,100.6c-1.4,0.5-2.7,1.4-4.3,0.3c0.1-0.2,0.2-0.4,0.3-0.6c0.8-0.3,1.4-0.8,1.9-1.3
		c0.1,0,0.2,0,0.3,0c0.1,0,0.1,0,0.2,0c0,0.1,0.1,0.1,0.1,0.2L88.7,100.6C88.7,100.6,88.7,100.6,88.7,100.6z M71.1,106
		c0,0.1,0,0.1,0,0.2c-0.1-0.1-0.1-0.2-0.1-0.4c0,0,0,0,0,0C70.9,105.8,71,105.9,71.1,106C71.1,105.9,71.1,106,71.1,106z M69.6,103.8
		c-0.9-0.1-1-0.5-1.2-2.1c1-0.5,2-0.9,3.1-0.9c0.4,0.1,0.8,0.1,1.2,0.2c0.6,0,0.7,0.1,0.8,0.2c0.1,0.9,0.2,1.7,0.2,2.4c0,0,0,0,0,0
		l-0.2,0.1c-0.1,0.1-0.1,0.2-0.2,0.3C72,104.2,70.8,104,69.6,103.8z M74,97.3c0.1,0,0.1,0,0.2,0c0.3,0,0.6-0.1,0.8-0.4
		c0.2-0.2,0.4-0.3,0.9-0.4c0.4-0.1,0.9-0.3,1.3-0.6l1.4,1.8c-0.3,0.1-0.6,0.3-0.9,0.5c-0.4,0.3-0.8,0.4-1.1,0.4
		c-0.2-0.5-0.5-0.9-1.2-0.2c0.1,0.2,0.3,0.3,0.5,0.3c-0.2,0.1-0.3,0.2-0.4,0.4c-0.3,0.2-0.6,0.3-0.8,0.5
		C74.1,98.8,73.9,98.1,74,97.3z M79.7,95.9l-0.6-0.7c0.6-0.4,1.2-0.6,1.7-0.8c-0.1,0.1-0.2,0.2-0.3,0.3
		C80.2,95.1,79.9,95.4,79.7,95.9z M65.2,104C65.1,104,65.1,104,65.2,104c0.2-0.4,0.5-0.5,0.8-0.2L65.2,104z M63.4,97.3
		c0.1,0.1,0.2,0.2,0.4,0.3c0,0.1,0,0.3,0,0.5c-0.2,0.1-0.3,0.1-0.8-0.1c-0.2-0.1-0.3-0.1-0.5,0c-0.1-0.1-0.3-0.2-0.5-0.3
		c0,0,0,0,0-0.1c0.2-0.1,0.3-0.2,0.4-0.3C62.8,97.2,63.2,97.2,63.4,97.3z M63.7,100.2c0.3,0,0.7-0.1,1.1-0.3c0.1,0,0.1,0.1,0.2,0.1
		c0,0,0,0,0,0c-0.1,0.2-0.1,0.4-0.2,0.4C64.3,100.5,64.2,100.5,63.7,100.2z M59.3,99.2c0.3,0,0.5,0,0.6,0c0.2,0.1,0.4,0.2,0.6,0.2
		c0,0,0,0,0.1,0c0.1,0.2,0.3,0.4,0.4,0.7c-1.2,0.5-1.8,0.1-2.3-0.9C58.9,99.2,59.2,99.2,59.3,99.2z M61,108.4c0.3,0,0.6,0,0.9,0
		c0.1,0.1,0.2,0.1,0.3,0.2c0.4,0.3,1,0.7,1.8,0.7c0.2,0,0.4,0,0.6-0.1c0,0.1,0.1,0.1,0.1,0.2l0.1,0.1c0,0.1-0.1,0.2-0.1,0.3
		c-0.1,0.3-0.2,0.6-0.2,1c-0.3,0.1-0.6,0.2-1,0.4c-0.9,0.4-1.9,0.7-2.8,0.8l-1-1.6C59.9,109.5,60.2,108.9,61,108.4z M67.8,98.7
		c-0.6,0-1.1,0-1.4-0.1c-0.2-0.2-0.4-0.4-0.6-0.5c0-0.3,0-0.5,0-0.8c0.4,0,0.8,0.1,1.2,0.3c0.2,0.1,0.3,0.1,0.5,0.1
		c0.2,0,0.5-0.1,0.6-0.2c0.5-0.4,0.9-0.8,1.2-1.2c0.3-0.3,0.6-0.6,0.9-0.9c0.2,0.5,0.5,0.9,1,1.3c0.1,0,0.1,0.1,0.2,0.1
		C70.8,98.1,69.7,98.7,67.8,98.7z M78.6,99.8c0.1-0.1,0.2-0.1,0.4-0.2c0,0.1,0,0.2-0.1,0.3C78.8,100,78.7,99.9,78.6,99.8
		C78.6,99.9,78.6,99.8,78.6,99.8z M95.2,78c-0.2-0.2-0.2-0.4,0-0.5c0,0,0.2,0,0.2,0.1C95.6,77.8,95.4,77.9,95.2,78z M94.2,81.6
		c-0.2,0.1-0.4,0-1-0.6c-0.1-0.1-0.2-0.2-0.3-0.3c0,0-0.1,0-0.1-0.1c0-0.2,0.1-0.5,0.2-0.8c0.5-0.2,0.9-0.3,1.3,0.2
		C94.6,80.5,94.5,81.1,94.2,81.6z M93,75.3l-0.1-0.3c0.1-0.5,0.6-0.6,1-0.7C93.8,74.7,93.6,75.2,93,75.3z M89.8,78
		c0.1,0.3,0.3,0.7,0.7,0.9c0.1,0,0.1,0.1,0.2,0.1c-0.1,0.1-0.1,0.2-0.2,0.2c-0.1-0.1-0.2-0.2-0.4-0.2c-0.8-0.2-1.1-0.4-1.2-0.8
		c0,0,0-0.1,0.1-0.1C89.2,78,89.5,78,89.8,78z M82.8,86c0.2,0,0.3,0,0.5-0.1c1.6-0.9,3.5-2,5.1-3.4c-0.3,0.6-0.9,1.1-0.8,1.9
		c2,0.5,2.4-1.8,4-2.1c0,0,0.1,0.1,0.1,0.1c0.5,0.5,1.2,1.2,2.3,1.2c0.4,0,0.8-0.1,1.3-0.4c0,0,0,0,0,0c0.1,0,0.2,0.1,0.3,0.1
		c0.9-1.9,0.1-4.4,2.1-5.8c1.3-0.4,2.7,0,4.1,0.1c-0.2,0.8-0.6,1.7-1.1,2.6l-0.1,0.1c0,0.1-0.1,0.1-0.1,0.1
		c-0.3,0.2-0.8,0.7-0.7,1.6c0,0,0,0,0,0c-0.1,0-0.1,0.1-0.1,0.2c-1.3,1.2-2,2.8-3.5,3.9c-0.6,0.5-1.2,1.1-1.8,1.2
		c-0.3,0-0.5,0-0.7-0.1l0.1-0.5c0.2-0.5-0.2-1.1-0.7-1.2c-0.5-0.1-1.1,0.2-1.2,0.7l-0.4,1.3c-1.7,1.4-3.6,2.5-5.5,3.5
		c-0.3-0.2-0.8-0.3-1.1,0c-0.2,0.1-0.3,0.2-0.4,0.3c-0.1,0-0.2,0.1-0.3,0.1c0.1-0.3,0.1-0.7-0.2-1l-1.4-1.7
		c-0.1-0.1-0.2-0.2-0.4-0.3C82,87.7,82,86.9,82.5,86c0,0,0.1,0,0.1-0.1C82.6,86,82.7,86,82.8,86z M96.7,63.7
		C96.7,63.7,96.7,63.7,96.7,63.7c-0.3,0.3-0.5,0.6-0.7,0.9c0-0.2,0.1-0.4,0.2-0.6C96.4,63.9,96.6,63.8,96.7,63.7z M106.9,56
		C106.9,56,106.9,56,106.9,56c0.7,0,1.2-0.3,1.5-0.5c0.1-0.1,0.3-0.2,0.3-0.2c0,0,0,0,0,0c0.3,0,0.6-0.2,0.8-0.5c0,0,0,0,0,0
		c0.4,0.3,0.7,0.9,0.9,1.5c0.1,0.1,0.1,0.2,0.2,0.4c-0.4,0.5-0.9,1-1.4,1.4c-0.3-0.1-0.5,0-0.8,0.1c-0.2,0.1-0.3,0.2-0.4,0.3
		c-0.4,0.1-0.7,0.4-0.8,0.8c-0.5,0.3-0.9,0.5-1.4,0.8C105.2,58.5,105.6,57,106.9,56z M108.1,60.5C108.1,60.5,108.1,60.5,108.1,60.5
		c0.1,0,0.2,0,0.3,0c0.7,0,1.1-0.5,1.2-0.7c0.1-0.1,0.2-0.2,0.2-0.2c0.6-0.3,1.3-0.4,1.9-0.5c0.2,0.6,0.3,1.1,0.2,1.6
		c-0.4,0.4-0.6,0.8-0.8,1.1c-0.1,0.1-0.1,0.2-0.2,0.3c0,0,0,0,0,0l-0.2,0.1c-0.1,0.1-0.2,0.2-0.2,0.2L110,63c-0.5-0.1-0.7-0.6-1-0.5
		c-1.6,0.5-1.2,1.7-1.5,2.6c-0.6,0.7-1.2,1.5-2.1,1.8c-0.2-0.3-0.2-0.6-0.3-0.9c0.1-0.1,0.1-0.3,0.2-0.4c0,0,0,0,0-0.1
		c0.4-0.7,0.2-1.3,0-1.6C105.7,62.7,106.8,61.4,108.1,60.5z M113,65.7c0,0.1,0,0.2,0.1,0.3c-0.1,0-0.1,0.1-0.2,0.1
		C112.9,65.9,112.9,65.8,113,65.7C113,65.7,113,65.7,113,65.7z M105.9,69.4h-0.2c0-0.5,0.2-0.7,0.6-0.9
		C106.5,69.2,106.5,69.3,105.9,69.4z M106.6,74.8L106.6,74.8c-0.7,0.6-1.6,0.7-2.5,0.9c-0.1-0.6-0.2-1.3-0.5-2
		c0-0.2,0.1-0.4,0.2-0.7c0.5-0.7,1.3-1,1.9-1.7h0.4c0.2,0.5,0.4,1,0.5,1.4C106.1,73.6,106.4,74.4,106.6,74.8z M101.6,71.8
		c0-0.2,0-0.3,0.1-0.5c0.1,0,0.2-0.1,0.3-0.2c0.4-0.3,0.7-0.8,0.9-1.3C102.7,70.7,102.3,71.3,101.6,71.8z M100.5,68.1l0.3,0.4
		c0.1,0.1,0.2,0.2,0.3,0.3c0,0.5-0.2,0.7-0.3,0.8c0,0,0,0,0,0c-0.3,0.1-0.6,0-0.9-0.1L100.5,68.1z M101.9,75
		c0.1,0.2,0.1,0.3,0.1,0.5c-0.1,0.5-0.3,0.4-1.3,0.1C101,75,101.4,75,101.9,75z M101.8,81.9C101.9,81.9,101.9,81.9,101.8,81.9
		c0.2-0.2,0.5-0.4,0.7-0.8l0.1-0.2c0.5-1,1-2.1,1.3-3.2c0.1,0,0.1,0,0.2,0c1-0.1,2.1-0.3,3.2-0.8C107.1,78.9,105.2,80.8,101.8,81.9
		C101.8,82,101.8,82,101.8,81.9z M106.1,86.7c0.3-0.3,0.5-0.6,0.9-0.9c0.3-0.3,0.6-0.5,0.8-0.8c-0.1,0.7,0,1.4,0.3,2
		c0,0.3-0.1,0.7,0,1c-0.4-0.4-0.9-0.7-1.3-1C106.5,86.9,106.3,86.8,106.1,86.7z M109.5,76.3c0.1,0,0.1-0.1,0.2-0.1
		c-0.1,0.2-0.1,0.4-0.2,0.6C109.3,76.5,109.4,76.4,109.5,76.3C109.5,76.3,109.5,76.3,109.5,76.3z M103.6,60c0.8,1.2,0,2.5-0.2,3.8
		c0,0,0,0,0,0c-0.2,0.3-0.2,0.7,0,1.1c-0.1,0.2-0.2,0.4-0.2,0.7c0,0.1,0,0.2,0,0.2c-0.1,0.2-0.2,0.3-0.3,0.5c-0.2,0-0.3,0-0.4,0.1
		c-0.1,0.1-0.2,0.1-0.3,0.2c0.4-0.4,0.7-1,0.5-1.9c0-0.1-0.1-0.2-0.1-0.3c0.1-0.1,0.1-0.3,0.1-0.5v-2.4c0,0,0-0.1,0-0.1
		c0.3-0.2,0.5-0.5,0.5-0.9C103.3,60.4,103.4,60.2,103.6,60C103.6,60,103.6,60,103.6,60C103.6,60,103.6,60,103.6,60z M97.9,72.4
		c0.1,1.6,0.1,1.6-2,2.8C96.2,73.5,96.5,73.1,97.9,72.4z M97.5,91.1c0-0.1,0.1-0.3,0-0.4c0.1,0,0.2,0.1,0.2,0.1c0.3,0.1,0.5,0,0.7,0
		c0,0,0,0,0,0c0,0,0,0,0,0c-0.5,0.4-1,0.7-1.5,1c-2.4,1.3-4.8,2.6-7.1,3.8c-0.5-0.5-0.4-0.9-0.3-1.2c0.8,0.2,0.9-0.3,1-1
		c0.9,0,1.7-0.3,2.5-0.7c0.3-0.1,0.6-0.2,0.9-0.2c0.7-0.2,1.5-0.3,2.2-0.8c0.1,0,0.1,0,0.2,0.1C96.7,91.9,97.3,91.6,97.5,91.1z
		 M100.6,92.1c-0.8,0-1.2,0.5-1.4,0.8c0,0-0.1,0.1-0.1,0.1c-0.1,0-0.1,0-0.2,0c0.3-1,1-1.5,2.3-1.9C101,91.6,100.8,91.9,100.6,92.1z
		 M97.8,99.4C97.8,99.4,97.8,99.4,97.8,99.4C97.8,99.4,97.8,99.4,97.8,99.4C97.8,99.4,97.8,99.4,97.8,99.4z M95.8,99.1
		c0-0.3-0.2-0.6-0.4-0.8c-0.4-0.2-0.8-0.2-1.1,0.1c0.1-0.1,0.1-0.3,0.1-0.4c0-0.2,0-0.3,0-0.5l-0.2-0.7c0.1,0,0.2,0,0.3,0.1
		c0,0,0.1,0,0.1,0c0,0.5,0.4,0.9,1,1c0,0,0,0,0,0c0.4,0,0.7-0.2,0.9-0.5c-0.1,0.2-0.1,0.4-0.2,0.7C96,98.3,95.9,98.7,95.8,99.1z
		 M95.8,99.5c0,0.1,0,0.2,0,0.2c0,0-0.1,0-0.1,0c0,0,0,0,0,0C95.7,99.6,95.7,99.5,95.8,99.5z M95.6,95.1c-0.2-0.1-0.3-0.1-0.5-0.2
		c0.3-0.4,0.7-0.4,1.1-0.5C96.1,94.8,95.9,95,95.6,95.1z M86.4,92.5c-0.1,0.4-0.2,0.8-0.3,1.1c-0.1-0.1-0.1-0.2-0.2-0.3
		c-0.1-0.1-0.2-0.2-0.3-0.4c0.2-0.2,0.4-0.3,0.5-0.5c0,0,0,0,0.1-0.1C86.2,92.5,86.3,92.5,86.4,92.5z M87.8,95.8
		c-0.1-0.2-0.2-0.4-0.3-0.6c0.4-0.8,0.6-1.8,0.9-2.8c0.4-0.3,0.8-0.5,1.2-0.4l0.9,0.4c0.2,0.4,0.1,0.7,0,1c0,0,0,0,0,0
		c-0.3,0.3-0.6,0.6-0.9,0.9C88.6,94.3,88.5,95.4,87.8,95.8z M90.5,99.7L89,98.1c1.2-0.7,2.1-1.4,3.1-1.2l0.2,0.6
		c-0.4,0.2-0.6,0.6-0.6,1c0,0.5,0.5,0.9,1,0.9c0,0,0.1,0,0.1,0c0.2,0,0.4-0.1,0.6-0.1c-0.1,0.2-0.2,0.5-0.2,0.8c0,0,0,0.1,0,0.1
		c-0.2,0.3-0.5,0.6-0.8,0.9c-0.6,0-1.1-0.3-1.5-0.6C90.8,100.2,90.7,99.9,90.5,99.7z M93.8,102.6c-0.2-0.4,0-0.6,0.4-0.6
		c0,0.1,0,0.1,0,0.1C94.2,102.2,94.1,102.4,93.8,102.6C93.9,102.5,93.8,102.5,93.8,102.6z M99.9,89.4c-0.5-0.7-1.3-0.6-1.6-0.6
		c-0.1,0-0.1,0-0.1,0c-0.5-0.1-1.1,0.2-1.2,0.8c0,0.1,0,0.2,0,0.3c0,0-0.1-0.1-0.1-0.1c-0.1,0-0.1,0-0.2-0.1c-0.3-0.1-1-0.4-1.6,0.1
		c-0.4,0.4-1,0.6-1.7,0.7c-0.3,0.1-0.6,0.1-0.9,0.2c-0.4,0-0.8-0.1-1.2-0.2l-0.1-0.1c4-1.2,7-4.4,10.7-5.4c2.3-1.5,3.7-3.6,6.1-4.8
		c0,0.7,0,1.4-0.2,1.9c-0.2,0.1-0.3,0.2-0.4,0.4c-0.4,0.7-1,1.2-1.6,1.8c-0.4,0.4-0.8,0.8-1.2,1.2c0,0,0,0.1-0.1,0.1
		c-0.2,0.1-0.3,0.1-0.5,0.2C103.1,87.6,101.3,88.3,99.9,89.4z M109.6,67.7c-0.2,0-0.4,0-0.6,0.1c-0.1,0.1-0.1,0.1-0.2,0.2
		c0.3-1.8,1.2-2.7,2.5-3.3C110.9,65.7,110.6,66.8,109.6,67.7z M115.6,64.2c0,0-0.1,0.1-0.1,0.1c0.1-0.7-0.1-1.3-0.5-1.7
		c0.1-0.6,0.2-1.2,0.6-1.8c0.3-0.1,0.6-0.4,0.6-0.7c0,0,0,0,0,0c0.2,1.4,0.1,2.6-0.1,3.8C116,63.9,115.8,64.1,115.6,64.2z
		 M114.3,59.3c-0.1,0-0.1,0-0.2-0.1c-0.1-0.1-0.2-0.2-0.2-0.4c0-0.2,0.2-0.4,0.5-0.3c0.1,0,0.1,0.1,0.2,0.2
		C114.5,58.9,114.4,59.1,114.3,59.3z M106.1,50.4c-0.2,0-0.3,0.1-0.4,0.1c-0.1-0.1-0.3-0.1-0.4-0.1c-0.2,0-0.4,0-0.5,0
		c0,0,0.1-0.1,0.1-0.1c0.4-0.3,0.8-0.5,1.1-1c0.1-0.1,0.2-0.2,0.3-0.4c-0.1,0.3-0.1,0.6-0.2,0.9c0,0.2,0,0.3,0.1,0.5
		C106.2,50.4,106.1,50.4,106.1,50.4z M110.9,45.9c0,0.3,0,0.6,0.2,0.8c0,0.1,0,0.3,0,0.4c0,0,0,0.1,0,0.1c-0.6,0-0.7,0-0.8-0.2
		c0,0,0,0-0.1-0.1C110.5,46.6,110.7,46.2,110.9,45.9C110.9,45.9,110.9,45.9,110.9,45.9z M96.2,67c0.8-0.2,1.2-0.8,1.4-1.2
		c0-0.1,0.1-0.1,0.1-0.2c0.2,0.2,0.4,0.3,0.7,0.3c0,0,0.1,0,0.1,0c-0.1,0.2-0.1,0.3-0.1,0.5c0,0.3,0.1,0.6,0.3,0.9l-1.1,2.1
		c0,0,0-0.1,0-0.1c-0.5-0.6-1.1-1-1.7-1.1C95.9,67.8,96.1,67.4,96.2,67z M94.8,71.7c-0.7,0.2-1.4,0.5-2,0.8c0.6-0.9,1.4-1.7,2.1-2.3
		c0.7-0.3,0.8-0.1,1,0.2c0.1,0.1,0.2,0.2,0.4,0.3C96,71.3,95.4,71.5,94.8,71.7z M81.1,89.8c0,0,0,0.1,0.1,0.1l1.4,1.7
		c0.2,0.2,0.5,0.3,0.8,0.3c0,0,0.1,0,0.1,0c-0.2,0.1-0.5,0.2-0.7,0.3c-0.1,0-0.2-0.1-0.3-0.1c-1.5,0-2.7,0.3-4.5,1.4l-1.8-2.2
		c0.1,0,0.3,0,0.4-0.1c0.8-0.4,2.5,0.3,4.1-0.8c0.2-0.1,0.3-0.3,0.3-0.5C80.9,89.9,81,89.9,81.1,89.8z M73.6,91.4l2.3,2.9
		c-0.2,0.1-0.4,0.2-0.7,0.3c-0.6,0.2-1.3,0.4-1.8,1.1c-0.1,0.1-0.2,0.3-0.2,0.4c-0.2,0-0.3-0.1-0.5-0.1c0-0.2,0-0.4-0.1-0.6l0.9-1.1
		c0,0-0.1-0.1-0.1-0.1c0-0.5-0.3-0.9-0.8-1c-0.1,0-0.2,0-0.3,0c0.1-0.1,0.2-0.3,0.2-0.4c0.1-0.2,0.1-0.5,0-0.7l-0.1-0.2
		C73,91.7,73.2,91.5,73.6,91.4z M58.8,92.5c-0.3,0.4-0.3,0.7-0.3,1.1c0,0,0,0.1,0,0.1c0,0.5,0.4,0.9,1,1c0,0,0,0,0,0
		c0.1,0,0.1,0,0.2,0c0.1,0.3,0.1,0.6,0.2,0.9c-0.5,0.2-1,0.1-1.6,0c-0.6-1.1-0.6-2.2,0.4-3C58.7,92.5,58.8,92.5,58.8,92.5z
		 M60.9,102.4c-1.2,1.2-2.3,2.2-3.6,3.1c-0.3,0.2-0.7,0.3-1,0.3l-0.4-0.8c-0.1-0.3-0.4-0.5-0.7-0.5c0-0.1,0.1-0.2,0.1-0.2
		c0.5-0.1,0.8-0.5,1-0.6c0.1-0.1,0.2-0.2,0.3-0.4c0.1,0,0.1-0.1,0.2-0.1C58,102.8,59.2,101.7,60.9,102.4z M52.8,114.7
		c-1.1,0.3-1.9,0.3-2.6-0.5c0,0,0,0,0,0c0.5-0.2,0.8-0.6,1-0.8c0.1-0.1,0.2-0.2,0.2-0.2c0.2-0.1,0.3-0.3,0.4-0.5
		c0.6-0.3,1.3-0.6,1.8-1c1.1-0.8,1.5-2.5,3.5-2.6C56.5,111.9,53.8,112.8,52.8,114.7z M54,105.5c0,0.1,0,0.2,0.1,0.3l0.3,0.5l-1,0.3
		c0-0.3,0-0.6,0-0.9C53.5,105.7,53.7,105.6,54,105.5z M50.7,110.2c0.2,0.4,0.3,0.8,0.2,1.2c-0.2,0-0.4,0-0.5,0.2
		c-0.3,0.2-0.5,0.4-0.6,0.6c-0.2-0.1-0.4-0.2-0.5-0.4c-0.2-0.2-0.3-0.5-0.2-0.9C49.4,110.2,50.1,110.3,50.7,110.2z M55.2,98
		c0.7-0.3,1.2-0.2,1.5,0.6C56,98.8,55.6,98.5,55.2,98z M44.4,109.1l0.1,0.1c0.1,0.3,0.4,0.4,0.6,0.5c-0.3,0.5-0.9,0.9-1.9,1.3
		C43.9,110.3,44,109.5,44.4,109.1z M38.5,102.7c0.1-0.1,0.2-0.2,0.3-0.4c0.1-0.2,0.2-0.4,0.1-0.6c0.1,0,0.1-0.1,0.2-0.1
		c-0.1,0.4-0.1,0.9-0.7,1.3C38.4,102.8,38.4,102.8,38.5,102.7C38.4,102.8,38.5,102.7,38.5,102.7z M40.3,103.9l-0.2,0.1
		c0-0.3,0.2-0.5,0.4-0.7l0.2,0.2c0,0.1,0,0.1,0.1,0.1C40.6,103.7,40.4,103.8,40.3,103.9z M42.6,107.9c0-0.2,0-0.3,0-0.4
		c0-0.1,0-0.1,0-0.2c0.2-0.2,0.3-0.6,0.2-0.9c0,0,0-0.1,0.1-0.1C43.2,107.2,43.2,107.2,42.6,107.9z M38.2,112.7
		c0.4,0,0.6,0.2,0.5,0.6c0,0.3-0.3,0.4-0.7,0.4C37.8,113.1,37.9,112.9,38.2,112.7z M38.9,119.1c0.2-0.1,0.3,0.1,0.2,0.2
		c0,0.1-0.2,0.1-0.3,0.1C38.7,119.3,38.7,119.2,38.9,119.1z M38.2,110.3c-0.1-1.5,1-2.6,1.3-3.9c0.1,0,0.2,0,0.3,0
		c0.2,0,0.4-0.1,0.6-0.2l0.4-0.3c0,0,0,0,0.1,0c0,0,0,0.1,0,0.1c-0.4,0.5-0.4,1.2-0.3,1.5c0,0.1,0,0.1,0,0.2
		c-0.1,0.2-0.2,0.4-0.3,0.6c0,0.4,0.1,0.7,0.2,0.9C39.9,109.8,39.2,110.1,38.2,110.3z M40.4,117.2c0.9-1.8,2.3-3.1,4-4.2
		c-0.2,0.3-0.4,0.7-0.6,1.1c-0.1,0.3-0.1,0.5,0,0.8c-0.7,1.3-1.6,2.4-2.9,3.1C40.3,117.9,40.2,117.6,40.4,117.2z M45.4,119.2
		c0.1,0,0.1,0,0.2,0.1c0,0,0,0.1-0.1,0.2c0,0-0.1,0-0.2-0.1C45.3,119.3,45.3,119.2,45.4,119.2z M45.4,117.1c0.2-0.6,0.5-0.7,0.9-0.4
		C46.3,117.2,46,117.3,45.4,117.1z M48,114.2c0,0.1,0.1,0.2,0.1,0.3c-0.1,0-0.3,0-0.4,0C47.8,114.5,47.9,114.3,48,114.2z
		 M50.6,118.7C50.6,118.7,50.6,118.7,50.6,118.7c0.1,0,0.2,0.1,0.3,0.2c0,0.1,0.1,0.1,0.1,0.1C50.7,119.2,50.5,119.1,50.6,118.7z
		 M53.1,119c-0.1-0.5-0.4-0.9-0.6-1.2c0,0-0.1-0.1-0.1-0.1c0.4-0.8,0.9-1.4,1.9-1.5c0.3,0.2,0.5,0.3,0.6,0.5c0,0.3,0,0.7,0,1
		c0,0.4,0,0.9,0,1.4C53.9,119.2,53.4,119.2,53.1,119z M58.4,111.8l0.3,0.4c-0.1,0-0.2,0.1-0.3,0.1c-0.4,0.2-0.7,0.3-0.9,0.4
		C57.7,112.4,58,112.1,58.4,111.8z M66.8,109.4c0-0.1,0-0.3,0-0.4c0-0.2-0.1-0.4-0.2-0.5l-0.3-0.4c-0.5-0.6-1-1.3-1.4-1.9
		c0.1,0,0.1,0,0.2,0l2.4-0.7c0.1,0,0.2-0.1,0.3-0.2c0.3,0.1,0.7,0.2,1,0.3c0,0,0,0,0,0.1c0,0.9,0.4,1.6,0.8,2.1
		c-0.1,0.3-0.2,0.6-0.4,1.1C68.5,109.2,67.5,108.7,66.8,109.4z M79.1,104.8l-1.6-2.2c1-0.8,1.9-0.7,3.1,0.1
		C80.1,103.4,79.9,104.4,79.1,104.8z M81.2,104.8c-0.2,0.9-0.5,1.3-1.1,1.5C80.1,105.5,80.1,105.5,81.2,104.8z M82.7,98.9
		c-0.1-0.2-0.4-0.4-0.7-0.5c0,0,0,0,0,0c-0.1-0.2-0.3-0.4-0.6-0.5c0,0,0,0,0,0c-0.1-0.2-0.1-0.4-0.2-0.6c0.1-0.4,0.4-0.8,0.8-1.2
		c0.3-0.4,0.7-0.9,1-1.4c0,0,0-0.1,0-0.1c0.2-0.1,0.5-0.3,0.8-0.4c0.1,0.2,0.2,0.3,0.3,0.5c0.4,0.5,0.8,1.2,1.4,1.7
		c0,0.5-0.2,1-0.4,1.5c-0.4,0.4-0.7,0.7-1.2,0.8c-0.2,0.1-0.3,0.2-0.4,0.3C83.2,98.9,82.9,98.9,82.7,98.9z M85.2,105.4
		C85.2,105.4,85.2,105.4,85.2,105.4C85.2,105.4,85.2,105.4,85.2,105.4C85.2,105.4,85.2,105.4,85.2,105.4z M87.2,104.6
		C87.2,104.5,87.1,104.5,87.2,104.6c1.3-2,2.9-1.9,4.4,0.3C90.2,104,88.7,105,87.2,104.6z M92.9,109.7c-0.4,1.1-1.2,1.2-1.8,1.6
		c-0.6,0.3-1,1-2.1,1.3l-0.1-0.2C89.9,110.9,91.2,110.3,92.9,109.7z M93.8,111.9c-0.1,0-0.2,0.1-0.4,0.2c0.2-0.2,0.5-0.4,0.7-0.5
		C94,111.8,93.9,111.9,93.8,111.9z M95,105.4l-0.2,0.1c-0.6,0.3-1.1,0.6-1.6,1c0-0.8,0.3-1.3,0.7-1.7c0.1,0,0.3,0,0.4-0.1
		c1.6-0.8,2-2.1,2-3.1c0.3-0.2,0.5-0.3,0.8-0.4c0.1,0.1,0.3,0.2,0.5,0.2c0.1,0,0.1,0,0.2,0c0.4,0,0.7-0.1,1-0.3c0,0,0.1,0,0.1,0
		c0.3,1.1,0.3,2.1-0.1,3.3c0,0,0,0,0,0C97.3,104.2,96,104.8,95,105.4z M103.4,95.8c-0.4,0.7-0.8,1.3-1.4,1.7c0-0.2,0-0.5,0-0.7
		c0-0.4,0-0.6,0.1-0.7c0.1-0.1,0.1-0.2,0.2-0.4c0.2,0,0.3,0,0.5-0.1c0.2,0,0.4-0.1,0.6-0.1c0.1,0,0.2-0.1,0.3-0.1
		C103.6,95.6,103.5,95.7,103.4,95.8z M104.6,88c0.4,0.3,0.8,0.6,1.1,0.8c0.1,0.1,0.3,0.2,0.4,0.3c-0.2,0.2-0.4,0.4-0.6,0.6
		c-0.1,0-0.2,0-0.3,0c-0.5,0-1.4-0.1-2,0.8c-0.2,0.2-0.4,0.4-0.8,0.5C102.3,89.2,103.7,88.7,104.6,88z M110.1,73.5
		c-0.3,0-0.5,0-0.8,0.2c-0.3,0.2-0.5,0.5-0.7,0.7c0,0,0,0,0,0c-0.1,0-0.1,0-0.2,0c0,0,0,0,0,0l-0.1-0.2c0,0,0,0,0,0
		c0-0.1-0.1-0.3-0.1-0.4c0,0,0,0,0,0c0.4-0.4,0.3-1-0.1-1.4c0,0-0.1-0.1-0.2-0.1c0-0.8,0.2-1.4,0.7-2c0,0,0.1,0,0.1,0
		c0.7,0,1.1-0.5,1.2-0.7c0.2-0.1,0.3-0.4,0.4-0.6c0.5-0.2,1.1-0.4,1.9-0.6c0.1,0.4,0,0.5-0.1,0.6c-0.3,0.2-0.4,0.5-0.3,0.9
		c-0.1,0.1-0.3,0.2-0.4,0.3c-0.2,0.4-0.4,0.8-0.5,1.1c-0.2,0.4-0.3,0.8-0.6,1.1c-0.3,0.3-0.3,0.7-0.2,1
		C110.2,73.4,110.2,73.4,110.1,73.5z M116.8,55.4c-0.3,0.8-0.4,1.8-1.4,2.2c-0.6-0.2-0.7-0.5-0.7-1c0-0.3-0.2-0.6-0.2-0.8
		c-0.5-0.5-0.9-0.5-1.4-0.3c-0.1,0.2-0.3,0.5-0.5,0.5c-0.1-0.1-0.1-0.3-0.2-0.5c-0.3-0.7-0.6-1.4-1.3-2.1c0-0.3,0-0.7,0-1.1
		c-0.3,0.1-0.5,0-0.8,0c0,0,0-0.1-0.1-0.1c-0.7-0.8-1.5-1.3-2.4-1.6c0.1-0.2,0.2-0.4,0.2-0.6c0-0.5,0.3-1,0.7-1.5c0.1,0,0.1,0,0.2,0
		c0.6,0.7,1.4,0.8,2.1,0.8c0.1,0,0.2,0,0.4,0c0.2,0,0.3,0,0.5,0c0.3,0,0.5-0.1,0.7-0.2c0.4,0,0.7,0,1.1,0c0.1,0.1,0.1,0.1,0.2,0.2
		c0,0.2,0.1,0.4,0.2,0.5c1,1,1.6,2.3,2.2,4.1c0.1,0.3,0.2,0.4,0.5,0.6C116.7,54.7,116.8,55,116.8,55.4z M102.2,52.6
		c0.2,0.1,0.4,0.2,0.6,0.2c0,0,0,0,0,0c-0.6,0.6-1.1,1-1.6,1.2c-0.1,0.1-0.2,0.1-0.3,0.2c0-0.1,0-0.2,0-0.3c0-0.1,0-0.3,0-0.4
		C101.3,53.1,101.7,52.8,102.2,52.6z M90.9,75.3l0.1,0.4c-0.4,0.1-0.9,0.2-1.4,0.3c-0.4,0.1-0.9,0.1-1.4,0.3c0-0.1-0.1-0.1-0.1-0.2
		c0.2-0.2,0.6-0.4,1.2-0.5l0.3-0.1c0.2-0.1,0.4-0.2,0.5-0.4C90.4,75,90.6,75.1,90.9,75.3z M86.8,78.7c0.1,0,0.2,0.1,0.2,0.1
		c0.1,0.4,0.4,0.8,0.6,1.1c0,0.2,0,0.4,0,0.6c-1.2,1.2-2.7,2.2-4.1,3c0-0.1,0-0.1,0-0.2c0.3-0.4,0.6-0.7,0.9-1
		c0.1,0,0.2,0.1,0.4,0.1c0.2,0,0.5-0.1,0.7-0.3c0.6-0.6,0.6-1.2,0.5-1.5c-0.1-0.3-0.4-0.6-0.9-0.8c0-0.1,0-0.1,0-0.2
		C85.5,79,86.1,78.8,86.8,78.7z M48.3,98.6c0.2,0,0.5,0,0.7-0.1c0.1,0.3,0.2,0.6,0.6,0.9c0,0,0.1,0.1,0.1,0.1
		c-0.2,0.3-0.5,0.5-0.8,0.8c-1.7,1.5-3.4,3-5.1,4.5c-0.4-0.1-0.6-0.4-0.6-0.7c0-0.3,0-0.6,0.1-0.9c0.2-0.1,0.3-0.4,0.4-0.6
		c0.1-0.1,0.2-0.2,0.3-0.4c0.2-0.3,0.2-0.7,0-1C45,99.9,46.6,98.8,48.3,98.6z M43.5,98.2c0.1,1-0.2,1.8-0.6,2.6
		c-0.2,0.1-0.3,0.2-0.5,0.4c-0.1,0.1-0.4,0.3-0.5,0.6c-0.2-0.5-0.3-0.9-0.2-1.3c0.3-0.1,0.6-0.4,0.7-0.7c0.1-0.1,0.2-0.2,0.3-0.4
		c0.1-0.2,0.2-0.4,0.1-0.6C43,98.7,43.2,98.5,43.5,98.2z M41.9,121.6c1.2,0.5,2.3,0.6,3.5,0.6l0,0c2.1-1,4.3-1.5,6.7-1.2
		c1.2,0.2,2.5,0,3.7-0.1c0.1,0.1,0.3,0.1,0.4,0.1c0.1,0,0.2,0,0.4-0.1c0,0,0.1,0,0.1-0.1c0,0,0.1,0,0.1,0c0.3,0,0.6,0,0.9,0.1
		c0,0,0,0,0,0c0.1,0.1,0.2,0.2,0.4,0.3c0.1,0,0.1,0.1,0.2,0.1c-0.8,0.1-1.6,0.4-2.4,0.6c-0.3,0-0.5,0-0.8,0
		c-0.1,0.1-0.1,0.2-0.2,0.4c-0.9,0.4-1.8,0.8-2.7,1.2c-0.4,0.2-0.8,0.4-1.2,0.6c-0.1,0-0.1,0.1-0.2,0.1c0,0-0.1,0-0.1,0
		c-0.2,0-0.5,0-0.7,0.1c-4.2,2.5-4.2,2.5-7.8-0.2l-1-0.8c-0.1,0-0.1-0.1-0.2-0.1c-0.7-0.3-1.3-0.4-1.8-0.5c-0.2,0-0.4-0.1-0.5-0.1
		C39.6,121.3,40.4,121,41.9,121.6z M61.9,115c-0.8,0.4-1.7,0.7-2.7,0.8c-0.5-0.4-1.1-0.4-1.4-0.4c0,0-0.1,0-0.1,0
		c-0.3-0.3-0.7-0.3-1.1-0.1c0,0-0.1,0-0.1,0c0.1-0.1,0.2-0.3,0.4-0.4c0.9,0,1.7-0.4,2.4-0.7c0.3-0.1,0.7-0.3,1-0.4
		c0.3,0,0.6,0,0.9,0c0,0,0.1-0.1,0.1-0.1c1.1-0.1,2.2-0.5,3.1-0.9c0.4-0.2,0.8-0.3,1.3-0.5c0.2,0.1,0.5,0.2,0.7,0.2c0,0,0,0,0,0
		c0.7,0,1.1-0.4,1.4-0.8c0.1-0.1,0.2-0.2,0.2-0.3c0.8-0.2,1.5-0.4,2.2-0.7c0.6-0.2,1.3-0.2,1.6,0.6c-0.4,0.9-1.2,0.9-2,1.1
		C67.1,113.1,64.4,113.9,61.9,115z M77.5,106.6c0-0.1-0.1-0.1-0.2-0.2c0-0.3-0.2-0.8-0.7-1.3c0-0.1,0.1-0.1,0.1-0.2l1,1.4
		c0,0,0.1,0,0.1,0.1C77.7,106.4,77.6,106.5,77.5,106.6z M94.6,107.9c0.4-0.2,0.8-0.5,1.2-0.7l0.2-0.1c0.7-0.4,1.3-0.7,1.8-0.7
		C96.9,107.7,95.8,108,94.6,107.9z M106.7,92.3c-0.2,0.1-0.3,0.2-0.4,0.3c-0.3,0.4-0.6,0.7-1,1c-0.3,0.3-0.7,0.6-1,1
		c0-0.1,0-0.1,0-0.2c-0.1-0.5-0.6-0.9-1.1-0.9c-0.2,0-0.4,0.1-0.7,0.1c-0.1,0-0.1,0-0.2,0c0-0.2-0.1-0.3,0-0.6c0.1,0,0.1,0,0.2-0.1
		c0.1-0.1,0.3-0.1,0.4-0.2c0.6-0.3,1.3-0.6,1.8-1.3c0.1,0,0.2,0,0.3,0c0.5,0,1.2,0.1,1.9-0.6c0.4-0.4,0.9-0.7,1.4-0.9c0,0,0,0,0,0
		C107.7,90.8,107.2,91.5,106.7,92.3z M109.7,85.6c0-0.3,0.1-0.6,0.4-0.9c0.4-0.4,0.4-0.9,0.3-1.2c0.6-0.2,1-0.6,1.2-0.9
		C112.2,84.1,111.7,85,109.7,85.6z M117.9,81.3c0.1-0.1,0.2-0.2,0.4-0.4c0.1-0.1,0.1-0.1,0.1-0.2C118.3,81,118.2,81.1,117.9,81.3z
		 M118.6,80.3c0-0.1,0-0.2,0-0.3c0,0,0.1-0.1,0.1-0.1C118.7,80.1,118.7,80.2,118.6,80.3z M123.7,66.9c0-0.3,0-0.5-0.1-0.8
		c-0.1-0.2-0.2-0.4-0.3-0.5c-0.1-0.7-0.1-1.4,0.1-2.2c0.1-0.5,0-0.9-0.4-1.2c0-0.1,0.1-0.2,0.1-0.3c0.4,0,0.4,0.1,0.5,0.3
		c0.1,0.2,0.2,0.4,0.5,0.6c0,0.1,0,0.1,0,0.2c0,0.1,0,0.2,0,0.3c0,0.4-0.1,1.2,0.6,1.8c0,0.1,0,0.1-0.1,0.2c-0.1,0.3,0,0.6,0.2,0.8
		C124.4,66.4,124.1,66.7,123.7,66.9z M120.3,54c0.3-0.3,0.4-0.8,0.2-1.2c0,0,0.1,0,0.1,0c0.5,0,0.9-0.3,1-0.8c0,0,0-0.1,0.2-0.2
		c0,0,0,0,0,0c0,0,0,0.1,0,0.1c0.1,1.5-0.1,3-0.4,4.5c-0.1,0.9-0.3,1.8-0.4,2.8c0,0.3,0.1,0.6,0.3,0.8c0,0.2,0,0.5,0,0.7
		c0,0.1-0.1,0.2-0.1,0.3c0,0.1,0,0.2,0.1,0.3c0,0,0,0,0,0c-0.8,0.9-0.5,2-0.3,2.5L121,64c0,0.1,0.1,0.2,0.2,0.3
		c0,0.4-0.1,0.7-0.1,1.1c0,0,0,0-0.1,0.1c-0.2,0.2-0.3,0.4-0.5,0.6c0.1-0.3,0-0.6-0.2-0.9c-0.4-0.4-1-0.4-1.4,0
		c-0.7,0.7-1,1.5-1.3,2.3c-0.2,0.6-0.4,1-0.7,1.4c-0.2,0.2-0.3,0.5-0.2,0.8c-0.1,0.1-0.2,0.2-0.3,0.2c0,0.5-0.1,0.9-0.1,1.3
		c0,0,0,0,0,0.1l-1.4,2.6c0,0,0,0,0,0c-0.1,0.1-0.1,0.1-0.2,0.2c-1.2-0.2-2.3,0.2-3,1.1l-0.2-0.6c0,0,0,0,0,0c0-0.1,0-0.3,0.1-0.4
		c0.2,0,0.3-0.1,0.4-0.3c0.5-0.6,0.8-1.2,1-1.8c0.1-0.3,0.2-0.6,0.4-0.8c0.1-0.2,0.1-0.4,0.1-0.6c0.1,0,0.1,0,0.2-0.1
		c1.1-1,0.9-2.2,0.7-2.9c0.1-0.2,0.2-0.3,0.3-0.5c1-0.2,1.7-0.7,2.3-1.2c0.3-0.2,0.5-0.4,0.8-0.6c0.5-0.3,0.6-0.9,0.4-1.4
		c-0.1-0.1-0.2-0.2-0.3-0.3c0.1-0.5,0.1-0.9,0.1-1.4c0.2,0.2,0.4,0.3,0.7,0.3c0,0,0,0,0,0c0.5,0,1-0.4,1-1c0-0.3,0.1-1.1-0.7-1.6
		c-0.2-0.1-0.5-0.2-0.7-0.1c-0.2-1.6,0.3-3.2,0.6-4.8c0,0,0.1,0,0.1,0c0.3,0,0.5-0.1,0.7-0.3L120.3,54z M101,44.5c0,0,0,0.1,0,0.1
		c0.9,1.6,2.1,2.6,3.6,3.1c-0.1,0.1-0.2,0.2-0.3,0.3c-0.2,0.2-0.5,0.4-0.8,0.6c-0.6,0.4-1.5,1-1.8,2.1c-0.7,0.5-1.3,1-1.9,1.5
		c0,0-0.1,0-0.1,0c-0.4,0-0.7,0.3-0.9,0.6c-0.3-0.4-0.8-0.5-1.3-0.2c-0.2,0.1-0.3,0.2-0.5,0.4c0,0,0,0,0,0c0.1-0.1,0.2-0.3,0.3-0.5
		c0.1-0.3,0.1-0.6,0.1-0.8c0-0.2,0-0.3,0-0.3c1.1-1.5,2-3.2,2.7-4.4C100.7,46.2,101,45.4,101,44.5z M88.2,65
		c0.5-1.5,1.2-2.8,2.6-3.4c0.5,0.2,0.6,0.6,0.5,0.8c-0.1,0.1-0.2,0.3-0.3,0.4c-0.3,0-0.6,0-0.8,0.3l-0.9,0.9
		C88.8,64.4,88.5,64.7,88.2,65C88.2,65,88.2,65,88.2,65z M91.5,58.3c0,0-0.1,0-0.1,0C91.4,58.3,91.4,58.3,91.5,58.3
		c0-0.1,0-0.2,0-0.2c0.1,0,0.1,0.1,0.1,0c0,0,0,0,0,0C91.6,58.3,91.5,58.3,91.5,58.3z M92.4,60.8c-0.1,0.1-0.2,0.1-0.3,0.2
		c-0.1-0.1-0.1-0.2-0.2-0.3c0.1-0.1,0.2-0.2,0.3-0.1C92.3,60.5,92.3,60.7,92.4,60.8z M93.2,44.4C93.2,44.5,93.2,44.5,93.2,44.4
		C93.3,44.5,93.2,44.5,93.2,44.4C93.2,44.5,93.2,44.5,93.2,44.4z M87,66.3c-0.8,0.9-1.6,1.8-2.3,2.8c-0.3,0.4-0.2,1.1,0.2,1.4
		c0.2,0.1,0.4,0.2,0.6,0.2c0.3,0,0.6-0.1,0.8-0.4c1.2-1.7,2.7-3.2,4.2-4.7l0.9-0.9c0.1-0.1,0.2-0.3,0.3-0.5c0,0,0,0,0,0
		c0.7-0.6,1.5-1.3,1.9-2.1c0.4-0.1,0.7-0.5,0.7-0.9v-0.7c0,0,0-0.1,0-0.1c0.2-0.1,0.5-0.1,0.7-0.1l0.3,0.6c0.1,0.2,0.2,0.3,0.4,0.4
		c0,0.1-0.1,0.1-0.1,0.2c-0.2,0.4-0.5,0.8-0.6,1.4c-0.1,0.2,0,0.4,0.1,0.6c-0.5,1.3-0.9,2.6-1,4c-0.1,0.5-0.2,1-0.4,1.4
		c-1.1,0.8-2.2,2-3,3.3c-0.4-0.2-0.8-0.5-1.2-0.7c0.1,0.7,0.5,1.4-0.1,2.1c0,0,0,0,0,0c-0.2,0-0.3,0-0.5,0l-0.3,0.1
		c-0.9,0.3-2.2,0.7-2.7,2.2c0,0.1,0,0.1,0,0.2c-0.9,0.8-1.7,1.8-2.4,2.8c0-0.5-0.3-0.9-0.8-1c-0.6-0.1-1.2,0-1.7,0
		c-0.8,0.1-1.3,0.1-1.8-0.1c0-0.2,0.1-0.4,0.1-0.6c0.2,0.2,0.4,0.3,0.7,0.3c0.1,0,0.3,0,0.4-0.1c0.2-0.1,0.4-0.2,0.7-0.3
		c0.8-0.4,1.7-0.8,2.5-1.5c0.6-0.3,1.1-0.6,1.7-0.9c1.5-1,2.5-2.6,4.4-3.2c0-1.1,1.5-1.6,1.1-3c-1.3,0.2-2.2,0.9-2.8,1.8
		c-1,1.5-2.4,2.5-4,3.4c-0.1,0.1-0.2,0.1-0.3,0.2c-0.4-0.3-1-0.2-1.3,0.2c-0.5,0.6-1.2,0.9-2,1.3c-0.2,0.1-0.5,0.2-0.7,0.3
		c-0.3,0.2-0.5,0.5-0.6,0.8c-0.2-0.3-0.6-0.5-1.1-0.6c0.2-0.4,0.2-0.8-0.1-1.1c0,0,0,0-0.1,0c0,0,0,0,0,0c0.4,0,0.7-0.2,0.9-0.6
		l0.2-0.3c0.4-0.9,0.8-1.7,1.5-2.2c0.2-0.1,0.3-0.3,0.3-0.5c0.1,0,0.2,0,0.3,0c0,0,0.1,0,0.1,0c0,0,0.1,0.1,0.1,0.1
		c0.2,0.2,0.4,0.5,0.8,0.5c0.6-0.4,1.2-0.8,1.8-1.1C84,68.2,85.3,66.6,87,66.3z M81.6,68.7c0,0,0.1,0,0.1,0c0.2,0,0.3-0.1,0.4-0.1
		c0,0.1,0,0.1-0.1,0.2C81.8,68.9,81.6,68.8,81.6,68.7C81.6,68.7,81.6,68.7,81.6,68.7z M66.1,76.5L66.1,76.5
		C66.1,76.5,66.1,76.5,66.1,76.5L66.1,76.5C66.1,76.5,66.1,76.5,66.1,76.5z M38.4,94.3c0,0,0.1,0,0.1,0c0,0,0,0,0.1,0
		c0.3,0.2,0.6,0.2,0.9,0.2c0.6,0,1-0.4,1.2-0.7c0.3-0.5,0.3-1.3-0.4-1.8c0.3-0.3,0.7-0.6,1.1-0.9c1.7-1.2,3.1-2.6,4.4-4.1
		c0.4-0.1,0.8-0.4,0.9-0.8c0,0,0.1-0.1,0.2-0.2c0.2-0.2,0.4-0.3,0.6-0.6c0.1-0.2,0.2-0.5,0.1-0.7c0.5-0.8,1.1-1.6,1.5-2.4
		c0.8-1.2,1.5-2.6,2.5-3.7c0,0,0,0,0.1,0c0.2,0,0.4-0.1,0.6-0.2c2.4-1.7,4.7-3.9,7-6.9c0,0,0,0,0,0c0.2,0.5,0.4,1.1,0.9,1.5
		c0,0,0,0,0,0c0,0.3,0,0.5-0.1,0.8c0.2,0.2,0.4,0.3,0.5,0.4c0.1,0.1,0.2,0.3,0.3,0.4c0.2,0.2,0.3,0.4,0.5,0.9
		c-0.1,0.3-0.1,0.6-0.2,0.9c-0.4,0.4-0.6,0.9-0.7,1.2c0,0.1-0.1,0.3-0.1,0.3h0c-0.3,0.1-0.5,0.2-0.7,0.5s-0.2,0.5-0.1,0.8l0.4,1.3
		l-0.5,0.8C59.4,82,59.5,82.6,60,83c0.2,0.1,0.4,0.2,0.6,0.2c0.3,0,0.6-0.2,0.8-0.4l0.8-1.2c0.1-0.2,0.2-0.5,0.1-0.7
		c0.6-0.4,1-0.9,1.4-1.3c0.3-0.3,0.6-0.6,0.9-0.9c0.2-0.1,0.3-0.3,0.3-0.5c0.4,0.3,0.9,0.5,1.6,0.1l1,0.7c0.2,0.2,0.5,0.2,0.8,0.1
		c1.5-0.4,2.5-0.2,3.4,0.3c-0.1,0-0.2,0.1-0.3,0.1c-0.6,0.2-1.2,0.5-1.8,0.7c-2.5,1-5.1,2.1-7.5,3.5c-0.2,0.1-0.3,0.3-0.4,0.5
		c-0.6,0.1-1.1,0.2-1.7,0c-1.9-0.6-3.6,0-5.2,1c-1.2,0.8-2.4,1.6-3.4,2.6c-2.1,1.9-4.1,4-6.1,6c0,0-0.1,0-0.1,0
		c-0.1-0.2-0.1-0.5-0.2-0.6c0,0,0-0.1,0-0.1c0-0.1,0-0.2-0.1-0.3c0-0.1-0.1-0.2,0-0.3c0.1-0.5-0.3-1.1-0.8-1.2
		c-0.5-0.1-1.1,0.3-1.2,0.8c-0.1,0.7,0.1,1.3,0.3,1.8c0.1,0.4,0.2,0.6,0.2,0.7c0,0,0,0.1,0,0.1c-0.9,0.9-2.2,0.4-3.5,0.9
		c-0.9,0.2-1.5,2.1-3.1,0.8C37.1,95.5,37.7,94.8,38.4,94.3z M30.5,80c0.2,0.2,0.5,0.3,0.7,0.3c0.2,0,0.5-0.1,0.7-0.3
		c0.1,0,0.2,0,0.3,0c0.4,0,1.1,0,1.7-0.5c0,0,0,0,0,0c0.5-0.1,1-0.3,1.5-0.5c1.6-0.5,3.1-1,4.7-1.1c0,0.2,0.1,0.4,0.2,0.7
		c-0.1,0.2-0.2,0.4-0.3,0.5c-0.4,0.7-1,1.6-0.8,2.8c-0.2,0.3-0.5,0.6-0.8,0.9c-0.4,0.4-0.9,0.9-1.2,1.6C37,84.6,37,84.8,37,85
		c-0.2,0.3-0.4,0.7-0.5,1.1c-0.1,0.1-0.2,0.2-0.3,0.3c-0.4,0.8-0.7,1.5-1,2.3c-0.1-0.7-0.2-1.4-0.4-2c-0.2-0.8-0.4-1.5-0.3-2.2
		c0-0.4-0.2-0.7-0.5-0.9c0.3-0.4,0.3-1-0.1-1.3c-0.4-0.4-1-0.4-1.4,0l-0.1,0.1c-0.3,0.3-0.7,0.7-0.7,1.4c0,0.4,0.2,0.8,0.6,1.2
		c0.1,0,0.1,0.1,0.2,0.1c0,0.7,0.2,1.4,0.4,2.1c0.2,0.7,0.4,1.4,0.3,2.1c0,0.6,0.4,1,1,1c0,0,0,0,0,0c0.2,0,0.4-0.1,0.5-0.2
		c-0.1,0.3-0.2,0.6-0.3,0.9c-0.2,0.7-0.4,1.4-0.7,2.1c-0.1,0.2-0.1,0.3,0,0.5l0.2,1.2c-0.4-0.2-0.6-0.3-0.8-0.5c0,0,0-0.1-0.1-0.1
		c0,0,0-0.1,0.1-0.1c0.3-0.3,0.7-0.9,0.6-1.7c-0.1-0.5-0.6-0.9-1.1-0.8c-0.5,0.1-0.9,0.5-0.8,1.1c0,0.1-0.1,0.1-0.2,0.2
		c0,0.1-0.1,0.1-0.2,0.2l-0.1-0.1C31.1,93,30.9,93,30.7,93l0.1-0.6c0.1-0.5-0.3-1-0.9-1.1c-0.5-0.1-1,0.3-1.1,0.8
		c0.2-1.5,0-3.1,1-4.6c-0.6-0.9-0.4-2.2-1.1-3c0.1-0.1,0.2-0.3,0.2-0.4c0,0,0,0,0,0c0.2-0.2,0.6-0.7,0.5-1.5
		c-0.1-0.4,0.1-0.7,0.5-1.3c0.1-0.1,0.2-0.2,0.2-0.4c0.2-0.3,0.2-0.7,0-1c0-0.1,0-0.1,0.1-0.2C30.3,79.7,30.4,79.8,30.5,80z
		 M35.9,117.7l-0.1-0.3c-0.1-0.1-0.1-0.2-0.2-0.3c0.2-0.1,0.3-0.2,0.6-0.2C36.1,117.4,36,117.6,35.9,117.7z M26,109.6
		c0,0-0.1-0.1-0.2-0.2c-0.2-0.2-0.6-0.7-1.2-0.8c-0.1-0.1-0.2-0.2-0.2-0.3c-0.2-0.6,0-1.3,0.1-1.9c0.1-0.6,0.2-1.2,0.3-2.2
		c0.1,0.1,0.1,0.3,0.2,0.4c-0.2,0.4-0.1,0.7-0.1,0.9c0,0,0,0.1,0,0.1c-0.1,0.5,0.3,1.1,0.8,1.1c0,0,0.1,0,0.1,0
		c0.3,0,0.5-0.1,0.7-0.3c0.3,0.4,0.5,0.8,0.6,1.2c0,0.4,0.2,1.1,0.9,1.6c0.1,0.1,0.2,0.1,0.3,0.1c0.1,0.7,0.5,1.1,0.8,1.3
		c0,0,0.1,0.1,0.1,0.1c0,0,0.1,0.1,0.1,0.1c0,0,0,0.1,0,0.1c-1.1,0.2-2,0-2.9-0.6C26.4,110.1,26.3,109.8,26,109.6z M14.8,70.1
		c-0.1-0.1-0.2-0.3-0.3-0.4l0.3-3.1c0.4,0.2,0.7,0.4,1.1,0.4c0,0,0,0,0,0c0.2,0.2,0.4,0.5,0.4,0.9c0.4,2.1,0.8,4.5,1.7,6.9
		c0.5,1.2,0.7,2.5,1,3.9c0.2,0.9,0.3,1.8,0.6,2.6c0,0,0,0.1-0.1,0.1C17,78.1,15.4,74.6,14.8,70.1z M15.4,64.3
		c0.1,0.2,0.1,0.3,0.2,0.4c-0.1-0.1-0.3-0.1-0.5-0.1c0,0,0,0,0,0l0.1-0.8C15.2,63.9,15.3,64.1,15.4,64.3z M21.6,92.5l0.3,0.4
		c-0.1,0-0.1-0.1-0.2-0.2c0,0,0,0,0,0C21.6,92.7,21.6,92.6,21.6,92.5z M30.4,109.1C30.4,109.1,30.4,109.1,30.4,109.1
		C30.3,109.1,30.3,109.1,30.4,109.1c0-0.3,0.2-0.6,0.4-0.9C30.9,108.6,30.7,108.8,30.4,109.1z M30.7,100.4c0,0.2,0.1,0.4,0.2,0.6
		c0,0-0.1,0-0.1,0C30.8,100.9,30.7,100.6,30.7,100.4C30.7,100.4,30.7,100.4,30.7,100.4z M28.6,101.2l0.2,0.1c0,0,0,0.1,0,0.1
		c0.1,0.4,0.2,1,0.7,1.4c0.3,0.2,0.6,0.3,0.9,0.3c0.2,0.5,0.3,0.9,0.3,1.5c-0.2,0.4-0.4,0.9-0.6,1.3c-0.2,0.1-0.4,0.2-0.5,0.5
		c-0.1,0.2-0.3,0.4-0.4,0.6c0,0-0.1,0.1-0.1,0.1c0,0,0,0,0,0c-0.2-0.9-0.6-1.6-1-2.1c-0.1-0.2-0.3-0.4-0.4-0.6c-0.2-1-0.2-2-0.1-3.2
		c0.1-0.1,0.1-0.2,0.2-0.2C28.1,101,28.3,101.1,28.6,101.2z M31.3,116.8c0.1-0.5,0.6-0.7,1.1-0.9c0.6,0.4,0.9,1.2,1.5,1.6
		c-0.1,0.3-0.1,0.5,0,0.8l0.2,0.4C33.1,118.2,32.2,117.5,31.3,116.8z M34.6,115c0-0.1,0.1-0.1,0.1-0.2c0.1,0,0.1,0.1,0.2,0.1
		c0,0.1,0,0.1-0.1,0.2C34.7,115,34.7,115,34.6,115z M33.5,111.7c-0.6,0.5-1.1,0.3-1.9-0.1c0.6-0.5,1-0.7,1.6-0.5
		C33.2,111.3,33.3,111.5,33.5,111.7z M32.9,98.7C32.9,98.7,32.9,98.7,32.9,98.7C32.9,98.7,33,98.7,32.9,98.7
		C33,98.7,33,98.7,32.9,98.7C33,98.7,32.9,98.7,32.9,98.7z M28.6,92.9c0.1-0.2,0.1-0.4,0.2-0.6L28.6,92.9
		C28.7,92.9,28.7,92.9,28.6,92.9z M29.3,97.1c0.1-0.6-0.7-0.7-0.7-1.3c0.3-0.2,0.7-0.5,1-0.7c0.1,0,0.2,0,0.2,0c0,0,0.1,0,0.1,0
		c0.1,0,0.4,0,0.7,0l1,0.6c0.1,0.1,0.2,0.1,0.3,0.1c0.1,0.1,0.1,0.2,0.2,0.3c-0.3,0.3-0.5,0.7-0.7,1.1c0,0-0.1,0.1-0.1,0.1
		c-0.2,0.3-0.4,0.7-0.6,1c-0.2,0-0.3,0-0.5,0c-0.6-0.1-1,0.4-1.1,0.9l0,0c-0.3-0.1-0.6-0.2-0.9-0.3C28.4,98.2,29.4,97.9,29.3,97.1z
		 M24.2,98.4c0.3,0.1,0.7,0.3,1.2,0.3c0.1,0.7-0.1,1.5-0.5,2.5c-0.1-0.1-0.2-0.3-0.3-0.4c0,0,0-0.1,0-0.1c0.1-0.7-0.3-1.2-0.6-1.4
		c0-0.3,0-0.6,0.1-1C24.1,98.4,24.2,98.4,24.2,98.4z M29.4,114.6c0.1-0.1,0.2-0.2,0.3-0.3c0.3-0.2,0.6-0.5,0.8-0.9
		c0.1,0,0.3,0,0.5,0c-0.1,1.1-0.6,1.4-1.5,1.7l-0.2-0.2C29.4,114.8,29.4,114.7,29.4,114.6z M25.4,96.7c-0.1,0-0.3-0.1-0.4-0.1
		c-0.3-0.1-0.7-0.3-1.2-0.3c-0.1-0.1-0.1-0.1-0.2-0.2c0-0.2-0.1-0.3-0.2-0.4c-0.2-0.2-0.2-0.5-0.4-0.8c-0.1-0.3-0.2-0.7-0.4-1
		c0.1,0.1,0.3,0.1,0.5,0.1c0,0,0.1,0,0.1,0c0.8,0.9,1.6,1.8,2.3,2.6C25.5,96.6,25.4,96.7,25.4,96.7z M22.4,104.5
		c-1.8,0.3-2.6,0-3.2-1.5c-0.2-0.4-0.3-0.8-0.4-1.3c0.7-2.7,0.2-5.4-0.3-7.9L18.3,93c-0.1-0.5-0.5-0.8-0.9-0.8
		c-0.3-0.4-0.8-0.8-1.4-1c0.1-0.2,0.2-0.5,0.2-0.9c0-0.3-0.1-0.5-0.3-0.7l-0.4-0.4c0.8-1.3,0.9-2.8,1-4.1c0-0.6-0.4-1-0.9-1.1
		c-0.5,0-1,0.4-1.1,0.9c0,0.7-0.1,1.3-0.2,1.9c-0.2-0.6-0.3-1.3-0.5-1.9c-0.2-1-0.4-1.9-0.7-3c0-0.1-0.1-0.3-0.2-0.4
		c-0.1-0.1-0.2-0.2-0.3-0.4c-0.4-0.5-0.9-1.1-1.5-1.6C10,79,9.6,78,9.5,76.3c0-1.3-0.2-2.6-0.3-3.9C9,70.3,8.7,68.2,9,66.1
		c0-0.2,0-0.4-0.1-0.5c0.4-1.2,1.1-2.4,2.2-3.4c0.4-0.4,0.7-1.1,1.3-1.4c0.2,0.3,0.5,0.5,0.7,0.7c0.1,0.1,0.2,0.2,0.3,0.2l-0.8,8
		c0,0.4,0.2,0.7,0.5,0.9c-0.1,1.6,0.3,3.3,0.8,4.9c0.2,0.8,0.5,1.5,0.8,2.3c-0.2,0.6-0.4,1.4,0,2.1c0.3,0.5,0.9,0.8,1.3,0.9
		c0.2,0.3,0.3,0.6,0.5,0.9c1.9,0.3,3.4,2.1,3.7,4.2c-0.4,0.6-0.4,1.4,0,2.1c-0.2,0.9-0.6,1.8-1.3,2.5c0.2,1,0.7,2,1.3,2.8
		c-0.1,0.4,0,0.9,0.4,1.1c0.2,0.2,0.3,0.4,0.5,0.9c0.2,0.5,0.3,1,0.7,1.5c0.1,0.1,0.2,0.2,0.3,0.2c0.1,0.4,0.2,0.7,0.2,1.1
		c0,0.3,0.1,0.6,0.1,0.9c-0.4,0.3-0.5,0.9-0.2,1.3c0.1,0.2,0.2,0.3,0.3,0.4c0,0.1,0.1,0.3,0.2,0.4c0,0.1,0,0.2,0,0.4
		C22.9,102.6,23.1,103.6,22.4,104.5z M31.5,121c-0.5-0.6-0.7-1.3-0.8-2.1c0.7,0.5,1.4,1,2.1,1.4C32.6,120.9,32.2,121.1,31.5,121z
		 M34.9,109.5c-1.7-1.1-1.8-2.8-1.3-4.3c0.7-2.1,1.9-3.9,3.4-5.6c0.1,0.1,0.3,0.2,0.4,0.3c-0.1,0.4-0.2,0.8-0.3,1.2
		c0,0-0.1,0-0.1,0.1c-0.2,0.2-0.8,0.6-0.6,1.4c0,0.2,0.1,0.4,0.3,0.5c-0.1,0.5-0.2,0.9-0.4,1.4c-0.4,1.5,0.5,3,0.1,4.3
		C36,109.6,35.4,109.5,34.9,109.5z M73.7,118.7c-0.3,0-0.5,0-0.7,0c-0.3-0.5-0.9-0.7-1.2-0.8c-0.1,0-0.1,0-0.2-0.1
		c-0.1-0.2-0.4-0.4-0.6-0.4c0,0-0.1-0.1-0.1-0.1c-0.4-0.1-0.8-0.2-1.3-0.2c-0.1-0.2-0.3-0.3-0.5-0.4l-1-0.2c0,0,0,0,0,0
		c-0.1-0.2-0.3-0.4-0.4-0.7c1.4-1.4,2.9-1.8,5.5-1.7c-0.2,0.1-0.4,0.3-0.5,0.4c-0.4,0.3-0.7,0.6-1.1,0.7c-0.5,0.2-0.8,0.7-0.6,1.3
		c0.1,0.4,0.5,0.7,1,0.7c0.1,0,0.2,0,0.3,0c0.8-0.2,1.3-0.7,1.8-1.1c0.3-0.2,0.5-0.5,0.8-0.6c0.1-0.1,0.3-0.2,0.3-0.3
		c1,0.2,2,0.6,2.8,1.5C76.7,117.8,74.9,117.8,73.7,118.7z M83,118.7c-0.7,0.3-1.3,0.5-2,0.7c-0.3-0.3-0.7-0.4-1.1-0.3l-1.2,0.5
		c-0.4,0-0.9-0.1-1.3-0.2c1.9-1.5,4.1-1.5,6.2-1.8C83.9,118.3,83.3,118.5,83,118.7z M83.2,115.8c0.9-0.9,1.6-0.8,2.9-1
		C85,115.6,84.3,115.7,83.2,115.8z"/>
	<path class="tumbleweed-1-fill" d="M131.6,69.7c-0.1-1,0.1-2,0.3-3.1c0.2-0.9,0.4-1.8,0.4-2.7c0-0.2-0.1-0.4-0.2-0.5c0.5-0.2,0.8-0.7,0.6-1.2
		c0-0.1,0.1-0.3,0.1-0.5c0.2-0.5,0.4-1.2,0.1-2c0-0.1-0.1-0.1-0.1-0.2c0.2-0.8,0.3-1.6,0.5-2.4c0,0,0.1-0.1,0.1-0.1
		c1.1-1.7,0.8-3.3-0.7-4.7c-0.2-0.2-0.5-0.5-0.7-0.8c-0.1-0.1-0.2-0.3-0.3-0.4c0.4-0.1,0.9-0.2,0.7-0.9c-0.7-0.1-0.9,0.3-1,0.7
		c-0.2-0.2-0.5-0.3-0.8-0.2c0.1-0.4,0-0.8-0.4-1c-0.3-0.2-0.5-0.3-0.8-0.4c-0.1,0-0.3-0.1-0.3-0.2l0,0c-0.2-0.5-0.8-0.7-1.3-0.5
		c-0.5,0.2-0.7,0.8-0.5,1.3c0.3,0.8,1,1.1,1.4,1.2c0.1,0.1,0.3,0.1,0.3,0.2c0.2,0.1,0.4,0.2,0.6,0.2c0.1,0,0.2,0,0.3-0.1
		c-0.1,0.3,0,0.6,0.2,0.9c0.1,0.1,0.2,0.3,0.3,0.4c0.3,0.4,0.6,0.8,1,1.1c0.8,0.7,0.8,1.2,0.3,2.1c-0.2,0.4-0.2,0.8,0.1,1.2
		c-0.2,0.8-0.5,1.7-0.6,2.6c-0.1,0.2-0.1,0.5,0,0.8c0,0.1-0.1,0.3-0.1,0.5c-0.2,0.5-0.4,1.1-0.1,1.8c0,0.1,0.1,0.1,0.1,0.2
		c-0.1,0-0.2,0.1-0.3,0.2c0.1-0.2,0-0.5-0.1-0.8c-0.3-0.5-0.9-0.6-1.4-0.3c-1.1,0.6-1,1.7-1,2.4l0,0c-0.3,0.1-0.5,0.4-0.5,0.7
		c0,0.1-0.1,0.1-0.1,0.2c-0.2,0.2-0.4,0.6-0.5,1.1c-0.2,0.2-0.4,0.4-0.4,0.7c0,0.3,0.1,0.6,0.4,0.8c-0.2,0.1-0.4,0.2-0.5,0.4
		l-0.2,0.3c-0.6,1-1.2,2.2-1.2,3.6l0,0.1c0,0.3,0,0.8,0.4,1.2c0.2,0.2,0.5,0.4,1,0.4c0,0,0.1,0,0.1,0c0.5,0,0.9-0.5,0.9-1
		c0-0.3-0.2-0.6-0.5-0.8c0-0.9,0.4-1.6,0.9-2.5l0.2-0.3c0.2-0.4,0.1-0.9-0.2-1.2c0.3-0.1,0.6-0.2,0.8-0.5c0.2-0.3,0.3-0.7,0.2-1.2
		c0,0,0-0.1,0.1-0.1c0.2-0.2,0.4-0.5,0.4-1c0.1-0.5-0.2-0.9-0.6-1.1l0.1,0l1-0.1c0-0.2,0-0.4,0-0.4l0,0c0.1-0.1,0.2-0.1,0.2-0.2
		c0,0.1-0.1,0.2-0.1,0.3c0,0.8-0.2,1.5-0.4,2.4c-0.3,1.2-0.5,2.4-0.3,3.8c0.3,2.6-0.5,4.9-1.4,6.9c-0.7,1.6-1.7,3-3,4.3
		c0.5-0.9,0.6-2,0.1-3c0-0.5-0.5-1-1-1c-0.6,0-1,0.4-1,1c0,0.1,0,0.4,0.1,0.7c0.3,0.5,0.3,1,0,1.3c-0.6,0.8-0.8,1.7-1,2.5
		c-0.3,1.2-0.5,1.8-1.3,2.3c-0.2,0.1-0.4,0.3-0.5,0.6c-0.2,0-0.5,0.1-0.8,0c-0.1,0.6-0.2,1.2-0.3,1.9c-1.2,0.9-2.1,2.3-3.9,2.6
		c0.1-0.2,0.3-0.4,0.4-0.7c0.2-0.5,0.6-0.9,1-1.4c0.5-0.6,1.1-1.3,1.4-2.3c0.2-0.5-0.1-1.1-0.6-1.3c-0.5-0.2-1.1,0.1-1.3,0.6
		c-0.2,0.6-0.6,1.1-1.1,1.7c-0.5,0.6-0.9,1.1-1.3,1.9s-1,1.2-1.7,1.8c-0.2,0.2-0.5,0.3-0.7,0.5c-0.6,0.5-0.9,1.1-1.1,1.8
		c0,0,0,0.1,0,0.1c-0.6,0.6-1.3,1.2-2,1.7c-0.4,0.3-0.6,0.8-0.8,1.2c-0.2,0.5-0.1,0.9,0.7,1.2c0.9-0.9,1.9-1.9,2.9-2.9
		c0,0,0-0.1,0.1-0.1c0,0,0.1,0,0.1,0c0.5,0,0.9-0.3,1-0.8c0.1-0.3,0.2-0.5,0.4-0.6c0.2-0.2,0.4-0.3,0.6-0.5c0.3-0.2,0.6-0.5,1-0.8
		c0,0,0.1,0,0.1,0c0.2,0.4,0.1,0.7,0,1c-0.4-0.1-0.7,0-1,0.3c-0.7,0.9-1.4,1.9-2.1,2.8c-1.2,1.6-2.3,3.2-3.6,4.6
		c-0.2,0.2-0.3,0.5-0.3,0.8c-0.2,0.2-0.4,0.4-0.6,0.6c-0.2,0-0.3,0.1-0.4,0.2l-1,0.7c-0.2,0.2-0.3,0.4-0.4,0.6c0,0,0,0.1,0,0.1
		c-0.8,0.7-1.4,1.6-1.6,2.8c1.2,0,1.9-0.6,2.6-1.2c0.2,0.1,0.4,0.2,0.6,0.2c0.2,0,0.4-0.1,0.5-0.2c0.4-0.2,0.5-0.7,0.4-1.1
		c0.3-0.1,0.7-0.2,0.9-0.3c0.1,0,0.1-0.1,0.2-0.1c0,0,0.1,0.1,0.1,0.1c0.2,0,0.3,0.1,0.4,0.1c0.7,0,1.1-0.4,1.4-0.7l0.1-0.1
		c2.6-2.4,4.7-5,6.2-7.9c0,0.1,0,0.1,0,0.2c0,0,0,0,0,0c-0.4,0.8-0.3,1.5-0.1,2c-0.2,0.6-0.6,1.4-1.2,2.6c0.5,0.5,1,0.8,1.9,0.5
		c0.5-0.8,1-1.7,1.5-2.6c0.2-0.1,0.4-0.3,0.5-0.5c0.6-1.2,1.4-2.3,2.3-3.5l0.5-0.7c0.1-0.1,0.1-0.3,0.2-0.4l0.7-0.7
		c0.4-0.4,0.4-1,0-1.4s-1-0.4-1.4,0l-0.7,0.7c-0.1,0.1-0.2,0.3-0.3,0.5c0,0-0.1,0-0.1,0.1l-0.5,0.7c-0.4,0.6-0.9,1.2-1.3,1.8
		c-0.1-0.5-0.4-0.9-0.9-1.2c0-1.1,0.9-2,1.6-2.9c0.6-0.7,1.1-1.3,1.5-2.1c0.2-0.3,0.3-0.5,0.5-0.8c0,0,0.1,0,0.1,0
		c1-0.5,1.5-1.3,1.8-2.1c0.2,0,0.3-0.1,0.5-0.2c2.6-2,4.4-4.2,5.6-6.9C131.1,75.5,132,72.8,131.6,69.7z M115,94.5
		c-0.7,1.2-1.6,2.4-2.5,3.5c0.4-0.5,0.7-1,1.1-1.5C114,95.8,114.5,95.2,115,94.5z"/>
	<path class="tumbleweed-1-fill" d="M29.5,59.4c1.1-0.9,1.6-2.1,2-3.2c0.1-0.2,0.1-0.4,0.2-0.6c0.1-0.2,0.1-0.5,0.2-0.7c0-0.1,0-0.1,0-0.2
		c0.5-0.1,0.9-0.6,0.8-1.1c0-0.1-0.1-0.3-0.1-0.4c0.2-0.3,0.4-0.6,0.6-0.9c0.4-0.6,0.7-1.1,1.2-1.6c0.8,0.1,1.4-0.4,1.6-0.7
		c0.1-0.1,0.2-0.2,0.3-0.3c0.5,0.1,1-0.2,1.2-0.7c0.2-0.5-0.2-1.1-0.7-1.2c-1-0.3-1.7,0.3-2.1,0.7c0,0-0.1,0.1-0.1,0.1
		c-0.3-0.1-0.7-0.1-1,0.1c-1,0.7-1.6,1.6-2.1,2.5c-0.2,0.3-0.4,0.6-0.5,0.8c-0.2,0.3-0.2,0.6-0.1,0.8c-0.7,0.4-0.8,1.2-0.9,1.5
		c0,0.1,0,0.2-0.1,0.3c-0.1,0.2-0.2,0.4-0.2,0.6c-0.4,1-0.7,1.8-1.4,2.4c-1.4,1.2-1.7,2.8-1.8,4.3c-0.1,2,0.2,4,0.4,5.9l0,0.2
		c0,0.3,0.2,0.6,0.5,0.7c0,0.1,0,0.1,0,0.2c0.1,1.1,0.8,1.7,1.3,2.1c0.2,0.2,0.4,0.3,0.5,0.5c0.1,0.2,0.3,0.3,0.4,0.4
		c0.1,0.2,0.2,0.3,0.4,0.4c0.2,0.1,0.3,0.2,0.5,0.3c0.4,0.2,0.5,0.2,0.5,0.3c0.1,0.5,0.5,0.8,1,0.8c0.1,0,0.2,0,0.2,0
		c0.5-0.1,0.9-0.7,0.7-1.2c-0.3-1-1.1-1.4-1.6-1.7c-0.1-0.1-0.2-0.1-0.3-0.2c0,0-0.1,0-0.1,0c0,0,0-0.1-0.1-0.1
		c-0.3-0.4-0.6-0.7-0.9-0.9c-0.4-0.4-0.6-0.5-0.6-0.7c0-0.3-0.2-0.6-0.5-0.8c0-0.1,0-0.2,0-0.3l0-0.2c-0.3-1.9-0.5-3.7-0.4-5.6
		C28.5,61,28.7,60,29.5,59.4z"/>
	<path class="tumbleweed-1-fill" d="M59.1,16.6c0.1,0.5,0.5,0.8,1,0.8c0.1,0,0.1,0,0.2,0c3.7-0.7,6.8-2.6,9.4-4.2c0.1-0.1,0.3-0.2,0.4-0.3
		c0.8-0.5,1.2-0.8,1.9-0.8c0.6,0,1-0.4,1-1s-0.4-1-1-1c-1.3-0.1-2.2,0.6-3.1,1.1l-0.4,0.3c-2.5,1.6-5.5,3.3-8.8,4
		C59.3,15.5,59,16,59.1,16.6z"/>
	<path class="tumbleweed-1-fill" d="M119.4,31.9c1.5,0.7,2.4,1.9,3,4.2c0.2,0.6,0.4,1.1,0.7,1.6c0.4,0.7,0.7,1.4,0.6,2.1c-0.1,0.4,0.1,0.7,0.4,0.9
		c0.1,0.1,0.1,0.1,0.1,0.7c0,0.3-0.1,0.7,0,1.1c0.1,0.5,0.5,0.8,1,0.8c0.1,0,0.1,0,0.2,0c0.5-0.1,0.9-0.6,0.8-1.1c0-0.1,0-0.3,0-0.5
		c0-0.5,0.1-1.4-0.5-2.1c0-1.1-0.4-1.9-0.8-2.7c-0.2-0.4-0.4-0.8-0.5-1.2c-0.5-1.8-1.4-4.3-4.1-5.5c-0.5-0.2-1.1,0-1.3,0.5
		S118.9,31.7,119.4,31.9z"/>
	<path class="tumbleweed-1-fill" d="M84.6,29.7c0-0.1,0.2-0.3,0.3-0.4c0.3-0.4,0.9-1.1,0.7-2.1c-0.1-0.5-0.7-0.9-1.2-0.7c-0.5,0.1-0.9,0.7-0.7,1.2
		c0,0.1-0.2,0.3-0.3,0.4c-0.3,0.3-0.6,0.7-0.7,1.3c-1.7,1.8-2.8,3.9-3.9,6c-0.3,0.1-0.5,0.3-0.6,0.5c0,0,0,0,0,0
		c-0.1,0-0.2,0.1-0.3,0.2l-0.7,0.7c-0.4,0.4-0.4,1,0,1.4c0.2,0.2,0.5,0.3,0.7,0.3s0.5-0.1,0.7-0.3l0.7-0.7c0.1-0.1,0.1-0.1,0.1-0.2
		c0.4-0.1,0.8-0.3,1-0.8l0.1-0.2c1.1-2.1,2.1-4.2,3.8-5.7C84.5,30.3,84.6,30,84.6,29.7z"/>
	<path class="tumbleweed-1-fill" d="M23.3,22.7c0.1,0.5,0.5,0.9,1,0.9c0,0,0.1,0,0.1,0c0.5-0.1,0.9-0.6,0.9-1.1c-0.1-1,0.2-1.9,0.4-3
		c0.3-1.2,0.7-2.6,0.5-4.1c0-0.2-0.1-0.4-0.3-0.5L25,14c-0.4-0.4-1-0.4-1.4,0s-0.4,1,0,1.4l0.7,0.7c0.1,1-0.2,1.9-0.5,2.9
		C23.5,20.2,23.1,21.4,23.3,22.7z"/>
	<path class="tumbleweed-1-fill" d="M78.9,47c1.5-3,2.7-5.8,3-9c0-0.6-0.4-1-0.9-1.1c-0.6,0-1,0.4-1.1,0.9c-0.2,2.9-1.4,5.4-2.8,8.3
		c-0.9,1.9-2.3,3.6-3.6,5.4c-0.4,0.6-0.9,1.1-1.3,1.7c-0.1,0.2-0.2,0.4-0.2,0.6c-0.3,0-0.5,0.1-0.7,0.3l-3.4,3.8
		c-0.4,0.4-0.3,1,0.1,1.4c0.2,0.2,0.4,0.2,0.7,0.2c0.3,0,0.6-0.1,0.8-0.3l3.4-3.8C73,55.2,73,55,73,54.8c0.3,0,0.6-0.1,0.8-0.4
		c0.4-0.6,0.8-1.1,1.3-1.6C76.5,51,77.9,49.2,78.9,47z"/>
	<path class="tumbleweed-1-fill" d="M67.3,36.5c0.3,0.5,0.9,0.7,1.4,0.4c0.5-0.3,0.7-0.9,0.4-1.4c-1.3-2.3-3.3-2.1-4.9-2c-0.3,0-0.7,0.1-1,0.1
		c0,0,0,0-0.1,0c-2.1,0-4,1-5.7,3c-0.1,0.1-0.2,0.2-0.3,0.3c-0.4,0.3-1,0.7-1.1,1.6c0,0,0,0.1,0,0.1c-0.2,0-0.3,0-0.5,0.1
		c-0.7,0.4-0.9,1-1.1,1.4c-0.1,0.1-0.1,0.2-0.2,0.4c0,0,0,0.1,0,0.1c-0.3,0.2-0.6,0.5-0.6,0.9c0,0.2-0.1,0.4-0.4,0.7
		c-0.2,0.3-0.5,0.6-0.7,1c-0.1,0.3-0.1,0.6,0,0.8c0,0,0,0,0,0c-0.6,0-1,0.4-1.1,0.9c0,0.4-0.2,0.8-0.5,1.3c-0.4,0.7-0.8,1.4-0.7,2.4
		c0,0.1,0,0.3,0.1,0.4c-0.1,0.1-0.2,0.2-0.2,0.3c-0.4,0.9-0.7,1.8-1,2.7c-0.3,1.2-0.7,2.3-1.3,3.2c-0.1,0.2-0.2,0.4-0.2,0.6
		c-0.1,0-0.1,0.1-0.2,0.1C47,56.3,46,57,46.2,58.2c0,0,0,0.1,0,0.1c0,0.2-0.1,0.4-0.1,0.6c-0.1,0.5,0.3,1.1,0.8,1.1c0,0,0.1,0,0.1,0
		c0.5,0,0.9-0.4,1-0.9c0-0.1,0.1-0.3,0.1-0.4c0.1-0.4,0.2-0.6,0.1-0.9c0.1,0,0.1-0.1,0.2-0.1c0.4-0.2,1.1-0.7,1.1-1.6
		c0.7-1.1,1.1-2.3,1.4-3.5c0.2-0.8,0.5-1.6,0.8-2.3c0.1-0.3,0.1-0.6,0-0.9c0.2-0.2,0.4-0.5,0.4-0.8c0-0.4,0.2-0.9,0.5-1.4
		c0.3-0.6,0.7-1.3,0.7-2.1c0-0.1,0-0.2,0-0.2c0,0.1,0.1,0.2,0.2,0.3c0.2,0.2,0.4,0.5,0.7,0.7c0.6,0.6,0.7,0.7,0.6,1.1
		c-0.1,0.4,0,0.8,0.4,1.2c0.3,0.4,0.8,0.6,1.2,0.6c0.1,0,0.2,0,0.2,0c0.5-0.1,0.9-0.6,0.8-1.1c-0.1-0.4-0.3-0.6-0.6-0.8
		c0-1.2-0.8-1.9-1.3-2.4c-0.2-0.2-0.3-0.3-0.5-0.5c-0.1-0.2-0.3-0.3-0.6-0.3c0-0.1,0.1-0.1,0.1-0.2c0.3-0.4,0.7-0.9,0.8-1.6
		c0.2-0.1,0.3-0.2,0.4-0.4c0.1-0.2,0.2-0.4,0.3-0.6c0.1-0.3,0.2-0.4,0.3-0.5c0.3-0.2,0.5-0.5,0.5-0.8c0.5,0,0.9-0.4,1-0.8
		c0-0.1,0.2-0.2,0.3-0.3c0.2-0.2,0.5-0.3,0.7-0.6c1.3-1.6,2.7-2.3,4.2-2.3c0,0,0,0,0,0c0.4,0,0.8,0,1.2-0.1
		C65.9,35.4,66.7,35.4,67.3,36.5z M53.2,44.7C53.3,44.7,53.3,44.7,53.2,44.7c0.1,0.1,0.1,0.1,0.1,0.2C53.3,44.8,53.3,44.8,53.2,44.7
		z"/>
	<path class="tumbleweed-1-fill" d="M89.6,119.1c-1.5-0.4-2.7,0.2-3.7,0.7l-0.3,0.2c-1,0.5-2,0.8-3.2,1.1c-0.5,0.1-0.9,0.6-0.8,1.2
		c0.1,0.5,0.5,0.8,1,0.8c0.1,0,0.1,0,0.2,0c1.3-0.3,2.5-0.7,3.6-1.2l0.4-0.2c0.8-0.4,1.5-0.8,2.3-0.6c0.5,0.1,1.1-0.2,1.2-0.7
		S90.1,119.2,89.6,119.1z"/>
	<path class="tumbleweed-1-fill" d="M110.5,16.2c0.5,1.4,1.7,1.9,2.6,2.2c0.2,0.1,0.4,0.1,0.6,0.2l0.3,0.1c0.9,0.4,1.5,0.7,1.8,1.3
		c0.2,0.4,0.5,0.6,0.9,0.6c0.1,0,0.3,0,0.4-0.1c0.5-0.2,0.7-0.8,0.5-1.3c-0.6-1.3-1.8-1.8-2.8-2.3l-0.3-0.1
		c-0.2-0.1-0.5-0.2-0.7-0.3c-0.8-0.3-1.2-0.5-1.4-1c-0.2-0.5-0.7-0.8-1.3-0.6C110.6,15.1,110.3,15.7,110.5,16.2z"/>
	<path class="tumbleweed-1-fill" d="M60.8,47.6c-0.5-0.2-1.1,0.1-1.3,0.6C59,49.9,59,51.6,59,53.3c0,0.3,0,0.7,0,1c0,0.4,0.2,0.7,0.5,0.9
		c0,0,0,0.1,0,0.1v1.9c0,0.6,0.4,1,1,1s1-0.4,1-1v-1.9c0-0.4-0.2-0.7-0.5-0.8c0,0,0-0.1,0-0.1c0-0.3,0-0.7,0-1c0-1.6,0-3,0.4-4.4
		C61.6,48.3,61.4,47.7,60.8,47.6z"/>
	<path class="tumbleweed-1-fill" d="M74.5,123.9c-0.5,0.2-1.1,0.2-1.6,0c-1.2-0.5-2.4-0.5-3.6,0c-0.5,0.2-0.8,0.8-0.6,1.3c0.2,0.5,0.8,0.8,1.3,0.6
		c0.7-0.3,1.5-0.3,2.2,0c0.5,0.2,1.1,0.3,1.6,0.3c0.5,0,1.1-0.1,1.6-0.3c0.5-0.2,0.7-0.8,0.5-1.3S75,123.7,74.5,123.9z"/>
	<path class="tumbleweed-1-fill" d="M93.1,12.1C93.1,12.1,93.2,12.1,93.1,12.1c0.6,0,1-0.4,1-1c0.1-1.7,0.8-3.2,1.6-4.7L96,6
		c0.1-0.3,0.1-0.6,0-0.9c-0.2-0.4-0.2-0.8,0-1.3c0.2-0.5,0-1.1-0.5-1.3c-0.5-0.2-1.1,0-1.3,0.5c-0.4,0.9-0.5,1.7-0.2,2.6
		c-0.9,1.7-1.8,3.4-1.8,5.5C92.1,11.6,92.6,12.1,93.1,12.1z"/>
	<path class="tumbleweed-1-fill" d="M45,41c1.2-1.4,1.4-3.1,1.5-4.6c0-0.4,0.1-0.8,0.1-1.2c0.1-0.5-0.3-1.1-0.8-1.1c-0.5-0.1-1.1,0.3-1.1,0.8
		c-0.1,0.4-0.1,0.9-0.2,1.3c-0.1,1.4-0.3,2.5-1.1,3.5c-0.4,0.4-0.3,1.1,0.1,1.4c0.2,0.2,0.4,0.2,0.6,0.2C44.5,41.4,44.8,41.2,45,41z
		"/>
	<path class="tumbleweed-1-fill" d="M102.1,21.2c0.9,0.4,1.4,1.2,2,2.2c0.5,0.8,1,1.6,1.8,2.3c0.2,0.2,0.4,0.2,0.7,0.2c0.3,0,0.6-0.1,0.8-0.3
		c0.4-0.4,0.3-1-0.1-1.4c-0.6-0.5-1-1.1-1.4-1.9c-0.5-0.9-1.1-1.8-2.1-2.5l0.2-0.5c0.1-0.1,0.2-0.2,0.3-0.3c0.3-0.4,0.6-0.7,0.9-1.1
		c0.7-0.8,1.4-1.7,2-2.7c0.7-1.1,1.5-1.9,2.7-2.5c0.5-0.2,0.7-0.8,0.5-1.3s-0.8-0.7-1.3-0.5c-1.5,0.7-2.7,1.8-3.6,3.2
		c-0.5,0.8-1.1,1.6-1.8,2.4c-0.3,0.4-0.6,0.7-0.9,1.1c0,0.1-0.1,0.1-0.1,0.2c-0.2,0.1-0.4,0.3-0.5,0.6l-0.4,1.3
		C101.4,20.5,101.7,21,102.1,21.2z"/>
	<path class="tumbleweed-1-fill" d="M21.1,57.5c-0.2,1.9,0.9,2.9,1.8,3.6l0.2,0.1c0.2,0.1,0.4,0.3,0.4,0.4c0.1,0.5,0.5,0.9,1,0.9c0,0,0.1,0,0.1,0
		c0.5-0.1,0.9-0.6,0.9-1.1c-0.1-1-0.8-1.5-1.3-1.8l-0.1-0.1c-0.9-0.7-1.1-1.2-1-1.7c0.1-0.5-0.3-1-0.9-1.1
		C21.7,56.6,21.2,57,21.1,57.5z"/>
	<path class="tumbleweed-1-fill" d="M37.8,55.3c0.1-0.2,0.2-0.3,0.4-0.5c0.3-0.4,0.6-0.8,0.9-1.3c0.1-0.1,0.1-0.2,0.2-0.4c0.4-0.6,1.1-1.7,0.2-3
		c-0.3-0.5-0.9-0.6-1.4-0.3c-0.5,0.3-0.6,0.9-0.3,1.4c0.1,0.2,0.1,0.3-0.3,0.9c-0.1,0.2-0.2,0.3-0.3,0.5c-0.2,0.3-0.4,0.7-0.7,1
		c-0.1,0.2-0.3,0.4-0.4,0.5c-0.3,0.4-0.2,1.1,0.2,1.4c0.2,0.1,0.4,0.2,0.6,0.2C37.3,55.8,37.6,55.6,37.8,55.3z"/>
	<path class="tumbleweed-1-fill" d="M37.5,127.2c-1.4,0-2.8,0.2-4.1,0.5c-0.5,0.1-0.9,0.7-0.8,1.2c0.1,0.5,0.5,0.8,1,0.8c0.1,0,0.1,0,0.2,0
		c1.2-0.3,2.4-0.5,3.6-0.5c0.6,0,1-0.4,1-1C38.5,127.7,38.1,127.2,37.5,127.2z"/>
	<path class="tumbleweed-1-fill" d="M48.5,11c0.2,0.1,0.3,0.1,0.5,0.1c0.3,0,0.7-0.2,0.9-0.5l1.9-3.4c0.1-0.2,0.1-0.4,0.1-0.6
		c0.3-0.2,0.5-0.5,0.5-0.9c0-1.3,0.3-2.5,0.7-3.8l0.2-0.7c0.2-0.5-0.2-1.1-0.7-1.2c-0.5-0.2-1.1,0.2-1.2,0.7l-0.2,0.7
		c-0.4,1.4-0.8,2.8-0.8,4.4c0,0,0,0.1,0,0.1c-0.1,0.1-0.3,0.2-0.4,0.4l-1.9,3.4C47.9,10.1,48,10.7,48.5,11z"/>
	<path class="tumbleweed-1-fill" d="M27.4,77.4c0.3,0,0.6-0.1,0.8-0.4c0.3-0.4,0.3-1.1-0.2-1.4c-1.8-1.4-3.6-3.1-5.7-5.2c-0.4-0.4-1-0.4-1.4,0
		c-0.4,0.4-0.4,1,0,1.4c2.2,2.2,4,3.9,5.8,5.4C27,77.3,27.2,77.4,27.4,77.4z"/>
	<path class="tumbleweed-1-fill" d="M31.8,33c0.3-0.2,0.7-0.3,1.1-0.4c0.6-0.1,1.4-0.3,2-0.8c0.1-0.1,0.2-0.2,0.3-0.3c0.8-0.2,1.3-0.7,1.7-1.1
		c0.1-0.1,0.2-0.2,0.3-0.3c0.4-0.4,0.4-1,0-1.4c-0.4-0.4-1-0.4-1.4,0c-0.1,0.1-0.2,0.2-0.4,0.4c-0.3,0.3-0.5,0.5-0.8,0.6
		c-0.3,0-0.6,0.3-0.8,0.6c-0.1,0-0.2,0.1-0.2,0.1c-0.3,0.2-0.7,0.3-1.2,0.5c-0.6,0.1-1.2,0.3-1.8,0.7c-0.5,0.3-0.6,0.9-0.3,1.4
		c0.2,0.3,0.5,0.4,0.8,0.4C31.4,33.2,31.6,33.1,31.8,33z"/>
	<path class="tumbleweed-1-fill" d="M8.2,48.1c0.2,0,0.3,0,0.5-0.1c0.8-0.4,1.2-1.1,1.5-1.7c0.2-0.3,0.4-0.6,0.6-0.8c0.3-0.3,0.4-0.6,0.3-1
		c0.3-0.1,0.5-0.2,0.6-0.5c0.9-1.6,2-2.7,3.2-3.5c1.2-0.7,2-1.8,2.6-2.8l0.1-0.2c0.1-0.2,0.2-0.4,0.2-0.7c0.1-0.1,0.2-0.2,0.3-0.3
		l1-1.4c0.3-0.5,0.2-1.1-0.3-1.4c-0.5-0.3-1.1-0.2-1.4,0.3l-1,1.4c-0.1,0.2-0.2,0.4-0.1,0.7c-0.1,0.1-0.2,0.2-0.3,0.3l-0.1,0.2
		c-0.6,0.9-1.1,1.7-1.9,2.2c-1.6,0.9-2.9,2.3-4,4.2c-0.1,0.2-0.2,0.5-0.1,0.7c-0.1,0-0.3,0.1-0.4,0.2c-0.5,0.4-0.8,0.9-1,1.4
		C8.2,45.7,8,46,7.7,46.2c-0.5,0.3-0.7,0.9-0.4,1.4C7.5,47.9,7.8,48.1,8.2,48.1z"/>
	<path class="tumbleweed-1-fill" d="M127.2,40.8c0.2,0.2,0.4,0.3,0.6,0.3c0.6,0.8,0.9,1.8,1.6,2.6c0.1,0.3,0.3,0.6,0.7,0.7
		c0.1,0.1,0.2,0.2,0.4,0.3c0-0.1,0-0.1,0-0.2c0.5,0.1,0.8,0.3,0.9,0.3c0.2,0.2,0.5,0.3,0.7,0.3c0.2,0,0.5-0.1,0.7-0.3
		c0.4-0.4,0.4-1,0.1-1.4c-0.6-0.7-1.9-1-2.2-1c-0.3-0.1-0.5,0-0.7,0.1c-0.3-0.6-0.7-1.1-1.1-1.8c0.6-0.6,0.5-1.4,0.5-1.7
		c0-0.1,0-0.1,0-0.2c0.1-0.5,0.1-0.9,0-1.3c-0.1-0.7-0.1-1,0.2-1.3c0.4-0.4,0.4-1,0-1.4s-1-0.4-1.4,0c-0.9,0.9-0.8,2-0.8,2.8
		c0,0.3,0,0.6,0,0.8c-0.1,0.3,0,0.6,0,0.8c0,0,0,0.1,0,0.1C126.9,39.8,126.9,40.4,127.2,40.8z"/>
	<path class="tumbleweed-1-fill" d="M47.4,66.4c0-0.3,0-0.7,0-1c0-0.6-0.4-1-0.9-1.1c-0.6,0-1,0.4-1.1,0.9c0,0.4,0,0.8,0,1.2c0,0.8,0,1.6-0.3,2.2
		c-0.4,0.7,0.2,1.3,0.5,1.5c0.1,0,0.1,0.1,0.1,0.1c0.2,0.2,0.5,0.3,0.7,0.3s0.5-0.1,0.7-0.3c0.4-0.4,0.4-1,0-1.4
		C47.4,68.1,47.4,67.2,47.4,66.4z"/>
	<path class="tumbleweed-1-fill" d="M43.2,25.4c0-0.1,0.3-0.2,0.4-0.2c0.4-0.2,1.1-0.5,1.5-1.2c0.2-0.5,0-1.1-0.5-1.3s-1.1,0-1.3,0.5
		c0,0.1-0.3,0.2-0.4,0.2c-0.4,0.2-1.1,0.5-1.5,1.2c-0.2,0.5,0,1.1,0.5,1.3C42,26,42.1,26,42.3,26C42.7,26,43,25.8,43.2,25.4z"/>
	<path class="tumbleweed-1-fill" d="M53.8,26.5c0.2,0,0.4,0,0.5-0.1l2.4-1.4c0.5-0.3,0.6-0.9,0.3-1.4c-0.3-0.5-0.9-0.6-1.4-0.3l-2.4,1.4
		c-0.5,0.3-0.6,0.9-0.3,1.4C53.1,26.3,53.5,26.5,53.8,26.5z"/>
	<path class="tumbleweed-1-fill" d="M65.2,56.7c-0.5-0.2-1.1,0-1.3,0.6l-1,2.4c-0.1,0.3-0.1,0.6,0.1,0.9c0,0-0.1,0-0.1,0c0,0,0,0,0,0
		c-0.3,0-0.6,0.2-0.8,0.4c0,0,0,0-0.1-0.1c0,0-0.1-0.1-0.1-0.1c0.1-0.5-0.1-1-0.6-1.2c-0.5-0.2-1.1,0-1.3,0.5
		c-0.4,1.1,0.2,1.8,0.5,2.1c0.1,0.1,0.1,0.2,0.1,0.1c0.1,0.5,0.4,0.8,0.9,0.9c0,0,0.1,0,0.1,0c0.2,0,0.5-0.1,0.6-0.2
		c0.3,0,0.8,0,1.1-0.4c0.3-0.3,0.4-0.7,0.4-1.1c0-0.2-0.1-0.3-0.1-0.4c0,0,0.1,0,0.1,0c0.4,0,0.8-0.2,0.9-0.6l1-2.4
		C66,57.5,65.7,56.9,65.2,56.7z M61.9,60.9C61.9,60.9,61.9,60.9,61.9,60.9L61,60.5L61.9,60.9z"/>
	<path class="tumbleweed-1-fill" d="M89,28.5c0.6,0.4,1.3,0.6,1.9,0.7c0.8,0.2,1.2,0.3,1.4,0.7c0.2,0.3,0.5,0.5,0.9,0.5c0.2,0,0.4,0,0.5-0.1
		c0.5-0.3,0.6-0.9,0.3-1.4c-0.7-1.2-1.9-1.4-2.7-1.6c-0.5-0.1-0.9-0.2-1.1-0.4c-0.3-0.2-0.6-0.2-0.8-0.1c-0.1-0.3-0.3-0.5-0.7-0.5
		c-0.7,0.4-0.4,1-0.4,1.5c0.1,0,0.3,0,0.4,0C88.6,27.9,88.7,28.3,89,28.5z"/>
	<path class="tumbleweed-1-fill" d="M94.6,118.7c-0.8,0.4-1.5,1.1-1.9,1.9c-0.2,0.5,0,1.1,0.5,1.3c0.1,0.1,0.3,0.1,0.4,0.1c0.4,0,0.7-0.2,0.9-0.6
		c0.2-0.4,0.5-0.8,1-1c0.5-0.2,0.7-0.8,0.5-1.3C95.7,118.6,95.1,118.4,94.6,118.7z"/>
	<path class="tumbleweed-1-fill" d="M82.1,13.4c0.5,0.3,1.2,0.6,2.1,0.6c0.2,0,0.3,0,0.5,0c0.5-0.1,0.9-0.6,0.8-1.2c-0.1-0.5-0.6-0.9-1.2-0.8
		c-0.3,0.1-0.7,0-1.3-0.4c-0.5-0.3-1.1-0.1-1.4,0.4C81.5,12.5,81.6,13.1,82.1,13.4z"/>
	<path class="tumbleweed-1-fill" d="M89.8,26.5c0.5,0,0.9-0.3,1-0.8c0-0.1,0.2-0.2,0.3-0.2c0.3-0.2,0.6-0.4,0.9-0.8c0.3-0.4,0.2-1.1-0.2-1.4
		c-0.4-0.3-1.1-0.2-1.4,0.2c0,0.1-0.2,0.2-0.3,0.2c-0.4,0.3-1.1,0.7-1.3,1.6c-0.1,0.5,0.3,1.1,0.8,1.2
		C89.7,26.5,89.7,26.5,89.8,26.5z"/>
	<path class="tumbleweed-1-fill" d="M113.4,101.3c-0.1,0.1-0.2,0.2-0.4,0.4c-0.3,0.3-0.5,0.5-0.8,0.6c-0.5,0.1-0.9,0.6-0.8,1.1
		c0.1,0.5,0.5,0.9,1,0.9c0,0,0.1,0,0.1,0c0.9-0.1,1.5-0.7,1.9-1.2c0.1-0.1,0.2-0.2,0.3-0.3c0.4-0.4,0.4-1,0-1.4
		C114.4,101,113.8,100.9,113.4,101.3z"/>
	<path class="tumbleweed-1-fill" d="M88.4,29.6c-0.1-0.5-0.6-0.9-1.2-0.8c-0.6,0.1-1.5,0.6-1.3,2c0,0,0,0.1,0,0.1c0,0.1,0,0.2,0,0.3
		c-0.3,0.1-0.5,0.2-0.6,0.4c-0.3,0.3-0.4,0.7-0.3,1.1c0,0-0.1,0.1-0.2,0.1c-0.4,0.4-0.4,1-0.1,1.4c0.2,0.2,0.5,0.3,0.7,0.3
		c0.2,0,0.5-0.1,0.7-0.3c0.3-0.2,0.7-0.6,0.8-1.3c0.3-0.2,0.4-0.4,0.5-0.8c0-0.1,0-0.1,0-0.2c0.2-0.1,0.3-0.3,0.4-0.5
		c0.2-0.4,0.1-0.7,0.1-1C88.3,30.4,88.5,30,88.4,29.6z"/>
	<path class="tumbleweed-1-fill" d="M68,67c0.3,0,0.6-0.1,0.8-0.4l1.2-1.7c0.1-0.2,0.2-0.4,0.2-0.7c0.1,0.1,0.3,0.1,0.5,0.1c0.3,0,0.6-0.1,0.8-0.4
		c0.2-0.2,0.5-0.4,0.8-0.6c0.5-0.3,1.2-0.7,1.7-1.5c0.3-0.5,0.1-1.1-0.4-1.4s-1.1-0.1-1.4,0.4c-0.2,0.3-0.4,0.4-0.9,0.7
		c-0.5,0.3-1,0.6-1.4,1.1c-0.2,0.2-0.2,0.5-0.2,0.7c-0.4-0.2-1-0.1-1.3,0.3l-1.2,1.7c-0.3,0.4-0.2,1.1,0.2,1.4
		C67.6,67,67.8,67,68,67z"/>
	<path class="tumbleweed-1-fill" d="M70.5,40.5c-0.3,0.2-0.5,0.6-0.4,0.9c-0.1-0.1-0.3-0.1-0.4-0.1c-0.8-0.1-1.3,0.2-1.5,0.5
		c-0.3,0.3-0.5,0.7-0.5,1.5c0,0.5,0.5,0.9,1,0.9c0,0,0,0,0.1,0c0.5,0,0.9-0.5,0.9-1c0.5,0,0.9-0.4,1-0.9c0,0,0-0.1,0-0.1
		c0.1,0.1,0.3,0.1,0.5,0.1c0.2,0,0.4-0.1,0.5-0.2l2.6-1.7c0.2-0.1,0.3-0.3,0.3-0.4c0.2-0.1,0.3-0.2,0.5-0.4c0.5-0.9,1.1-1.7,1.7-2.6
		c1-1.4,2-2.8,2.7-4.5c0.5-1.2,1-2.3,2.1-2.8c0.5-0.2,0.7-0.8,0.5-1.3c-0.2-0.5-0.8-0.7-1.3-0.5c-1.8,0.8-2.5,2.5-3.1,3.9
		c-0.6,1.5-1.5,2.7-2.5,4.1c-0.6,0.9-1.3,1.8-1.8,2.8c0,0,0,0.1,0,0.1c0,0-0.1,0-0.1,0L70.5,40.5z"/>
	<path class="tumbleweed-1-fill" d="M133.4,78.7c-0.5,0-0.9,0.5-0.9,1c-0.5,0-0.9,0.4-1,0.9c0,0.6,0.4,1,0.9,1.1c0.1,0,0.1,0,0.2,0
		c0.7,0,1.1-0.3,1.3-0.5c0.3-0.3,0.5-0.7,0.5-1.5C134.4,79.1,134,78.7,133.4,78.7z"/>
	<path class="tumbleweed-1-fill" d="M46.3,49.4l-0.7,1c-0.2,0.3-0.3,0.6-0.2,0.9c0.1,0.3,0.2,0.5,0.4,0.7c0,0.1,0.1,0.2,0.1,0.1
		c-0.2,0.5,0.1,1.1,0.7,1.2c0.1,0,0.2,0,0.3,0c0.4,0,0.8-0.3,1-0.7c0.2-0.7,0-1.3-0.3-1.6l0.3-0.5c0.3-0.4,0.2-1.1-0.2-1.4
		C47.2,48.8,46.6,48.9,46.3,49.4z"/>
	<path class="tumbleweed-1-fill" d="M29.8,33.1c-1,0-1.4,0.8-1.5,1.1c0,0,0,0,0,0c-0.4,0.2-0.6,0.7-0.4,1.1c0.1,0.4,0.5,0.7,1,0.7
		c0.1,0,0.2,0,0.3,0c0.6-0.2,0.9-0.7,1-1c0.4-0.1,0.7-0.5,0.7-0.9C30.8,33.6,30.4,33.1,29.8,33.1C29.8,33.1,29.8,33.1,29.8,33.1z"/>
	<path class="tumbleweed-1-fill" d="M50,84.6c0.3,0,0.6-0.1,0.8-0.4c0.2-0.2,0.4-0.3,0.6-0.4c0.4-0.1,0.7-0.4,0.8-0.7c0.1,0,0.2,0,0.2,0
		c0.4,0,0.8-0.3,0.9-0.7c0.1-0.4,0.5-0.7,1.1-1l0.2-0.1c0.4-0.3,0.5-0.8,0.4-1.2c0.2-0.1,0.4-0.4,0.5-0.7c-0.4,0-0.7,0.1-0.8,0.2
		c-0.3-0.2-0.8-0.2-1.1,0l-0.2,0.1c-0.7,0.4-1.5,1-1.9,2.1c0,0,0,0.1,0,0.1c-0.1,0-0.3,0-0.4,0c-0.7,0.1-1.3,0.5-1.8,1.1
		c-0.4,0.4-0.3,1.1,0.1,1.4C49.5,84.5,49.7,84.6,50,84.6z"/>
	<path class="tumbleweed-1-fill" d="M79.5,14c0.2,0,0.3,0.1,0.4,0.1c0.8,0,1.2-0.5,1.5-0.8l-0.7-0.7l-0.8-0.6c0,0-0.1,0.1-0.1,0.1
		c-0.5,0-0.9,0.3-1.1,0.8C78.6,13.3,78.9,13.8,79.5,14z"/>
	<path class="tumbleweed-1-fill" d="M39.4,28.4c0.3,0,0.5-0.1,0.7-0.3l1-1c0.4-0.4,0.4-1,0-1.4c-0.4-0.4-1-0.4-1.4,0l-1,1c-0.4,0.4-0.4,1,0,1.4
		C38.9,28.3,39.1,28.4,39.4,28.4z"/>
	<path class="tumbleweed-1-fill" d="M63.4,71c0,0.5,0.3,0.9,0.8,1.1c0.1,0,0.2,0,0.2,0c0.4,0,0.9-0.3,1-0.8c0.3-1-0.4-1.6-0.8-1.9l-0.5,0.5l-0.9,1
		C63.3,70.9,63.3,71,63.4,71z"/>
	<polygon class="tumbleweed-1-fill" points="63.9,70.1 64.1,69.9 64.5,69.4 	"/>
	<path class="tumbleweed-1-fill" d="M40.6,49c0.5-0.1,0.8-0.6,0.8-1.1c0,0,0.1-0.1,0.1-0.1c0,0,0,0,0,0c0.4-0.4,0.4-1,0.1-1.4
		c-0.4-0.4-1-0.4-1.4-0.1c-0.3,0.3-1,0.9-0.8,1.9c0.1,0.5,0.5,0.8,1,0.8C40.4,49,40.5,49,40.6,49z"/>
	<path class="tumbleweed-1-fill" d="M6.3,51.4c0.2,0,0.5-0.1,0.7-0.3c0.3-0.3,1-0.9,0.8-1.9c-0.1-0.5-0.7-0.9-1.2-0.7c-0.5,0.1-0.8,0.6-0.8,1.1
		c0,0-0.1,0.1-0.1,0.1c-0.4,0.4-0.4,1-0.1,1.4C5.7,51.3,6,51.4,6.3,51.4z"/>
	<path class="tumbleweed-1-fill" d="M34.7,59.1c0.5,0,0.8-0.2,1-0.4c0.2-0.2,0.4-0.6,0.4-1.2c0-0.5-0.5-1-1.1-0.9c-0.4,0-0.7,0.2-0.8,0.6
		c-0.3,0.1-0.6,0.5-0.6,0.8c0,0.5,0.3,0.9,0.8,1c-0.2-0.1-0.5,0-0.7,0.1c-1,0.6-1.5,1.3-1.5,2.3c0,0.5,0.5,1,1,1c0,0,0,0,0,0
		c0.6,0,1-0.5,1-1c0-0.1,0-0.3,0.4-0.5c0.5-0.3,0.7-0.9,0.4-1.4c-0.1-0.2-0.3-0.4-0.6-0.5c0,0,0.1,0,0.1,0
		C34.6,59.1,34.6,59.1,34.7,59.1z"/>
	<path class="tumbleweed-1-fill" d="M83,44.7c0,0,0.1,0,0.1,0c0.5,0,0.8-0.2,1-0.4c0.2-0.2,0.4-0.6,0.4-1.1c0-0.5-0.5-0.9-1.1-0.9
		c-0.4,0-0.7,0.2-0.8,0.6c-0.3,0.1-0.6,0.5-0.6,0.8C82,44.2,82.5,44.7,83,44.7z"/>
	<path class="tumbleweed-1-fill" d="M74,43.3c0.5,0,0.8-0.2,1-0.4c0.2-0.2,0.4-0.6,0.4-1.2c0-0.5-0.5-1-1.1-0.9c-0.4,0-0.7,0.2-0.8,0.6
		c-0.3,0.1-0.6,0.5-0.6,0.8c0,0.6,0.4,1,0.9,1.1C73.9,43.3,74,43.3,74,43.3z"/>
	<path class="tumbleweed-1-fill" d="M1.6,70.2c0.5,0,1-0.5,0.9-1.1c0-0.4-0.3-0.7-0.6-0.8c-0.2-0.3-0.5-0.5-0.8-0.6c-0.5-0.1-1,0.4-1.1,0.9
		c0,0.6,0.2,1,0.4,1.2c0.2,0.2,0.5,0.4,1,0.4C1.5,70.2,1.5,70.2,1.6,70.2z"/>
	<path class="tumbleweed-1-fill" d="M41.9,87c0.5,0,0.8-0.2,1-0.4c0.2-0.2,0.4-0.6,0.4-1.2c0-0.5-0.5-1-1.1-0.9c-0.4,0-0.7,0.2-0.8,0.6
		c-0.3,0.1-0.6,0.5-0.6,0.8c0,0.6,0.4,1,0.9,1.1C41.8,87,41.8,87,41.9,87z"/>
	<path class="tumbleweed-1-fill" d="M48.5,29.8c-0.4,0-0.7,0.2-0.8,0.6c-0.3,0.1-0.6,0.5-0.6,0.8c0,0.6,0.4,1,0.9,1.1c0,0,0.1,0,0.1,0
		c0.5,0,0.8-0.2,1-0.4c0.2-0.2,0.4-0.6,0.4-1.2C49.5,30.1,49,29.7,48.5,29.8z"/>
	<path class="tumbleweed-1-fill" d="M75.3,71c-0.5,0-1,0.5-0.9,1.1c0,0.4,0.2,0.7,0.6,0.8c0.1,0.3,0.5,0.6,0.8,0.6c0,0,0,0,0.1,0
		c0.5,0,1-0.4,1-0.9c0-0.6-0.2-1-0.4-1.2C76.3,71.2,75.9,71,75.3,71z"/>
</g>
</svg>
