<svg class="tumbleweed-path-svg" viewBox="0 0 799.1 24.1">
	<path id="tumbleweed-path-one" d="M0,17.9c5-2.2,10.1-4.5,18.8-6.3s21.6-3,34.2-2.5c18.5,0.7, 29.9,4.7,48.6,5.2c18.1,0.5,33-2.5,44-5.3 s25.1-5.8, 43.3-5.6c22.5,0.3,35.9,5.5,58.2,6.1c21.2,0.6,37.7-3.1,54.4-5.6c24.5-3.6,59.3-5.1,87.9-2.7c17.9,1.5,31.9,4.2, 47.9,6.3 c48,6.4,116.3,6.8,166.6,1.1c9.5-1.1,21.5-2.4, 30.9-1.3c7.6,0.9,18.6,3.1,27.4,2.7c10.8-0.5,18.1-3, 33.6-3.1 c26.9-0.2,34.8,1.8,49.5,2.5c26.9,1.2,26.9, 1.2,53.9,2.4"/>
	<path id="tumbleweed-path-two" d="M0,11.8c27-1.2,27-1.2,53.9-2.4c14.7-0.7,22.6-2.7,49.5-2.5C118.9,7,126.2,9.5,137,10
		c8.8,0.4,19.8-1.8,27.4-2.7c9.4-1.1,21.4,0.2,30.9,1.3c50.3,5.7,118.6,5.3,166.6-1.1c16-2.1,30-4.8,47.9-6.3
		c28.6-2.4,63.4-0.9,87.9,2.7c16.7,2.5,33.2,6.2,54.4,5.6c22.3-0.6,35.7-5.8,58.2-6.1c18.2-0.2,32.3,2.8,43.3,5.6s25.9,5.8,44,5.3
		c18.7-0.5,30.1-4.5,48.6-5.2c12.6-0.5,25.5,0.7,34.2,2.5s13.8,4.1,18.8,6.3"/>
</svg>
